<svg fill="none" height="24" viewBox="0 0 24 24" width="24" xmlns="http://www.w3.org/2000/svg"><circle cx="12" cy="12" fill="#fff" r="11" stroke="#3d82c3" stroke-width="2"/><path d="m11.9997 5.33337c-3.68003 0-6.66669 2.98667-6.66669 6.66663 0 3.68 2.98666 6.6667 6.66669 6.6667 3.68 0 6.6666-2.9867 6.6666-6.6667 0-3.67996-2.9866-6.66663-6.6666-6.66663zm-1.8067 9.52663-2.39333-2.3933c-.26-.26-.26-.68 0-.94s.68-.26.94 0l1.92663 1.92 4.5867-4.58666c.26-.26.68-.26.94 0s.26.68 0 .94l-5.06 5.05996c-.2533.26-.68.26-.94 0z" fill="#3d82c3"/></svg>