<svg fill="none" height="198" viewBox="0 0 236 198" width="247" xmlns="http://www.w3.org/2000/svg"><path clip-rule="evenodd" d="M85.45 155.27c12.74-31.57 40.93-99 51.73-116.2L202.5 22.6l24.7 59.1c-15.14 34.73-47.23 106.33-54.43 114.92l-87.32-41.36Zm102.73-99.98c4.64.14 8.5-3.27 8.63-7.6.13-4.35-3.53-7.98-8.17-8.12-4.64-.13-8.5 3.27-8.63 7.61-.13 4.34 3.53 7.98 8.17 8.11Z" fill="#0460CC" fill-rule="evenodd"></path><path d="m137.18 39.07-.18-.73-.3.07-.15.26.63.4Zm-51.73 116.2-.7-.28-.26.65.64.3.32-.67ZM202.5 22.6l.7-.3-.26-.59-.62.16.18.73Zm24.7 59.1.7.3.12-.3-.12-.29-.7.3Zm-54.43 114.92-.32.68.52.25.37-.45-.57-.48ZM196.8 47.68l.75.02-.75-.02Zm-8.63 7.61.02-.75-.02.75Zm.46-15.72-.02.75.02-.75Zm-52.1-.9c-5.43 8.66-15.2 29.88-25.18 52.81-10 22.97-20.23 47.72-26.6 63.5l1.38.57c6.38-15.78 16.6-40.52 26.6-63.47 9.99-22.97 19.71-44.07 25.08-52.61l-1.27-.8Zm65.78-16.8L137 38.35l.36 1.45 65.32-16.46-.36-1.45Zm25.58 59.55-24.7-59.1-1.4.58L226.52 82l1.39-.58Zm-54.56 115.7a45.1 45.1 0 0 0 3.87-6.1c1.6-2.86 3.51-6.51 5.64-10.75 4.27-8.47 9.43-19.32 14.84-30.98A3454.31 3454.31 0 0 0 227.89 82l-1.37-.6a3457.92 3457.92 0 0 1-30.2 67.25 1145.1 1145.1 0 0 1-14.8 30.94 282.43 282.43 0 0 1-5.62 10.69 44.1 44.1 0 0 1-3.7 5.86l1.14.96Zm-88.21-41.17 87.32 41.36.64-1.36-87.32-41.36-.64 1.36Zm110.93-108.3c-.11 3.89-3.59 7.02-7.86 6.9l-.05 1.5c5.01.14 9.27-3.55 9.41-8.35l-1.5-.04Zm-7.44-7.33c4.27.13 7.56 3.46 7.44 7.34l1.5.04c.14-4.8-3.89-8.73-8.9-8.88l-.04 1.5Zm-7.86 6.89c.11-3.88 3.59-7.01 7.86-6.89l.04-1.5c-5-.14-9.26 3.54-9.4 8.34l1.5.05Zm7.44 7.33c-4.27-.12-7.56-3.45-7.44-7.33l-1.5-.05c-.14 4.8 3.89 8.73 8.9 8.88l.04-1.5Z" fill="#1D1D1B"></path><path d="m30 90 15-8 10 5-24.5 14-.5-11Z" fill="#ADDDE4"></path><path d="M181.75 108.95c5.35-16.85-21.4-26.9-27.14 7.37-3.85 23-24.42 20.83-27.35 17.81-2.94-3-.77-16.85 10.33-10.05 11.09 6.81 15.48 24.56 21.85 24.23m12.64-25.52-33.47-11.43" stroke="#fff" stroke-linecap="round" stroke-width="3"></path><path clip-rule="evenodd" d="m35.03 113.75 22.78-12.99a6.64 6.64 0 0 0 9.46 3.31 6.61 6.61 0 0 0 1.87-9.85l5.26-3.03a.49.49 0 0 0 .18-.67L59.5 64.42a.49.49 0 0 0-.67-.17l-.77.44a.5.5 0 0 0-.2.64c3.4 6.97 3.33 11.53 2.86 12.96-1.36 5.09-6.65 5.63-9.12 5.27L47.45 82a8.24 8.24 0 0 0-6.9.3l-8.06 4.66a7.54 7.54 0 0 0-3.81 5.88l-1 6.1c-.26 5.1-3.83 7.16-5.48 8.1l-.07.04-.06.04-12.23 7.16a.5.5 0 0 0-.18.67l5.7 9.86c.13.23.43.31.66.18l7.82-4.72a6.61 6.61 0 1 0 11.19-6.52Zm-4.6-12.73 1.05-7.95c.12-.83 1.19-2.96 4.5-4.87l1.05-.6 4.16 7.2-10.76 6.22Zm10.54-15.7L38 87.03l4.16 7.22 10.76-6.22a80.76 80.76 0 0 1-5.8-2.93c-3-1.63-4.82-.56-5.98.12l-.17.1Zm25.75 11.43a3.18 3.18 0 1 1-5.51 3.19 3.18 3.18 0 0 1 5.51-3.19ZM32.88 116.6a3.19 3.19 0 1 1-5.52 3.18 3.19 3.19 0 0 1 5.52-3.18Z" fill="#1D1D1B" fill-rule="evenodd"></path><path d="m57.8 100.76.47-.18-.21-.54-.5.29.25.43Zm-22.77 12.98-.25-.43-.54.3.42.47.37-.33Zm34.1-19.52-.24-.43-.5.3.36.44.39-.3Zm5.27-3.03.25.43-.25-.43ZM58.84 64.25l-.25-.44.25.44Zm-.77.44.25.43-.25-.43Zm-.2.64-.44.22.45-.22Zm2.86 12.96-.48-.16v.03l.48.13Zm-9.12 5.27-.18.47.05.01.05.01.08-.5ZM47.45 82l-.18.46.18-.46Zm-6.9.3.26.43h.01l-.26-.43Zm-8.06 4.66.25.43-.25-.43Zm-3.81 5.88.5.08v-.07l-.5-.01Zm-1 6.1-.5-.09v.06l.5.03Zm-5.48 8.1-.25-.43.25.44Zm-.07.04-.25-.43.25.43Zm-.06.04-.25-.43.25.43Zm-12.23 7.16.25.43-.25-.43Zm-.18.67.43-.25-.43.25Zm5.7 9.86-.44.25.43-.25Zm.66.18.25.43h.01l-.26-.43Zm7.82-4.72.48-.16-.2-.6-.54.33.26.42Zm7.64-27.2-.5-.07.5.07Zm-1.05 7.95-.5-.07-.13 1 .88-.5-.25-.43Zm6.6-13.43.43-.25-.25-.43-.43.25.25.43Zm4.16 7.22.25.43.43-.25-.25-.43-.43.25Zm-3.2-7.78-.24-.43-.44.25.25.43.44-.25Zm4.17 7.22-.43.25.25.43.43-.25-.25-.43Zm10.76-6.22.25.44.87-.5-.93-.4-.2.46Zm-5.8-2.93-.23.44.23-.44Zm-5.98.12.25.43-.25-.43Zm16.42 15.1-22.78 13 .5.86 22.77-12.99-.5-.86Zm1.11 1.08a6.1 6.1 0 0 1-.4-.82l-.93.36c.13.33.28.65.46.96l.87-.5Zm8.35 2.24a6.11 6.11 0 0 1-8.35-2.24l-.87.5a7.11 7.11 0 0 0 9.72 2.6l-.5-.86Zm2.24-8.35a6.11 6.11 0 0 1-2.24 8.35l.5.87a7.11 7.11 0 0 0 2.6-9.72l-.86.5Zm-.51-.76c.18.24.36.49.51.76l.87-.5c-.18-.31-.38-.6-.6-.88l-.78.62Zm5.4-3.78-5.26 3.04.5.87 5.26-3.04-.5-.87Zm0 .02v-.01l.5.86a.99.99 0 0 0 .36-1.35l-.86.5Zm-15.07-26.1 15.07 26.1.86-.5-15.07-26.1-.86.5Zm.01 0h-.01l.86-.5a.99.99 0 0 0-1.35-.36l.5.87Zm-.77.45.77-.44-.5-.87-.77.45.5.86Zm0 0-.5-.86a1 1 0 0 0-.4 1.3l.9-.44Zm2.88 13.33c.27-.82.4-2.41.04-4.64a31.5 31.5 0 0 0-2.91-8.7l-.9.44a30.5 30.5 0 0 1 2.83 8.42c.34 2.15.2 3.56 0 4.16l.94.32Zm-9.67 5.6c1.3.2 3.34.15 5.24-.62a7.22 7.22 0 0 0 4.44-5.01l-.97-.26a6.23 6.23 0 0 1-3.84 4.34c-1.7.69-3.55.73-4.72.56l-.15 1Zm-4.25-1.59 4.15 1.57.35-.94-4.15-1.56-.35.93Zm-6.46.27a7.75 7.75 0 0 1 6.45-.27l.36-.93c-3.36-1.28-6.26-.33-7.34.35l.53.84Zm-8.08 4.66 8.07-4.66-.5-.86-8.07 4.65.5.87Zm-3.56 5.46a7.05 7.05 0 0 1 3.56-5.46l-.5-.87a8.04 8.04 0 0 0-4.06 6.3l1 .03Zm-1.01 6.17 1-6.1-.99-.16-1 6.1.99.16Zm-5.72 8.46c1.66-.96 5.46-3.13 5.72-8.52l-1-.05c-.23 4.82-3.58 6.76-5.22 7.7l.5.87Zm-.07.04.07-.04-.5-.87-.07.04.5.87Zm-.06.03.06-.03-.5-.87-.06.04.5.86Zm-12.23 7.16 12.24-7.16-.5-.86-12.25 7.16.5.86Zm0-.01v.01l-.5-.87a1 1 0 0 0-.37 1.36l.87-.5Zm5.7 9.86-5.7-9.86-.87.5 5.7 9.86.87-.5Zm-.02 0h.01l-.86.5c.27.47.88.64 1.35.36l-.5-.86Zm7.81-4.72-7.82 4.72.52.86 7.82-4.73-.52-.85Zm-.21.58c.15.45.34.9.59 1.32l.86-.5a6.12 6.12 0 0 1-.5-1.13l-.95.31Zm.59 1.32a7.11 7.11 0 0 0 9.72 2.6l-.5-.87a6.11 6.11 0 0 1-8.36-2.23l-.86.5Zm9.72 2.6a7.11 7.11 0 0 0 2.6-9.72l-.87.5a6.11 6.11 0 0 1-2.23 8.35l.5.87Zm2.6-9.72a7.14 7.14 0 0 0-.88-1.2l-.74.66c.28.31.53.66.75 1.04l.87-.5ZM30.98 93l-1.04 7.95.99.13 1.04-7.95-.99-.13Zm4.74-5.23c-3.38 1.95-4.59 4.2-4.74 5.23l1 .14c.08-.62 1.02-2.64 4.24-4.5l-.5-.87Zm1.06-.6-1.06.6.5.87 1.06-.61-.5-.87Zm4.84 7.39-4.16-7.22-.87.5 4.17 7.22.86-.5Zm-10.94 6.9 10.76-6.22-.5-.87-10.76 6.22.5.86Zm7.57-14 2.97-1.71-.5-.87-2.97 1.72.5.87ZM42.59 94l-4.16-7.22-.87.5 4.17 7.22.86-.5Zm10.08-6.4L41.9 93.81l.5.87 10.76-6.21-.5-.87Zm-5.79-2.06a81.11 81.11 0 0 0 5.84 2.95l.4-.92c-.6-.25-2.62-1.2-5.76-2.9l-.48.87Zm-5.5.11a5.87 5.87 0 0 1 2.14-.86 5.25 5.25 0 0 1 3.36.75l.48-.88a6.24 6.24 0 0 0-4-.86c-1.07.16-1.9.65-2.48.99l.5.86Zm-.16.1.17-.1-.5-.86-.17.1.5.86Zm24.59 15.79a3.68 3.68 0 0 0 1.35-5.04l-.87.5c.74 1.29.3 2.93-.98 3.67l.5.87Zm-5.04-1.35a3.68 3.68 0 0 0 5.04 1.35l-.5-.87c-1.29.74-2.93.3-3.67-.98l-.87.5Zm1.35-5.03a3.68 3.68 0 0 0-1.35 5.03l.87-.5a2.68 2.68 0 0 1 .98-3.67l-.5-.86Zm5.04 1.34a3.68 3.68 0 0 0-5.04-1.34l.5.86a2.68 2.68 0 0 1 3.67.98l.87-.5Zm-35.2 24.87a3.69 3.69 0 0 0 1.35-5.03l-.87.5c.75 1.28.3 2.92-.98 3.67l.5.86Zm-5.03-1.35a3.68 3.68 0 0 0 5.03 1.35l-.5-.86c-1.28.74-2.92.3-3.67-.99l-.86.5Zm1.35-5.03a3.68 3.68 0 0 0-1.35 5.03l.86-.5a2.68 2.68 0 0 1 .99-3.66l-.5-.87Zm5.03 1.35a3.68 3.68 0 0 0-5.03-1.35l.5.87a2.68 2.68 0 0 1 3.66.98l.87-.5ZM188.09 47.5a.75.75 0 1 1 .87 1.23l-.87-1.23Zm-56.07 12.61-.54.52.54-.52ZM72.28 77.4l-.65.37-.74-1.3.65-.37.74 1.3Zm116.68-28.68c-.7.5-1.74 1.42-3.12 2.67-1.36 1.23-3.01 2.74-4.9 4.36-3.78 3.24-8.54 6.93-13.85 9.72-5.31 2.8-11.23 4.72-17.33 4.37-6.13-.36-12.36-3-18.28-9.21l1.09-1.04c5.68 5.96 11.56 8.42 17.27 8.75 5.74.33 11.38-1.48 16.55-4.2s9.83-6.32 13.57-9.53c1.87-1.6 3.51-3.1 4.88-4.33a42.55 42.55 0 0 1 3.25-2.78l.87 1.23Zm-57.48 11.91c-7.65-8.02-14.83-11.08-21.33-11.23-6.52-.15-12.49 2.6-17.71 6.5-5.23 3.9-9.66 8.9-13.06 13.1-1.71 2.1-3.13 3.97-4.31 5.45-.58.73-1.1 1.36-1.55 1.85-.43.47-.85.88-1.24 1.1l-.74-1.3c.16-.1.45-.34.88-.81.4-.46.9-1.05 1.48-1.78 1.13-1.42 2.6-3.35 4.31-5.46 3.43-4.23 7.95-9.34 13.33-13.35 5.38-4 11.67-6.97 18.65-6.8 6.99.16 14.53 3.47 22.38 11.7l-1.09 1.03Z" fill="#1D1D1B"></path></svg>