<svg width="50" height="50" viewBox="0 0 50 50" fill="none" xmlns="http://www.w3.org/2000/svg">
<circle cx="25" cy="25" r="25" fill="#FDCF33"/>
<path fill-rule="evenodd" clip-rule="evenodd" d="M24.5833 24.1667H29.1667V16.4103H24.6795C23.6191 16.4103 22.7564 15.5476 22.7564 14.4872V10H14.4231C13.3626 10 12.5 10.8626 12.5 11.9231V29.9573C12.5 31.0177 13.3626 31.8803 14.4231 31.8803H20V31.3855L21.8277 26.1222L21.8298 26.1161C22.2288 24.9951 23.292 24.1667 24.5833 24.1667ZM24.6791 15.1282H28.7907L24.0381 10.3756V14.4872C24.0381 14.8408 24.3254 15.1282 24.6791 15.1282ZM25.3619 18.3333H16.4665C16.1165 18.3333 15.8333 18.5942 15.8333 18.9167C15.8333 19.2391 16.1165 19.5 16.4665 19.5H25.3619C25.7118 19.5 25.995 19.2391 25.995 18.9167C25.995 18.5942 25.7118 18.3333 25.3619 18.3333ZM23.3922 20.6667H16.4665C16.1165 20.6667 15.8333 20.9276 15.8333 21.25C15.8333 21.5724 16.1165 21.8333 16.4665 21.8333H23.3922C23.7421 21.8333 24.0253 21.5724 24.0253 21.25C24.0253 20.9276 23.7421 20.6667 23.3922 20.6667ZM16.4665 23H19.7835C20.1335 23 20.4167 23.2609 20.4167 23.5833C20.4167 23.9058 20.1335 24.1667 19.7835 24.1667H16.4665C16.1165 24.1667 15.8333 23.9058 15.8333 23.5833C15.8333 23.2609 16.1165 23 16.4665 23ZM33.75 25.8334C34.3 25.8334 34.7667 26.1834 34.9333 26.6751L36.6667 31.6668V38.3334C36.6667 38.7918 36.2917 39.1668 35.8333 39.1668H35C34.5417 39.1668 34.1667 38.7918 34.1667 38.3334V37.5001H24.1667V38.3334C24.1667 38.7918 23.7917 39.1668 23.3333 39.1668H22.5C22.0417 39.1668 21.6667 38.7918 21.6667 38.3334V31.6668L23.4 26.6751C23.575 26.1834 24.0333 25.8334 24.5833 25.8334H33.75ZM23.3333 33.7501C23.3333 34.4418 23.8917 35.0001 24.5833 35.0001C25.275 35.0001 25.8333 34.4418 25.8333 33.7501C25.8333 33.0584 25.275 32.5001 24.5833 32.5001C23.8917 32.5001 23.3333 33.0584 23.3333 33.7501ZM32.5 33.7501C32.5 34.4418 33.0583 35.0001 33.75 35.0001C34.4417 35.0001 35 34.4418 35 33.7501C35 33.0584 34.4417 32.5001 33.75 32.5001C33.0583 32.5001 32.5 33.0584 32.5 33.7501ZM24.5833 27.0834L23.3333 30.8334H35L33.75 27.0834H24.5833Z" fill="#333333"/>
</svg>
