<svg width="50" height="50" viewBox="0 0 50 50" fill="none" xmlns="http://www.w3.org/2000/svg">
<circle cx="25" cy="25" r="25" fill="#FDCF33"/>
<path fill-rule="evenodd" clip-rule="evenodd" d="M22.6483 18.5533L29.033 12.1634C29.7016 11.501 30.7789 11.501 31.4475 12.1634L37.8375 18.5533C38.4998 19.2219 38.4998 20.2993 37.8375 20.9679L31.4475 27.3526C30.7789 28.015 29.7016 28.015 29.033 27.3526L27.6764 25.996L22.6483 20.9679C21.9859 20.2993 21.9859 19.2219 22.6483 18.5533ZM29.4179 16.7516L33.2519 20.5751C33.8557 21.1789 34.8348 21.1789 35.4386 20.5751C36.0425 19.9712 36.0425 18.9922 35.4386 18.3884H35.4308L31.6047 14.5649C31.0008 13.961 30.0218 13.961 29.4179 14.5649C28.8141 15.1687 28.8141 16.1477 29.4179 16.7516ZM26.2644 25.674L26.8694 26.279L15.3413 37.807L13.9167 38.0113L26.2644 25.674ZM13.38 33.4806L12.1937 34.6669L11.6699 38.3333L12.6572 38.1919L25.7252 25.1344L23.7244 23.1336L18.4605 28.4001C19.1664 29.1059 19.1664 30.2502 18.4605 30.956C17.7547 31.6619 16.6104 31.6619 15.9046 30.956L15.1739 31.6867L15.6584 33.4989C15.6752 33.5631 15.675 33.6305 15.6579 33.6946C15.6033 33.8986 15.3936 34.0197 15.1896 33.9651L13.38 33.4806Z" fill="#333333"/>
</svg>
