<svg width="50" height="50" viewBox="0 0 50 50" fill="none" xmlns="http://www.w3.org/2000/svg">
<circle cx="25" cy="25" r="25" fill="#FDCF33"/>
<path fill-rule="evenodd" clip-rule="evenodd" d="M32.6923 37.9231H17.3077C16.0352 37.9231 15 36.8879 15 35.6154V13.9744C15 12.7019 16.0352 11.6667 17.3077 11.6667H27.3077V17.0513C27.3077 18.3238 28.3429 19.359 29.6154 19.359H35V35.6154C35 36.8879 33.9648 37.9231 32.6923 37.9231ZM29.6136 17.8205H34.5475L28.8444 12.1174V17.0513C28.8444 17.4757 29.1892 17.8205 29.6136 17.8205ZM21.2459 27.0138L23.3015 29.1375L28.7541 23.5486C29.0412 23.2616 29.4976 23.2616 29.7847 23.5486C30.0718 23.8357 30.0718 24.2921 29.7847 24.5792L23.8167 30.676C23.5297 30.9631 23.0659 30.9631 22.7788 30.676L20.2153 28.0444C19.9282 27.7573 19.9282 27.3009 20.2153 27.0138C20.5024 26.7268 20.9588 26.7268 21.2459 27.0138Z" fill="#333333"/>
</svg>
