<svg fill="none" height="178" viewBox="0 0 376 178" width="376" xmlns="http://www.w3.org/2000/svg"><line stroke="#1D1D1B" stroke-width="1.55" x1="136.824" x2="190.3" y1="111.314" y2="111.314"></line><line stroke="#1D1D1B" stroke-width="1.55" x1="119" x2="172.476" y1="125.178" y2="125.178"></line><line stroke="#1D1D1B" stroke-width="1.55" x1="128.902" x2="182.378" y1="139.042" y2="139.042"></line><path clip-rule="evenodd" d="M336.646 174.214C328.809 172.307 322.632 163.425 324.833 154.375C327.035 145.325 336.782 139.533 344.619 141.44C352.456 143.346 358.306 152.366 356.104 161.416C353.903 170.467 344.483 176.12 336.646 174.214ZM338.714 165.717C334.941 164.799 332.741 160.523 333.801 156.165C334.861 151.807 338.779 149.019 342.553 149.937C346.326 150.855 348.525 155.131 347.465 159.489C346.405 163.847 342.487 166.635 338.714 165.717Z" fill="#1D1D1B" fill-rule="evenodd"></path><path clip-rule="evenodd" d="M224.46 174.117C217.574 172.272 212.396 162.885 214.807 153.888C217.217 144.891 226.304 139.691 233.19 141.536C240.077 143.382 245.304 152.42 242.893 161.416C240.482 170.413 231.347 175.962 224.46 174.117ZM226.725 165.67C223.409 164.782 221.662 160.55 222.823 156.218C223.983 151.886 227.612 149.095 230.928 149.983C234.244 150.872 235.991 155.104 234.83 159.436C233.669 163.767 230.04 166.559 226.725 165.67Z" fill="#1D1D1B" fill-rule="evenodd"></path><path clip-rule="evenodd" d="M242.254 155.328H332.904C333.958 152.066 337.019 149.706 340.632 149.706C344.245 149.706 347.307 152.066 348.361 155.328H370.518C371.542 155.328 372.401 154.554 372.507 153.536L375.382 125.992C375.505 124.811 374.579 123.784 373.392 123.784H332.513C332.455 123.784 332.397 123.784 332.338 123.784C332.274 123.784 332.208 123.784 332.142 123.785C327.276 123.793 316.775 123.81 309.714 112.853L299.719 100.673C298.054 97.9661 292.536 92.5527 283.791 92.5527H260.056C257.141 92.4486 249.937 93.9269 244.44 100.673L237.257 109.418C236.827 109.758 236.368 110.135 235.882 110.535C230.719 114.781 222.511 121.531 213.833 112.853C211.008 110.331 207.588 97.3269 206.242 77.878C206.169 76.8233 205.295 76 204.238 76H203.165C202.172 76 201.329 76.7292 201.186 77.7123L190.238 153.04C190.062 154.247 190.998 155.328 192.217 155.328H221.097C222.151 152.066 225.213 149.706 228.826 149.706C232.439 149.706 235.5 152.066 236.554 155.328H242.254ZM308.331 120.973L295.973 103.796C294.515 102.026 288.914 98.4867 278.171 98.4867H261.93C261.756 98.4867 261.576 98.4857 261.391 98.4848H261.391C257.597 98.4648 251.63 98.4334 246.627 106.295C242.735 112.41 237.935 116.728 235.249 119.144L235.248 119.144C234.313 119.986 233.634 120.597 233.338 120.973H308.331Z" fill="#1D1D1B" fill-rule="evenodd"></path><path d="M295.972 103.796L308.33 120.973H233.337C234.482 119.516 241.379 114.54 246.626 106.295C251.873 98.0494 258.182 98.4867 261.93 98.4867H278.17C288.914 98.4867 294.515 102.026 295.972 103.796Z" fill="#ADDDE4"></path><rect fill="#1D1D1B" height="24" width="2" x="269" y="98"></rect><path d="M156 174H333.5" stroke="#1D1D1B" stroke-width="1.55"></path><path d="M0 174H77.5" stroke="#1D1D1B" stroke-width="1.55"></path><path d="M53.0388 21.577C52.6681 22.9429 55.0465 27.1868 56.282 29.1381C58.1352 29.7885 61.8418 30.6991 61.8418 29.1381C61.8418 27.1868 63.2317 24.0161 63.9266 19.8697C64.6216 15.7233 60.2201 14.5037 57.4402 14.0159C55.2163 13.6256 55.7414 20.5201 56.282 24.0161C55.3553 22.6339 53.4094 20.2111 53.0388 21.577Z" fill="#E0AC69" stroke="#1D1D1B" stroke-linejoin="round" stroke-width="1.55"></path><path d="M28 31.9677C27.226 31.9287 27.226 31.9286 27.226 31.9285L27.226 31.9283L27.226 31.9277L27.2262 31.9254L27.2266 31.9169L27.2283 31.8852L27.2349 31.7672C27.2408 31.6662 27.2495 31.5227 27.2612 31.3515C27.2845 31.0101 27.3196 30.5543 27.3669 30.1045C27.4132 29.6632 27.4743 29.1961 27.5542 28.8466C27.5904 28.688 27.6466 28.4768 27.7433 28.3018C27.7632 28.2658 27.8 28.2024 27.8586 28.1329L28.8745 23.2327L28.6018 13.8181L28.586 13.2724L29.0945 13.0738L36.2522 10.2781L36.808 10.061L37.16 10.5428C38.2545 12.041 39.5067 14.3063 40.4151 16.1524C40.8706 17.0781 41.2501 17.9194 41.4856 18.5258C41.5997 18.8197 41.6952 19.0965 41.7409 19.3105C41.7569 19.3856 41.7995 19.586 41.7551 19.7959C41.7316 19.9069 41.6484 20.1826 41.3525 20.3464C41.0486 20.5146 40.7633 20.4318 40.6473 20.3847C40.4596 20.3085 40.2555 20.227 40.0418 20.1418C39.4944 19.9234 38.8835 19.6797 38.3215 19.4326C38.1989 19.3787 38.0753 19.3233 37.9521 19.2665L38.9423 23.691L39.042 24.1364L38.7008 24.4395C38.5355 24.5864 38.3548 24.7331 38.1618 24.8898C37.8166 25.17 37.4317 25.4824 37.0243 25.8857C36.4052 26.4986 35.9974 27.089 35.9251 27.6026C35.6992 29.2089 34.7551 32.0474 34.2704 33.2627L34.0037 37.0544L33.9418 37.9353L33.0764 37.7595C32.7561 37.6944 32.4451 37.523 32.1834 37.3501C31.9067 37.1672 31.6145 36.9343 31.3227 36.6794C30.7383 36.1687 30.1066 35.5261 29.5312 34.9063C28.9534 34.284 28.4208 33.6722 28.0335 33.2169C27.8395 32.989 27.6814 32.7996 27.5714 32.6668C27.5164 32.6004 27.4734 32.5481 27.444 32.5122L27.4103 32.4709L27.4014 32.46L27.399 32.4571L27.3984 32.4563L27.3982 32.456C27.3981 32.4559 27.3981 32.4559 28 31.9677ZM28 31.9677L27.226 31.9287L27.211 32.2252L27.3981 32.4559L28 31.9677ZM40.2296 19.6608C40.2299 19.6611 40.2294 19.6559 40.2272 19.6444C40.2282 19.6548 40.2293 19.6605 40.2296 19.6608Z" fill="#E0AC69" stroke="#1D1D1B" stroke-width="1.55"></path><path d="M51.1852 174L45.9249 167.335V81.1316C58.199 63.3578 61.1233 39.3631 62 29.5875H55.7131C53.0829 35.5121 45.9249 48.8721 45.9249 54.9152C43.2947 47.0651 37.2453 31.5426 34.0891 32.2536L33.2124 36.697C31.1667 36.1046 27.163 33.5866 27.5137 28.2544C25.0296 27.8101 19.2725 27.6324 16.1163 30.4762C10.4176 34.3272 4.37957 45.511 4.02888 64.3513C3.59052 87.9016 8.22574 94.5 12.171 94.5V174H38.4727H51.1852Z" fill="#0460CC"></path><path d="M45.9249 81.1316V167.335L51.1852 174H38.4727M45.9249 81.1316V62.4691M45.9249 81.1316C58.199 63.3578 61.1233 39.3631 62 29.5875H55.7131C53.0829 35.5121 45.9249 48.8721 45.9249 54.9152C43.2947 47.0651 37.2453 31.5426 34.0891 32.2536L33.2124 36.697C31.1667 36.1046 27.163 33.5866 27.5137 28.2544C25.0296 27.8101 19.2725 27.6324 16.1163 30.4762C10.4176 34.3272 4.37957 45.511 4.02888 64.3513C3.59052 87.9016 8.22574 94.5 12.171 94.5M45.9249 81.1316H17.4964C17.6425 83.9458 18.4834 93.4336 12.171 94.5M12.171 94.5V174H38.4727M38.4727 174L34.0891 167.335V90.9073" stroke="#1D1D1B" stroke-width="1.55"></path><path d="M17.5 81.5C16.8104 74.2059 13.8673 66.7647 18.0001 54" stroke="#1D1D1B" stroke-width="1.55"></path><path d="M16 103C21 104.75 29 103 25.5 93" stroke="#1D1D1B" stroke-width="1.55"></path><path d="M31.5187 21.6982C33.2543 19.6266 31.6995 17.3823 30.7052 16.5191C30.3436 16.0396 29.729 14.7353 30.1628 13.3542C30.7052 11.6278 30.9764 13.9297 32.3322 13.3542C33.4169 12.8938 34.7728 11.6278 35.3152 11.0524C39.3828 10.7647 41.8234 7.5997 42.6369 6.44875C43.4505 5.2978 43.1793 2.99605 38.8405 1.26969C35.3694 -0.111388 31.2475 4.14695 29.6205 6.44875C28.1742 7.12011 25.2274 9.44109 25.0105 13.3542C24.7936 17.2672 27.9934 22.0818 29.6205 24L31.5187 21.6982Z" fill="#1D1D1B" stroke="#1D1D1B" stroke-width="1.55"></path><mask fill="white" id="path-18-inside-1_1418_35667"><ellipse rx="0.5" ry="1" transform="matrix(-1 0 0 1 34.5 15)"></ellipse></mask><ellipse fill="#1D1D1B" rx="0.5" ry="1" transform="matrix(-1 0 0 1 34.5 15)"></ellipse><path d="M35.55 15C35.55 15.0877 35.5711 15.0904 35.5328 15.0139C35.5135 14.9752 35.4504 14.8598 35.3064 14.738C35.1524 14.6078 34.8756 14.45 34.5 14.45V17.55C33.4585 17.55 32.933 16.746 32.7601 16.4003C32.5409 15.9618 32.45 15.4646 32.45 15H35.55ZM34.5 14.45C34.1244 14.45 33.8476 14.6078 33.6936 14.738C33.5496 14.8598 33.4865 14.9752 33.4672 15.0139C33.4289 15.0904 33.45 15.0877 33.45 15H36.55C36.55 15.4646 36.4591 15.9618 36.2399 16.4003C36.067 16.746 35.5415 17.55 34.5 17.55V14.45ZM33.45 15C33.45 14.9123 33.4289 14.9096 33.4672 14.9861C33.4865 15.0248 33.5496 15.1402 33.6936 15.262C33.8476 15.3922 34.1244 15.55 34.5 15.55V12.45C35.5415 12.45 36.067 13.254 36.2399 13.5997C36.4591 14.0382 36.55 14.5354 36.55 15H33.45ZM34.5 15.55C34.8756 15.55 35.1524 15.3922 35.3064 15.262C35.4504 15.1402 35.5135 15.0248 35.5328 14.9861C35.5711 14.9096 35.55 14.9123 35.55 15H32.45C32.45 14.5354 32.5409 14.0382 32.7601 13.5997C32.933 13.254 33.4585 12.45 34.5 12.45V15.55Z" fill="#1D1D1B" mask="url(#path-18-inside-1_1418_35667)"></path><path d="M61 22L63 17" stroke="#1D1D1B" stroke-linejoin="round" stroke-width="1.55"></path><path d="M58.6979 20.5369L59.2656 15" stroke="#1D1D1B" stroke-linejoin="round" stroke-width="1.55"></path></svg>