<svg fill="none" height="531" viewBox="0 0 586 531" width="606" xmlns="http://www.w3.org/2000/svg"><rect fill="#2D2D2B" height="249.865" rx="5.34035" stroke="#1D1D1B" stroke-width="0.273864" transform="matrix(0.992506 -0.122193 0.121799 0.992555 53.8519 38.7433)" width="316.634" x="0.152584" y="0.11918"></rect><g clip-path="url(#clip0_1541_34206)"><rect fill="#4A4A48" height="201.271" rx="1.68883" stroke="#1D1D1B" stroke-width="0.273864" transform="matrix(0.992506 -0.122193 0.121799 0.992555 80.7269 59.7814)" width="268.144" x="0.152584" y="0.11918"></rect><path d="M-42.4857 123.528C-42.5389 123.128 -42.2579 122.761 -41.8581 122.707L108.335 102.68C108.735 102.626 109.102 102.907 109.155 103.307L121.722 197.848C121.776 198.248 121.495 198.615 121.095 198.668L-29.0985 218.696C-29.4983 218.749 -29.8655 218.468 -29.9187 218.068L-42.4857 123.528Z" fill="white"></path><path clip-rule="evenodd" d="M12.0317 193.167C17.3633 192.456 21.1105 187.555 20.4013 182.22C19.6921 176.884 14.7951 173.136 9.46346 173.847C4.13186 174.557 0.384674 179.459 1.09388 184.794C1.80309 190.13 6.70013 193.878 12.0317 193.167ZM11.3652 188.158C13.9323 187.816 15.7365 185.456 15.395 182.887C15.0535 180.318 12.6957 178.513 10.1286 178.856C7.56156 179.198 5.75736 181.558 6.09883 184.127C6.4403 186.696 8.79814 188.501 11.3652 188.158Z" fill="#1D1D1B" fill-rule="evenodd"></path><path clip-rule="evenodd" d="M76.0316 184.633C81.3632 183.922 85.1104 179.021 84.4012 173.685C83.692 168.35 78.7949 164.601 73.4633 165.312C68.1317 166.023 64.3845 170.925 65.0938 176.26C65.803 181.595 70.7 185.344 76.0316 184.633ZM75.3653 179.624C77.9323 179.282 79.7365 176.922 79.3951 174.353C79.0536 171.784 76.6958 169.979 74.1287 170.321C71.5616 170.664 69.7574 173.024 70.0989 175.593C70.4404 178.161 72.7982 179.966 75.3653 179.624Z" fill="#1D1D1B" fill-rule="evenodd"></path><path clip-rule="evenodd" d="M14.9815 181.486C14.1299 179.698 12.1967 178.58 10.1286 178.856C8.06056 179.131 6.48853 180.716 6.13369 182.665L-9.10269 184.697C-9.30259 184.724 -9.48618 184.583 -9.51276 184.383L-11.8183 167.039C-11.8449 166.839 -11.7044 166.655 -11.5045 166.629L12.8041 163.387L13.0161 163.359C15.8022 162.992 21.8147 162.201 25.0222 155.386L29.8155 147.646C30.5628 145.968 33.309 142.446 38.3146 141.779L51.9013 139.967C53.5619 139.685 57.7981 139.982 61.4582 143.426L66.2358 147.887C69.3974 149.772 76.8985 152 81.6102 145.837C83.0662 144.141 85.7567 137.864 84.989 126.255C84.9763 126.062 85.1144 125.889 85.3058 125.863L87.2849 125.599C87.4847 125.573 87.6683 125.713 87.6949 125.913L93.6389 170.629C93.6655 170.829 93.5249 171.012 93.325 171.039L78.9817 172.952C78.1301 171.163 76.1978 170.045 74.1297 170.321C72.0616 170.597 70.4886 172.182 70.1338 174.131L14.9815 181.486ZM25.6403 160.037L32.1983 149.149C32.8978 148.024 35.8343 145.569 41.9841 144.749L51.2803 143.509C51.3802 143.496 51.4832 143.481 51.5891 143.467C53.7589 143.166 57.1725 142.692 60.6346 146.813C64.2658 151.136 66.7065 153.711 67.473 154.459L25.6403 160.037Z" fill="#1D1D1B" fill-rule="evenodd"></path><path d="M329.926 73.4375C329.873 73.0376 330.154 72.6703 330.554 72.617L480.747 52.5894C481.147 52.5361 481.514 52.817 481.568 53.2168L494.135 147.757C494.188 148.157 493.907 148.525 493.507 148.578L343.314 168.605C342.914 168.659 342.547 168.378 342.493 167.978L329.926 73.4375Z" fill="white"></path><path clip-rule="evenodd" d="M384.445 143.077C389.777 142.366 393.524 137.465 392.815 132.129C392.106 126.794 387.209 123.045 381.877 123.756C376.545 124.467 372.798 129.369 373.507 134.704C374.217 140.039 379.114 143.788 384.445 143.077ZM383.779 138.068C386.346 137.726 388.15 135.366 387.809 132.797C387.467 130.228 385.109 128.423 382.542 128.765C379.975 129.108 378.171 131.468 378.512 134.037C378.854 136.605 381.212 138.41 383.779 138.068Z" fill="#1D1D1B" fill-rule="evenodd"></path><path clip-rule="evenodd" d="M448.445 134.543C453.777 133.832 457.524 128.931 456.815 123.595C456.105 118.26 451.208 114.511 445.877 115.222C440.545 115.933 436.798 120.834 437.507 126.17C438.216 131.505 443.113 135.254 448.445 134.543ZM447.779 129.534C450.346 129.192 452.151 126.832 451.809 124.263C451.468 121.694 449.11 119.889 446.543 120.231C443.976 120.574 442.172 122.933 442.513 125.502C442.855 128.071 445.212 129.876 447.779 129.534Z" fill="#1D1D1B" fill-rule="evenodd"></path><path clip-rule="evenodd" d="M387.394 131.395C386.542 129.607 384.61 128.49 382.542 128.765C380.474 129.041 378.901 130.626 378.546 132.575L363.31 134.607C363.11 134.634 362.926 134.493 362.9 134.293L360.594 116.949C360.568 116.749 360.708 116.565 360.908 116.538L385.217 113.297L385.429 113.269C388.215 112.902 394.227 112.11 397.435 105.295L402.228 97.5555C402.975 95.8779 405.722 92.3559 410.727 91.6884L424.314 89.8767C425.974 89.5946 430.211 89.8915 433.871 93.3361L438.648 97.7969C441.81 99.6815 449.311 101.91 454.023 95.7468C455.479 94.0503 458.169 87.7739 457.402 76.1646C457.389 75.9719 457.527 75.7983 457.718 75.7728L459.697 75.5089C459.897 75.4822 460.081 75.6227 460.107 75.8226L466.051 120.538C466.078 120.738 465.937 120.922 465.738 120.949L451.394 122.861C450.542 121.073 448.611 119.955 446.543 120.231C444.475 120.507 442.901 122.092 442.546 124.041L387.394 131.395ZM398.052 109.947L404.61 99.0584C405.309 97.9335 408.246 95.4785 414.396 94.6584L423.692 93.4188C423.792 93.4055 423.895 93.3912 424.001 93.3765C426.17 93.0755 429.584 92.602 433.046 96.7231C436.677 101.046 439.118 103.621 439.885 104.368L398.052 109.947Z" fill="#1D1D1B" fill-rule="evenodd"></path><rect fill="#0460CC" height="17.6758" rx="1.5" transform="matrix(0.992506 -0.122193 0.121799 0.992555 157.924 204.793)" width="149.885" x="0.557153" y="0.435181"></rect><path d="M220.872 208.399L220.671 206.766L221.56 206.657C222.603 206.529 223.225 205.796 223.106 204.831C222.988 203.872 222.205 203.298 221.163 203.426L219.274 203.659L219.871 208.522L220.872 208.399ZM220.569 205.933L220.378 204.383L221.177 204.285C221.67 204.224 222.011 204.528 222.065 204.966C222.118 205.397 221.868 205.773 221.368 205.834L220.569 205.933ZM225.451 207.089C225.376 207.112 225.328 207.125 225.259 207.133C225.064 207.157 224.973 207.105 224.949 206.91L224.471 203.02L223.54 203.134L224.047 207.254C224.112 207.782 224.464 208.014 225.09 207.937C225.257 207.916 225.448 207.865 225.638 207.806L225.451 207.089ZM226.055 205.159C226.383 204.957 226.755 204.77 227.144 204.722C227.484 204.681 227.702 204.788 227.741 205.1L227.767 205.316L226.87 205.532C226.103 205.718 225.74 206.15 225.811 206.734C225.891 207.38 226.456 207.79 227.2 207.699C227.665 207.642 227.992 207.432 228.169 207.149L228.183 207.148C228.324 207.377 228.63 207.516 228.958 207.49L229.254 206.797C228.997 206.773 228.876 206.646 228.846 206.403L228.654 204.84C228.567 204.131 228.005 203.812 227.2 203.912C226.512 203.996 226.021 204.247 225.59 204.532L226.055 205.159ZM227.841 205.92L227.893 206.337C227.934 206.678 227.693 206.947 227.324 206.992C226.991 207.033 226.778 206.848 226.749 206.612C226.721 206.389 226.867 206.202 227.188 206.113L227.841 205.92ZM230.48 205.405C230.402 204.766 230.67 204.31 231.184 204.247C231.504 204.208 231.787 204.335 231.968 204.658L232.7 204.188C232.34 203.611 231.758 203.351 231.049 203.438C230.007 203.566 229.407 204.423 229.542 205.521C229.675 206.605 230.465 207.29 231.507 207.162C232.216 207.075 232.718 206.682 232.928 206.043L232.104 205.763C232.007 206.121 231.762 206.313 231.443 206.352C230.922 206.416 230.557 206.031 230.48 205.405ZM235.268 206.7C235.873 206.626 236.328 206.372 236.643 206.002L236.023 205.436C235.859 205.654 235.552 205.847 235.232 205.886C234.753 205.945 234.333 205.687 234.246 205.211L236.657 204.914L236.619 204.602C236.489 203.546 235.742 202.862 234.748 202.984C233.748 203.107 233.131 204.001 233.265 205.091C233.398 206.175 234.24 206.826 235.268 206.7ZM234.177 204.591C234.182 204.175 234.414 203.822 234.852 203.768C235.289 203.714 235.583 203.981 235.664 204.409L234.177 204.591ZM241.075 205.993C242.013 205.878 242.552 204.987 242.422 203.931C242.292 202.868 241.547 202.148 240.616 202.262C240.199 202.314 239.868 202.545 239.703 202.812L239.69 202.814L239.488 201.174L238.557 201.288L239.155 206.152L240.079 206.038L240.035 205.684L240.049 205.682C240.281 205.907 240.602 206.051 241.075 205.993ZM241.477 204.047C241.558 204.707 241.288 205.142 240.766 205.206C240.287 205.265 239.947 204.968 239.882 204.433L239.836 204.065C239.771 203.537 240.028 203.16 240.508 203.101C241.036 203.036 241.398 203.401 241.477 204.047ZM243.355 201.615C243.675 201.576 243.872 201.291 243.838 201.013C243.803 200.728 243.542 200.499 243.223 200.539C242.91 200.577 242.713 200.862 242.748 201.147C242.782 201.425 243.043 201.654 243.355 201.615ZM243.383 205.632L244.314 205.518L243.875 201.94L242.944 202.054L243.383 205.632ZM247.21 201.889L247.189 201.892C246.964 201.666 246.587 201.529 246.177 201.579C245.239 201.694 244.704 202.564 244.836 203.634C244.968 204.711 245.698 205.425 246.636 205.31C247.046 205.259 247.385 205.034 247.549 204.76L247.562 204.759L247.606 205.113L248.537 204.999L247.939 200.135L247.008 200.25L247.21 201.889ZM246.737 204.472C246.223 204.535 245.853 204.165 245.774 203.519C245.694 202.872 245.964 202.43 246.479 202.367C246.965 202.307 247.299 202.612 247.363 203.14L247.409 203.508C247.474 204.043 247.224 204.412 246.737 204.472Z" fill="white"></path><rect height="17.6758" rx="1.5" stroke="black" transform="matrix(0.992506 -0.122193 0.121799 0.992555 157.924 204.793)" width="149.885" x="0.557153" y="0.435181"></rect><path d="M144.045 98.3165L294.238 78.2889C294.364 78.2721 294.48 78.3606 294.497 78.4866L307.064 173.027C307.081 173.153 306.992 173.269 306.866 173.286L156.672 193.314C156.546 193.331 156.431 193.242 156.414 193.116L143.847 98.5755C143.83 98.4493 143.919 98.3333 144.045 98.3165Z" fill="white" stroke="black"></path><path d="M219.08 119.997L244.776 117.072L258.511 131.363L207.727 137.881L219.08 119.997Z" fill="#ADDDE4"></path><path clip-rule="evenodd" d="M197.868 168.281C203.2 167.57 206.947 162.668 206.238 157.333C205.529 151.998 200.632 148.249 195.3 148.96C189.969 149.671 186.221 154.572 186.931 159.908C187.64 165.243 192.537 168.992 197.868 168.281ZM197.203 163.272C199.77 162.93 201.574 160.57 201.233 158.001C200.891 155.432 198.534 153.627 195.966 153.969C193.399 154.312 191.595 156.671 191.937 159.24C192.278 161.809 194.636 163.614 197.203 163.272Z" fill="#1D1D1B" fill-rule="evenodd"></path><path clip-rule="evenodd" d="M261.869 159.747C267.201 159.036 270.948 154.134 270.239 148.799C269.53 143.464 264.633 139.715 259.301 140.426C253.97 141.137 250.222 146.038 250.932 151.374C251.641 156.709 256.538 160.458 261.869 159.747ZM261.203 154.738C263.77 154.395 265.574 152.035 265.233 149.467C264.891 146.898 262.534 145.093 259.966 145.435C257.399 145.777 255.595 148.137 255.937 150.706C256.278 153.275 258.636 155.08 261.203 154.738Z" fill="#1D1D1B" fill-rule="evenodd"></path><path d="M230.737 119.102L232.17 134.806" stroke="#1D1D1B" stroke-linecap="round" stroke-width="1.55"></path><path clip-rule="evenodd" d="M252.708 149.68L200.818 156.599C199.967 154.811 198.035 153.693 195.966 153.969C193.898 154.245 192.325 155.83 191.971 157.779L176.734 159.811C176.534 159.837 176.351 159.697 176.324 159.497L174.019 142.152C173.992 141.953 174.132 141.769 174.332 141.742L198.641 138.501L198.853 138.473C201.639 138.106 207.652 137.314 210.859 130.499L215.652 122.759C216.4 121.082 219.146 117.56 224.151 116.892L237.738 115.081C239.399 114.798 243.635 115.095 247.295 118.54L252.073 123.001C255.234 124.885 262.735 127.114 267.447 120.951C268.903 119.254 271.594 112.978 270.826 101.368C270.813 101.176 270.951 101.002 271.143 100.977L273.122 100.713C273.322 100.686 273.505 100.827 273.532 101.026L279.476 145.742C279.502 145.942 279.362 146.126 279.162 146.152L264.818 148.065C263.967 146.277 262.035 145.159 259.966 145.435C257.898 145.711 256.325 147.296 255.971 149.245L252.708 149.68ZM211.477 135.151L218.035 124.262C218.735 123.137 221.671 120.682 227.821 119.862L237.117 118.623C237.217 118.609 237.32 118.595 237.426 118.58C239.596 118.279 243.009 117.806 246.472 121.927C250.103 126.249 252.543 128.825 253.31 129.572L211.477 135.151Z" fill="#1D1D1B" fill-rule="evenodd"></path><path clip-rule="evenodd" d="M243.842 58.2463C243.902 58.7368 244.348 59.0855 244.838 59.0253C245.327 58.965 245.676 58.5185 245.615 58.028C245.555 57.5373 245.109 57.1884 244.62 57.2487C244.13 57.309 243.782 57.7556 243.842 58.2463ZM240.912 57.7834L239.037 58.0143L242.144 62.1437L240.128 66.9043L242.003 66.6734L244.019 61.9128L240.912 57.7834ZM237.76 62.2798C237.826 62.8177 237.447 63.2155 236.782 63.2974C236.219 63.3666 235.8 63.1191 235.748 62.6965C235.704 62.3379 235.935 62.1014 236.544 61.8836C236.929 61.7451 237.246 61.68 237.677 61.6008L237.76 62.2798ZM239.377 62.12L239.133 60.1348C239.015 59.174 238.825 58.8982 238.292 58.5738C237.814 58.2687 237.178 58.1649 236.398 58.261C235.486 58.3733 234.77 58.6588 234.016 59.2278L234.869 60.361C235.428 59.9581 236.027 59.6978 236.528 59.6362C236.924 59.5874 237.248 59.6905 237.393 59.9197C237.475 60.0527 237.468 60.0016 237.52 60.4243C236.15 60.6838 235.277 60.9733 234.767 61.3613C234.305 61.7172 234.076 62.2913 234.15 62.8933C234.29 64.0334 235.434 64.7896 236.777 64.6244C237.48 64.5378 237.902 64.2777 238.191 63.7741C238.562 64.1575 238.998 64.3248 239.446 64.2697C239.495 64.2636 239.536 64.2586 239.58 64.2503L240.107 63.0051C239.57 62.9541 239.461 62.8113 239.377 62.12ZM213.194 65.7743C212.901 65.8871 212.762 65.9171 212.559 65.9421C211.957 66.0161 211.766 65.8316 211.675 65.0886L211.389 62.7567L212.802 62.5827L212.64 61.263L211.227 61.437L210.995 59.5488L209.371 59.7487L209.603 61.6369L208.656 61.7535L208.818 63.0732L209.765 62.9567L210.136 65.9802C210.221 66.6721 210.302 66.9092 210.525 67.1419C210.823 67.4563 211.371 67.5839 212.087 67.4958C212.564 67.437 212.985 67.3267 213.364 67.1589L213.194 65.7743ZM215.052 64.0941C215.174 65.0954 215.949 65.7124 216.869 65.5991C217.789 65.4858 218.398 64.6985 218.275 63.6973C218.152 62.6958 217.371 62.0797 216.451 62.193C215.531 62.3063 214.929 63.0927 215.052 64.0941ZM219.85 63.5033C220.072 65.3111 218.882 66.8273 217.048 67.0531C215.219 67.2783 213.705 66.0949 213.483 64.2871C213.261 62.4793 214.444 60.9637 216.273 60.7385C218.107 60.5127 219.628 61.6954 219.85 63.5033ZM203.963 65.4595C204.086 66.4608 204.86 67.0778 205.78 66.9645C206.7 66.8513 207.309 66.0639 207.186 65.0627C207.063 64.0612 206.282 63.4452 205.362 63.5584C204.442 63.6717 203.84 64.4581 203.963 65.4595ZM208.761 64.8685C208.983 66.6764 207.793 68.1925 205.959 68.4184C204.13 68.6436 202.616 67.4602 202.394 65.6524C202.172 63.8446 203.355 62.3289 205.184 62.1038C207.019 61.8779 208.539 63.0607 208.761 64.8685ZM232.546 64.9636L230.653 65.1966L229.246 61.6642L228.825 65.4217L226.856 65.6641L224.464 59.8088L226.113 59.6058L227.626 63.58L228.082 59.3634L229.808 59.1509L231.346 63.1219L231.802 58.9053L233.477 58.6991L232.546 64.9636ZM220.986 66.3862L220.243 60.3279L221.751 60.1422L221.924 60.81C222.358 60.2234 222.752 59.9409 223.251 59.8794C223.429 59.8574 223.585 59.8515 223.861 59.8825L224.048 61.4066C223.944 61.4063 223.855 61.4173 223.829 61.4205C223.241 61.4928 222.871 61.6555 222.574 61.9782C222.205 62.3615 222.15 62.6543 222.254 63.4996L222.584 66.1895L220.986 66.3862ZM200.25 68.9396L199.847 65.6607C199.729 64.6999 199.344 64.3054 198.615 64.3952C198.206 64.4455 197.858 64.6832 197.682 65.0431C197.538 65.3469 197.51 65.6493 197.578 66.2001L197.948 69.2229L196.35 69.4197L195.968 66.3071C195.904 65.782 195.799 65.4569 195.643 65.242C195.442 64.9807 195.062 64.8455 194.691 64.8911C193.924 64.9856 193.543 65.5786 193.659 66.5264L194.049 69.703L192.464 69.8982L191.72 63.8399L193.216 63.6557L193.367 64.1442C193.903 63.6489 194.306 63.4433 194.881 63.3725C195.636 63.2796 196.219 63.481 196.912 64.0586C197.523 63.3204 198.065 62.9806 198.794 62.8908C199.599 62.7917 200.316 63.0285 200.81 63.5657C201.185 63.9747 201.318 64.3223 201.427 65.2061L201.861 68.7412L200.25 68.9396V68.9396Z" fill="white" fill-rule="evenodd"></path></g><path d="M145.07 279.375C140.78 287.311 145.341 316.812 146.352 342.53L132.085 389.554L177.35 401.921L189.032 357.894C192.279 350.98 206.667 336.13 210.349 329.6C214.952 321.437 222.789 304.609 219.027 296.052C217.966 292.495 212.665 288.262 210.147 286.59C209.246 284.238 205.86 279.423 199.518 278.978C200.404 269.796 197.58 264.845 188.864 263.897C192.333 247.127 194.227 228.107 190.036 227.24C185.845 226.373 179.348 240.11 173.713 255.707C168.078 271.304 169.247 269.141 166.4 277.857C166.4 277.857 149.36 271.44 145.07 279.375Z" fill="#C68642"></path><path d="M146.352 342.53L147.309 342.82L147.358 342.659L147.351 342.491L146.352 342.53ZM145.07 279.375L145.95 279.851L145.07 279.375ZM173.713 255.707L174.653 256.047L173.713 255.707ZM190.036 227.24L190.238 226.261L190.238 226.261L190.036 227.24ZM189.032 357.894L188.127 357.469L188.088 357.551L188.065 357.638L189.032 357.894ZM210.349 329.6L209.478 329.109L210.349 329.6ZM219.027 296.052L218.068 296.337L218.086 296.397L218.111 296.454L219.027 296.052ZM188.864 263.897L187.884 263.695L187.881 263.709L187.879 263.724L188.864 263.897ZM184.801 279.746C184.692 280.288 185.044 280.815 185.585 280.923C186.127 281.031 186.654 280.68 186.762 280.138L184.801 279.746ZM132.085 389.554L131.128 389.263L130.83 390.247L131.822 390.518L132.085 389.554ZM177.35 401.921L177.087 402.886L178.059 403.151L178.317 402.177L177.35 401.921ZM158.825 301.958C158.658 302.484 158.948 303.047 159.475 303.214C160.001 303.382 160.563 303.091 160.731 302.565L158.825 301.958ZM166.4 277.857L167.342 278.191L167.347 278.179L167.351 278.167L166.4 277.857ZM207.363 300.001C207.1 300.486 207.281 301.093 207.767 301.356C208.253 301.618 208.859 301.438 209.122 300.952L207.363 300.001ZM210.147 286.59L209.213 286.948L210.147 286.59ZM195.7 292.313C195.55 292.844 195.859 293.397 196.391 293.546C196.923 293.696 197.475 293.386 197.625 292.855L195.7 292.313ZM147.351 342.491C146.845 329.627 145.447 315.739 144.721 304.221C144.356 298.438 144.16 293.244 144.318 289.012C144.477 284.73 144.998 281.611 145.95 279.851L144.19 278.9C142.997 281.108 142.479 284.652 142.319 288.937C142.157 293.273 142.359 298.549 142.725 304.347C143.459 315.994 144.847 329.715 145.353 342.569L147.351 342.491ZM174.653 256.047C177.465 248.265 180.478 240.985 183.295 235.775C184.708 233.163 186.043 231.123 187.248 229.803C187.851 229.143 188.385 228.702 188.843 228.451C189.294 228.204 189.609 228.173 189.833 228.219L190.238 226.261C189.415 226.09 188.61 226.298 187.882 226.697C187.16 227.093 186.455 227.705 185.771 228.455C184.403 229.954 182.976 232.16 181.536 234.824C178.649 240.164 175.596 247.552 172.772 255.367L174.653 256.047ZM189.937 358.319C190.701 356.692 192.154 354.539 194.013 352.077C195.861 349.631 198.066 346.938 200.298 344.241C204.719 338.899 209.323 333.457 211.22 330.091L209.478 329.109C207.694 332.273 203.263 337.522 198.757 342.966C196.526 345.662 194.295 348.386 192.417 350.872C190.55 353.344 188.986 355.639 188.127 357.469L189.937 358.319ZM211.22 330.091C213.541 325.976 216.683 319.666 218.775 313.285C219.821 310.095 220.614 306.858 220.901 303.851C221.187 300.855 220.978 298.006 219.942 295.649L218.111 296.454C218.956 298.376 219.179 300.84 218.91 303.661C218.642 306.471 217.893 309.556 216.875 312.662C214.838 318.876 211.76 325.061 209.478 329.109L211.22 330.091ZM189.833 228.219C189.957 228.245 190.184 228.355 190.451 228.85C190.718 229.347 190.951 230.104 191.122 231.138C191.462 233.197 191.514 236.094 191.324 239.55C190.944 246.443 189.613 255.338 187.884 263.695L189.843 264.1C191.583 255.686 192.934 246.686 193.321 239.66C193.514 236.156 193.471 233.087 193.095 230.812C192.908 229.679 192.629 228.677 192.211 227.902C191.793 227.126 191.163 226.452 190.238 226.261L189.833 228.219ZM187.879 263.724C186.531 271.369 186.985 268.804 184.801 279.746L186.762 280.138C188.945 269.204 188.496 271.744 189.848 264.071L187.879 263.724ZM145.395 342.24L131.128 389.263L133.042 389.844L147.309 342.82L145.395 342.24ZM131.822 390.518L177.087 402.886L177.614 400.956L132.349 388.589L131.822 390.518ZM178.317 402.177L189.998 358.151L188.065 357.638L176.384 401.665L178.317 402.177ZM160.731 302.565C160.952 301.87 161.243 300.639 161.603 299.08C161.968 297.499 162.414 295.536 162.952 293.32C164.028 288.887 165.468 283.47 167.342 278.191L165.458 277.522C163.55 282.894 162.092 288.387 161.008 292.848C160.467 295.078 160.017 297.057 159.654 298.63C159.286 300.225 159.016 301.36 158.825 301.958L160.731 302.565ZM167.351 278.167C170.223 269.375 169.021 271.637 174.653 256.047L172.772 255.367C167.135 270.971 168.272 268.907 165.449 277.546L167.351 278.167ZM145.95 279.851C146.844 278.196 148.419 277.236 150.44 276.764C152.476 276.288 154.875 276.333 157.217 276.632C159.548 276.93 161.76 277.47 163.395 277.939C164.21 278.173 164.878 278.388 165.34 278.544C165.571 278.622 165.75 278.685 165.871 278.728C165.931 278.749 165.976 278.766 166.006 278.777C166.021 278.782 166.032 278.787 166.039 278.789C166.042 278.79 166.045 278.791 166.046 278.792C166.047 278.792 166.048 278.792 166.048 278.792C166.048 278.792 166.048 278.792 166.048 278.792C166.048 278.792 166.048 278.792 166.4 277.857C166.752 276.921 166.752 276.921 166.752 276.92C166.752 276.92 166.751 276.92 166.751 276.92C166.75 276.92 166.749 276.919 166.748 276.919C166.745 276.918 166.741 276.916 166.736 276.915C166.727 276.911 166.713 276.906 166.696 276.9C166.661 276.887 166.61 276.868 166.545 276.845C166.413 276.798 166.222 276.731 165.979 276.649C165.492 276.485 164.795 276.26 163.946 276.017C162.252 275.531 159.935 274.963 157.47 274.648C155.017 274.335 152.351 274.264 149.985 274.817C147.604 275.373 145.441 276.587 144.19 278.9L145.95 279.851ZM209.122 300.952C210.286 298.798 211.396 296.677 211.895 294.321C212.403 291.924 212.271 289.339 211.081 286.233L209.213 286.948C210.275 289.72 210.361 291.913 209.938 293.907C209.507 295.942 208.539 297.825 207.363 300.001L209.122 300.952ZM219.985 295.766C219.376 293.723 217.617 291.622 215.828 289.895C214.006 288.135 212.002 286.621 210.7 285.757L209.594 287.423C210.811 288.231 212.716 289.67 214.439 291.334C216.195 293.03 217.617 294.824 218.068 296.337L219.985 295.766ZM197.625 292.855C199.116 287.561 200.138 282.965 200.513 279.074L198.522 278.882C198.164 282.598 197.178 287.062 195.7 292.313L197.625 292.855ZM200.513 279.074C200.964 274.4 200.499 270.583 198.621 267.792C196.713 264.956 193.499 263.396 188.972 262.903L188.755 264.891C192.945 265.347 195.5 266.736 196.962 268.908C198.453 271.124 198.957 274.373 198.522 278.882L200.513 279.074ZM199.448 279.976C205.273 280.385 208.399 284.821 209.213 286.948L211.081 286.233C210.094 283.656 206.446 278.462 199.588 277.98L199.448 279.976Z" fill="#1D1D1B"></path><path d="M136.919 375.048L148.885 377.465L152.445 361.755L141.185 359.464L136.919 375.048Z" fill="#00BC80" stroke="#1D1D1B" stroke-width="2"></path><path d="M172.011 384.659L181.852 388.415L185.392 372.197L176.15 368.549L172.011 384.659Z" fill="#00BC80" stroke="#1D1D1B" stroke-width="2"></path><circle cx="162.276" cy="372.467" fill="white" r="17.0941" stroke="#1D1D1B" stroke-width="2" transform="rotate(-157.359 162.276 372.467)"></circle><path d="M187.533 394.603C170.868 377.01 154.845 371.343 130.7 376.864C129.571 377.122 128.703 378.028 128.473 379.164L109.506 472.589C120.576 496.601 158.185 464.947 169.1 458.012C175.142 438.524 188.264 399.629 188.845 397.843C189.414 396.098 188.511 395.115 187.533 394.603Z" fill="#0460CC" stroke="#1D1D1B" stroke-width="2"></path><path d="M149.229 368.767L162.443 372.597L164.787 364.508" stroke="black" stroke-width="2"></path><path d="M452.169 207.765C443.021 215.215 411.278 227.08 408.231 210.082C406.005 197.666 405.963 195.34 406.102 194.989C395.465 194.205 377.281 193.371 372.904 193.167C365.858 192.838 352.925 194.72 353.188 188.355C353.281 186.108 363.693 182.55 376.595 179.946C377.718 177.308 379.609 174.414 381.87 171.9C382.853 167.09 387.495 156.59 395.456 154.161C401.727 152.248 409.462 152.152 412.462 152.197C413.112 152.207 413.284 151.797 412.675 151.57C411.286 151.052 408.078 150.371 400.687 150.066C387.96 149.54 372.374 150.526 379.438 142.937C386.502 135.349 433.42 142.792 446.233 145.759C459.046 148.725 473.18 155.496 473.18 155.496L556.88 174.077L549.751 214.697L467.33 201.8C467.33 201.8 461.318 200.315 452.169 207.765Z" fill="#FFCFAC"></path><path d="M452.169 207.765L451.538 206.99L452.169 207.765ZM408.231 210.082L407.246 210.258L408.231 210.082ZM372.904 193.167L372.858 194.166L372.904 193.167ZM353.188 188.355L354.187 188.396L354.187 188.396L353.188 188.355ZM379.438 142.937L380.17 143.618L379.438 142.937ZM400.687 150.066L400.645 151.065L400.687 150.066ZM412.675 151.57L413.025 150.633L412.675 151.57ZM412.462 152.197L412.447 153.197L412.447 153.197L412.462 152.197ZM395.456 154.161L395.748 155.118L395.456 154.161ZM376.595 179.946L376.793 180.926L376.595 179.946ZM408.287 177.38C408.839 177.353 409.263 176.883 409.236 176.331C409.208 175.78 408.738 175.355 408.187 175.383L408.287 177.38ZM467.33 201.8L467.09 202.771L467.132 202.782L467.175 202.788L467.33 201.8ZM425.887 197.108C426.437 197.163 426.926 196.761 426.981 196.212C427.036 195.662 426.634 195.172 426.085 195.118L425.887 197.108ZM406.23 194.998L406.156 195.995L406.156 195.995L406.23 194.998ZM407.471 163.478C408.023 163.493 408.483 163.058 408.499 162.506C408.514 161.954 408.079 161.494 407.527 161.478L407.471 163.478ZM388.485 166.542L388.027 165.653L388.485 166.542ZM473.18 155.496L472.748 156.398L472.851 156.448L472.963 156.472L473.18 155.496ZM549.751 214.697L549.597 215.685L550.567 215.837L550.736 214.87L549.751 214.697ZM556.88 174.077L557.865 174.25L558.03 173.308L557.097 173.101L556.88 174.077ZM451.538 206.99C447.114 210.592 437.052 215.361 427.728 217.109C423.066 217.982 418.721 218.074 415.406 216.988C412.171 215.929 409.905 213.756 409.215 209.905L407.246 210.258C408.08 214.907 410.924 217.625 414.784 218.889C418.564 220.127 423.298 219.974 428.096 219.075C437.692 217.276 448.076 212.388 452.801 208.54L451.538 206.99ZM372.951 192.168C371.15 192.084 368.976 192.141 366.8 192.171C364.6 192.202 362.378 192.206 360.395 192.028C358.388 191.848 356.752 191.49 355.657 190.874C355.125 190.574 354.756 190.233 354.523 189.853C354.295 189.481 354.162 189.015 354.187 188.396L352.189 188.314C352.149 189.287 352.362 190.154 352.818 190.898C353.27 191.635 353.924 192.193 354.676 192.617C356.153 193.449 358.141 193.834 360.216 194.02C362.314 194.208 364.629 194.202 366.828 194.171C369.051 194.14 371.136 194.085 372.858 194.166L372.951 192.168ZM446.459 144.784C440.005 143.29 425.026 140.681 410.77 139.394C403.642 138.75 396.659 138.434 390.995 138.761C388.165 138.924 385.631 139.25 383.558 139.79C381.514 140.323 379.784 141.097 378.706 142.256L380.17 143.618C380.858 142.88 382.139 142.227 384.063 141.726C385.958 141.232 388.349 140.917 391.111 140.758C396.631 140.439 403.503 140.746 410.59 141.386C424.761 142.665 439.649 145.261 446.008 146.733L446.459 144.784ZM378.706 142.256C377.779 143.252 377.138 144.193 376.849 145.095C376.544 146.044 376.63 146.958 377.161 147.74C377.654 148.467 378.451 148.96 379.325 149.315C380.212 149.676 381.289 149.938 382.476 150.136C384.851 150.532 387.83 150.697 390.972 150.797C394.152 150.898 397.46 150.933 400.645 151.065L400.728 149.066C397.55 148.935 394.138 148.897 391.036 148.798C387.897 148.698 385.035 148.535 382.805 148.164C381.69 147.978 380.774 147.745 380.078 147.462C379.367 147.173 378.989 146.873 378.816 146.617C378.68 146.416 378.608 146.158 378.753 145.706C378.913 145.207 379.331 144.52 380.17 143.618L378.706 142.256ZM400.645 151.065C408.021 151.369 411.094 152.048 412.326 152.507L413.025 150.633C411.478 150.057 408.136 149.372 400.728 149.066L400.645 151.065ZM412.477 151.198C409.465 151.152 401.595 151.243 395.164 153.205L395.748 155.118C401.859 153.253 409.459 153.152 412.447 153.197L412.477 151.198ZM354.187 188.396C354.183 188.49 354.144 188.415 354.397 188.164C354.63 187.932 355.013 187.649 355.572 187.324C356.685 186.679 358.332 185.967 360.422 185.227C364.591 183.752 370.371 182.223 376.793 180.926L376.397 178.966C369.918 180.274 364.041 181.825 359.755 183.342C357.618 184.098 355.838 184.859 354.569 185.594C353.937 185.96 353.391 186.344 352.986 186.747C352.601 187.13 352.216 187.659 352.189 188.314L354.187 188.396ZM376.793 180.926C383.745 179.523 391.99 178.2 408.287 177.38L408.187 175.383C391.798 176.207 383.454 177.542 376.397 178.966L376.793 180.926ZM452.801 208.54C457.263 204.906 460.91 203.491 463.387 202.967C464.628 202.705 465.585 202.664 466.215 202.684C466.531 202.694 466.765 202.72 466.912 202.741C466.986 202.752 467.038 202.761 467.068 202.767C467.083 202.77 467.092 202.772 467.096 202.773C467.098 202.773 467.098 202.773 467.097 202.773C467.097 202.773 467.096 202.773 467.095 202.772C467.094 202.772 467.094 202.772 467.093 202.772C467.092 202.772 467.092 202.772 467.091 202.772C467.091 202.771 467.09 202.771 467.33 201.8C467.57 200.83 467.569 200.829 467.568 200.829C467.568 200.829 467.567 200.829 467.567 200.829C467.566 200.829 467.564 200.828 467.563 200.828C467.56 200.827 467.557 200.827 467.554 200.826C467.547 200.824 467.539 200.822 467.529 200.82C467.509 200.816 467.484 200.81 467.452 200.804C467.39 200.792 467.304 200.777 467.195 200.761C466.978 200.73 466.671 200.698 466.28 200.685C465.497 200.66 464.379 200.713 462.973 201.01C460.157 201.606 456.224 203.173 451.538 206.99L452.801 208.54ZM426.085 195.118C424.836 194.994 422.627 194.919 419.412 194.775C416.172 194.63 411.849 194.412 406.304 194.001L406.156 195.995C411.727 196.408 416.07 196.627 419.322 196.773C422.599 196.92 424.71 196.991 425.887 197.108L426.085 195.118ZM406.304 194.001C406.261 193.998 406.219 193.995 406.176 193.991L406.029 195.986C406.071 195.989 406.114 195.992 406.156 195.995L406.304 194.001ZM406.176 193.991C395.521 193.206 377.322 192.372 372.951 192.168L372.858 194.166C377.24 194.37 395.408 195.203 406.029 195.986L406.176 193.991ZM409.215 209.905C408.103 203.703 407.54 200.038 407.272 197.887C407.138 196.81 407.08 196.13 407.062 195.708C407.054 195.497 407.056 195.367 407.06 195.293C407.067 195.198 407.074 195.251 407.032 195.357L405.173 194.62C405.096 194.814 405.074 195.016 405.065 195.164C405.054 195.334 405.054 195.541 405.064 195.791C405.085 196.292 405.15 197.035 405.287 198.135C405.562 200.339 406.132 204.044 407.246 210.258L409.215 209.905ZM407.032 195.357C407.011 195.41 406.88 195.732 406.484 195.876C406.042 196.036 405.698 195.827 405.596 195.752C405.483 195.67 405.421 195.585 405.406 195.563C405.392 195.544 405.382 195.528 405.374 195.515C405.37 195.509 405.366 195.502 405.363 195.496C405.361 195.493 405.359 195.49 405.357 195.487C405.357 195.485 405.356 195.484 405.355 195.482C405.354 195.481 405.354 195.481 405.354 195.48C405.353 195.48 405.353 195.479 405.353 195.479C405.353 195.479 405.353 195.478 405.353 195.478C405.352 195.478 405.352 195.478 406.23 194.998C407.107 194.519 407.107 194.518 407.107 194.518C407.107 194.518 407.107 194.518 407.107 194.517C407.106 194.517 407.106 194.517 407.106 194.516C407.106 194.515 407.105 194.515 407.105 194.514C407.104 194.512 407.103 194.51 407.102 194.508C407.1 194.505 407.098 194.501 407.095 194.497C407.09 194.489 407.085 194.479 407.079 194.469C407.066 194.449 407.05 194.423 407.029 194.394C406.997 194.35 406.913 194.238 406.775 194.137C406.647 194.044 406.275 193.825 405.803 193.995C405.379 194.149 405.219 194.502 405.173 194.62L407.032 195.357ZM407.527 161.478C400.898 161.291 393.869 162.643 388.027 165.653L388.943 167.431C394.442 164.598 401.127 163.298 407.471 163.478L407.527 161.478ZM388.027 165.653C385.578 166.915 383.187 168.939 381.126 171.231L382.614 172.568C384.567 170.394 386.773 168.55 388.943 167.431L388.027 165.653ZM381.126 171.231C378.804 173.815 376.848 176.8 375.675 179.554L377.515 180.338C378.589 177.816 380.415 175.014 382.614 172.568L381.126 171.231ZM395.164 153.205C390.859 154.518 387.543 157.976 385.206 161.595C382.862 165.227 381.407 169.17 380.89 171.699L382.85 172.1C383.316 169.82 384.674 166.108 386.887 162.68C389.107 159.241 392.092 156.233 395.748 155.118L395.164 153.205ZM446.008 146.733C452.342 148.199 459.024 150.612 464.138 152.668C466.692 153.694 468.847 154.628 470.363 155.305C471.121 155.643 471.719 155.917 472.126 156.107C472.33 156.201 472.486 156.274 472.591 156.324C472.643 156.348 472.683 156.367 472.709 156.38C472.722 156.386 472.732 156.391 472.739 156.394C472.742 156.395 472.744 156.396 472.746 156.397C472.746 156.397 472.747 156.398 472.747 156.398C472.747 156.398 472.747 156.398 472.748 156.398C472.748 156.398 472.748 156.398 473.18 155.496C473.612 154.594 473.612 154.594 473.611 154.594C473.611 154.594 473.611 154.594 473.611 154.594C473.61 154.594 473.609 154.593 473.608 154.593C473.606 154.592 473.604 154.591 473.6 154.589C473.593 154.585 473.582 154.58 473.568 154.574C473.54 154.56 473.499 154.541 473.444 154.515C473.336 154.464 473.176 154.389 472.968 154.292C472.553 154.1 471.946 153.821 471.179 153.479C469.644 152.793 467.466 151.849 464.884 150.812C459.729 148.74 452.938 146.284 446.459 144.784L446.008 146.733ZM467.175 202.788L549.597 215.685L549.906 213.709L467.485 200.812L467.175 202.788ZM550.736 214.87L557.865 174.25L555.895 173.905L548.766 214.524L550.736 214.87ZM557.097 173.101L473.396 154.52L472.963 156.472L556.663 175.054L557.097 173.101ZM412.326 152.507C412.39 152.531 412.319 152.52 412.226 152.41C412.113 152.276 411.972 151.977 412.103 151.624C412.212 151.33 412.429 151.229 412.472 151.212C412.532 151.187 412.543 151.199 412.477 151.198L412.447 153.197C412.707 153.201 412.982 153.165 413.238 153.059C413.477 152.96 413.821 152.744 413.978 152.321C414.157 151.838 413.986 151.394 413.754 151.12C413.543 150.87 413.265 150.723 413.025 150.633L412.326 152.507Z" fill="#1D1D1B"></path><path d="M494.734 206.965L495.58 194.276L478.868 192.768L478.056 204.71L494.734 206.965Z" fill="#FF8400" stroke="#1D1D1B" stroke-width="2"></path><path d="M499.819 169.407L502.339 158.728L485.106 157.31L482.615 167.356L499.819 169.407Z" fill="#FF8400" stroke="#1D1D1B" stroke-width="2"></path><circle cx="488.574" cy="181.14" fill="white" r="17.8477" stroke="#1D1D1B" stroke-width="2" transform="rotate(105.032 488.574 181.14)"></circle><path d="M486.553 195.121L488.685 180.95L480.009 179.645" stroke="black" stroke-width="2"></path><defs><clipPath id="clip0_1541_34206"><rect fill="white" height="201.545" rx="3.83" transform="matrix(0.992506 -0.122193 0.121799 0.992555 80.7402 59.7619)" width="268.418"></rect></clipPath></defs></svg>