<svg fill="none" height="298" viewBox="0 0 353 298" width="353" xmlns="http://www.w3.org/2000/svg"><rect fill="#2D2D2B" height="140.497" rx="5.34035" stroke="#1D1D1B" stroke-width="0.273864" transform="rotate(-7.00729 91.1526 21.9111)" width="178.357" x="91.1526" y="21.9111"></rect><g clip-path="url(#clip0_1613_40485)"><rect fill="#4A4A48" height="113.15" rx="1.68883" stroke="#1D1D1B" stroke-width="0.273864" transform="rotate(-7.00729 106.301 33.7504)" width="151.024" x="106.301" y="33.7504"></rect><path d="M36.5853 64.2614C36.5698 64.1352 36.6595 64.0202 36.7858 64.0047L120.923 53.6631C121.05 53.6475 121.165 53.7373 121.18 53.8635L121.676 53.8025L121.18 53.8635L127.65 106.502C127.666 106.628 127.576 106.743 127.45 106.758L43.3119 117.1C43.1857 117.116 43.0708 117.026 43.0552 116.9L36.5853 64.2614Z" fill="white" stroke="black"></path><path clip-rule="evenodd" d="M102.506 99.0626C105.515 98.6927 107.655 95.9557 107.285 92.9494C106.916 89.943 104.177 87.8058 101.167 88.1756C98.1582 88.5455 96.0183 91.2825 96.3878 94.2888C96.7573 97.2952 99.4963 99.4324 102.506 99.0626ZM102.158 96.24C103.607 96.0619 104.638 94.7441 104.46 93.2966C104.282 91.8491 102.963 90.8201 101.514 90.9982C100.065 91.1763 99.0348 92.4941 99.2128 93.9416C99.3907 95.3891 100.709 96.4181 102.158 96.24Z" fill="#1D1D1B" fill-rule="evenodd"></path><path clip-rule="evenodd" d="M97.3996 93.3458L68.1127 96.9456C67.6428 95.9345 66.56 95.2945 65.3928 95.438C64.2255 95.5814 63.33 96.4646 63.1189 97.5594L54.6775 98.5969C54.4774 98.6215 54.2952 98.4792 54.2706 98.279L53.1082 88.8226C53.0836 88.6224 53.226 88.4402 53.4261 88.4156L66.9879 86.7487L67.1076 86.7341C68.6801 86.5435 72.0735 86.132 73.92 82.3152L76.6656 77.9869C77.0964 77.0471 78.6642 75.0807 81.4894 74.7335L89.1578 73.7909C90.0954 73.6415 92.4815 73.8326 94.525 75.7917L97.1926 78.329C98.964 79.4075 103.179 80.7039 105.87 77.2625C106.694 76.3233 108.229 72.8533 107.894 66.4123C107.884 66.2196 108.023 66.0487 108.215 66.0251L109.025 65.9256C109.225 65.901 109.407 66.0433 109.432 66.2434L112.49 91.1231C112.515 91.3232 112.372 91.5054 112.172 91.53L104.234 92.5058C103.764 91.4946 102.681 90.8545 101.514 90.998C100.347 91.1415 99.4511 92.0247 99.2401 93.1196L97.3996 93.3458ZM74.2419 84.9361L78 78.8461C78.4007 78.217 80.0697 76.8522 83.5407 76.4255L88.7875 75.7806C88.8439 75.7737 88.9021 75.7662 88.9619 75.7586C90.1866 75.6015 92.1133 75.3544 94.0414 77.693C96.0636 80.1459 97.4248 81.6091 97.8526 82.034L74.2419 84.9361Z" fill="#1D1D1B" fill-rule="evenodd"></path><path d="M246.778 38.1836C246.763 38.0573 246.852 37.9424 246.979 37.9269L331.116 27.5852C331.243 27.5697 331.357 27.6595 331.373 27.7857L331.869 27.7247L331.373 27.7857L337.843 80.4238C337.858 80.5501 337.769 80.665 337.642 80.6805L253.505 91.0222C253.379 91.0377 253.264 90.9479 253.248 90.8217L246.778 38.1836Z" fill="white" stroke="black"></path><path clip-rule="evenodd" d="M276.578 77.4248C279.587 77.0549 281.727 74.318 281.357 71.3116C280.988 68.3053 278.249 66.168 275.24 66.5379C272.23 66.9077 270.091 69.6447 270.46 72.6511C270.83 75.6574 273.569 77.7947 276.578 77.4248ZM276.231 74.6022C277.68 74.4242 278.71 73.1064 278.532 71.6589C278.354 70.2114 277.035 69.1823 275.586 69.3604C274.138 69.5385 273.107 70.8563 273.285 72.3038C273.463 73.7513 274.782 74.7803 276.231 74.6022Z" fill="#1D1D1B" fill-rule="evenodd"></path><path clip-rule="evenodd" d="M307.593 67.268L278.306 70.8678C277.836 69.8567 276.754 69.2167 275.586 69.3602C274.419 69.5036 273.523 70.3868 273.312 71.4816L264.871 72.5192C264.671 72.5438 264.489 72.4015 264.464 72.2013L263.302 62.7448C263.277 62.5447 263.419 62.3625 263.619 62.3379L277.181 60.6709L277.301 60.6564C278.873 60.4657 282.267 60.0543 284.113 56.2374L286.859 51.9091C287.29 50.9693 288.858 49.003 291.683 48.6557L299.351 47.7131C300.289 47.5638 302.675 47.7549 304.718 49.714L307.386 52.2513C309.157 53.3297 313.373 54.6262 316.063 51.1847C316.887 50.2455 318.422 46.7755 318.087 40.3346C318.077 40.1418 318.217 39.9709 318.408 39.9474L319.218 39.8478C319.419 39.8232 319.601 39.9655 319.625 40.1657L322.683 65.0453C322.708 65.2455 322.566 65.4277 322.366 65.4523L314.429 66.4278C313.959 65.4168 312.877 64.7769 311.709 64.9203C310.542 65.0638 309.647 65.9469 309.436 67.0416L307.593 67.268ZM284.435 58.8583L288.193 52.7684C288.594 52.1393 290.263 50.7744 293.734 50.3478L298.981 49.7029C299.037 49.6959 299.095 49.6885 299.155 49.6808C300.38 49.5237 302.307 49.2766 304.235 51.6153C306.257 54.0682 307.618 55.5313 308.046 55.9563L284.435 58.8583Z" fill="#1D1D1B" fill-rule="evenodd"></path><rect fill="#0460CC" height="15.0828" rx="1.5" transform="rotate(-7.00729 150.35 113.843)" width="84.0486" x="150.35" y="113.843"></rect><path d="M179.865 119.828L179.664 118.195L180.554 118.086C181.596 117.958 182.218 117.225 182.099 116.26C181.981 115.301 181.199 114.727 180.156 114.855L178.267 115.087L178.864 119.951L179.865 119.828ZM179.562 117.361L179.371 115.812L180.17 115.714C180.664 115.653 181.004 115.957 181.058 116.395C181.111 116.825 180.861 117.202 180.361 117.263L179.562 117.361ZM184.444 118.517C184.369 118.541 184.322 118.554 184.252 118.562C184.058 118.586 183.967 118.534 183.943 118.339L183.464 114.449L182.533 114.563L183.04 118.683C183.105 119.211 183.458 119.443 184.083 119.366C184.25 119.345 184.441 119.294 184.631 119.235L184.444 118.517ZM185.048 116.588C185.376 116.386 185.748 116.199 186.137 116.151C186.478 116.109 186.695 116.217 186.734 116.529L186.76 116.745L185.863 116.961C185.096 117.147 184.733 117.579 184.805 118.163C184.884 118.809 185.449 119.219 186.193 119.128C186.658 119.071 186.985 118.861 187.162 118.578L187.176 118.577C187.317 118.806 187.623 118.945 187.951 118.919L188.247 118.226C187.99 118.202 187.869 118.075 187.839 117.832L187.647 116.269C187.56 115.56 186.999 115.241 186.193 115.34C185.505 115.425 185.014 115.676 184.583 115.961L185.048 116.588ZM186.835 117.349L186.886 117.766C186.928 118.106 186.686 118.376 186.317 118.421C185.984 118.462 185.771 118.277 185.742 118.041C185.714 117.818 185.861 117.631 186.181 117.542L186.835 117.349ZM189.473 116.834C189.395 116.195 189.663 115.739 190.177 115.676C190.497 115.637 190.781 115.764 190.961 116.087L191.693 115.616C191.333 115.04 190.751 114.78 190.043 114.867C189 114.995 188.4 115.852 188.535 116.95C188.669 118.034 189.458 118.719 190.5 118.591C191.209 118.504 191.711 118.111 191.921 117.471L191.097 117.192C191 117.549 190.756 117.742 190.436 117.781C189.915 117.845 189.55 117.46 189.473 116.834ZM194.262 118.129C194.866 118.055 195.322 117.801 195.636 117.431L195.016 116.865C194.852 117.083 194.545 117.276 194.225 117.315C193.746 117.374 193.326 117.115 193.239 116.639L195.65 116.343L195.612 116.031C195.482 114.974 194.735 114.29 193.741 114.413C192.741 114.536 192.124 115.429 192.258 116.52C192.392 117.604 193.233 118.255 194.262 118.129ZM193.17 116.02C193.175 115.604 193.407 115.251 193.845 115.197C194.283 115.143 194.576 115.41 194.657 115.838L193.17 116.02ZM200.068 117.422C201.006 117.307 201.545 116.416 201.415 115.359C201.285 114.296 200.54 113.577 199.609 113.691C199.193 113.743 198.861 113.974 198.697 114.241L198.683 114.243L198.481 112.603L197.55 112.717L198.148 117.581L199.072 117.467L199.028 117.113L199.042 117.111C199.275 117.336 199.596 117.48 200.068 117.422ZM200.471 115.476C200.552 116.136 200.281 116.571 199.76 116.635C199.28 116.694 198.941 116.397 198.875 115.862L198.83 115.494C198.765 114.966 199.022 114.589 199.501 114.53C200.029 114.465 200.391 114.829 200.471 115.476ZM202.348 113.044C202.668 113.005 202.866 112.72 202.831 112.442C202.796 112.157 202.536 111.928 202.216 111.967C201.903 112.006 201.706 112.291 201.741 112.576C201.775 112.854 202.036 113.083 202.348 113.044ZM202.377 117.061L203.308 116.947L202.868 113.368L201.937 113.483L202.377 117.061ZM206.203 113.318L206.182 113.321C205.957 113.095 205.58 112.957 205.17 113.008C204.232 113.123 203.698 113.993 203.829 115.063C203.961 116.14 204.691 116.854 205.629 116.739C206.039 116.688 206.378 116.463 206.542 116.189L206.556 116.188L206.599 116.542L207.53 116.427L206.932 111.564L206.001 111.679L206.203 113.318ZM205.731 115.901C205.216 115.964 204.846 115.594 204.767 114.948C204.688 114.301 204.958 113.859 205.472 113.796C205.958 113.736 206.292 114.041 206.357 114.569L206.402 114.937C206.468 115.472 206.217 115.841 205.731 115.901Z" fill="white"></path><rect height="15.0828" rx="1.5" stroke="black" transform="rotate(-7.00729 150.35 113.843)" width="84.0486" x="150.35" y="113.843"></rect><path d="M141.472 51.3098C141.456 51.1836 141.546 51.0686 141.672 51.0531L225.81 40.7115C225.936 40.6959 226.051 40.7857 226.067 40.9119L226.563 40.8509L226.067 40.9119L232.537 93.5501C232.552 93.6763 232.463 93.7912 232.336 93.8067L148.199 104.148C148.072 104.164 147.957 104.074 147.942 103.948L141.472 51.3098Z" fill="white" stroke="black"></path><path d="M183.5 63.5L198 62L205.661 70.1198L177 73.4999L183.5 63.5Z" fill="#ADDDE4"></path><path clip-rule="evenodd" d="M171.271 90.5509C174.28 90.181 176.42 87.4441 176.051 84.4377C175.681 81.4314 172.942 79.2941 169.933 79.664C166.924 80.0338 164.784 82.7708 165.153 85.7772C165.523 88.7835 168.262 90.9208 171.271 90.5509ZM170.924 87.7284C172.373 87.5503 173.403 86.2325 173.225 84.785C173.047 83.3375 171.729 82.3085 170.28 82.4866C168.831 82.6647 167.8 83.9825 167.978 85.43C168.156 86.8775 169.475 87.9065 170.924 87.7284Z" fill="#1D1D1B" fill-rule="evenodd"></path><path clip-rule="evenodd" d="M207.392 86.111C210.401 85.7411 212.541 83.0041 212.172 79.9978C211.802 76.9914 209.063 74.8542 206.054 75.224C203.045 75.5939 200.905 78.3309 201.275 81.3372C201.644 84.3436 204.383 86.4808 207.392 86.111ZM207.045 83.2884C208.494 83.1103 209.524 81.7925 209.346 80.345C209.169 78.8975 207.85 77.8685 206.401 78.0466C204.952 78.2246 203.922 79.5424 204.1 80.9899C204.278 82.4374 205.596 83.4665 207.045 83.2884Z" fill="#1D1D1B" fill-rule="evenodd"></path><path d="M190.076 63.0626L190.795 71.908" stroke="#1D1D1B" stroke-linecap="round" stroke-width="1.55"></path><path clip-rule="evenodd" d="M202.286 80.3942L173 83.9939C172.53 82.9829 171.447 82.3429 170.28 82.4864C169.112 82.6298 168.217 83.513 168.006 84.6077L159.564 85.6453C159.364 85.6699 159.182 85.5276 159.157 85.3274L157.995 75.871C157.97 75.6708 158.113 75.4886 158.313 75.464L171.875 73.7971L171.994 73.7825C173.567 73.5919 176.96 73.1804 178.807 69.3636L181.552 65.0353C181.983 64.0955 183.551 62.1291 186.376 61.7819L194.045 60.8393C194.982 60.6899 197.368 60.881 199.412 62.8401L202.079 65.3774C203.851 66.4559 208.066 67.7523 210.757 64.3109C211.581 63.3717 213.115 59.9017 212.78 53.4607C212.77 53.268 212.91 53.0971 213.102 53.0735L213.912 52.974C214.112 52.9494 214.294 53.0917 214.319 53.2918L217.377 78.1715C217.401 78.3716 217.259 78.5538 217.059 78.5784L209.121 79.5542C208.651 78.543 207.568 77.9029 206.401 78.0464C205.233 78.1899 204.338 79.0731 204.127 80.168L202.286 80.3942ZM179.129 71.9845L182.887 65.8946C183.288 65.2654 184.957 63.9006 188.428 63.474L193.674 62.829C193.731 62.8221 193.789 62.8147 193.849 62.807C195.073 62.6499 197 62.4028 198.928 64.7415C200.951 67.1944 202.312 68.6575 202.739 69.0824L179.129 71.9845Z" fill="#1D1D1B" fill-rule="evenodd"></path><path clip-rule="evenodd" d="M198.085 32.7784C198.119 33.0544 198.37 33.2507 198.646 33.2168C198.922 33.1828 199.118 32.9316 199.084 32.6556C199.05 32.3794 198.799 32.1831 198.523 32.217C198.247 32.2509 198.051 32.5023 198.085 32.7784ZM196.434 32.5179L195.377 32.6478L197.128 34.9717L195.992 37.6507L197.049 37.5208L198.185 34.8417L196.434 32.5179ZM194.658 35.0482C194.695 35.3509 194.481 35.5748 194.106 35.6209C193.789 35.6599 193.552 35.5206 193.523 35.2827C193.498 35.0809 193.628 34.9478 193.972 34.8253C194.189 34.7473 194.367 34.7107 194.611 34.6661L194.658 35.0482ZM195.569 34.9583L195.431 33.8411C195.365 33.3005 195.258 33.1453 194.958 32.9627C194.688 32.791 194.329 32.7326 193.89 32.7866C193.376 32.8498 192.972 33.0106 192.547 33.3307L193.028 33.9685C193.343 33.7417 193.681 33.5952 193.963 33.5606C194.187 33.5331 194.369 33.5911 194.451 33.7201C194.497 33.795 194.493 33.7662 194.522 34.0041C193.75 34.1501 193.258 34.313 192.97 34.5314C192.71 34.7317 192.581 35.0548 192.623 35.3935C192.702 36.0351 193.347 36.4607 194.103 36.3677C194.5 36.319 194.738 36.1726 194.9 35.8892C195.11 36.1049 195.355 36.1991 195.608 36.1681C195.636 36.1647 195.659 36.1619 195.683 36.1572L195.981 35.4564C195.678 35.4278 195.617 35.3474 195.569 34.9583ZM180.809 37.0148C180.644 37.0783 180.566 37.0951 180.451 37.1092C180.112 37.1509 180.005 37.0471 179.953 36.6289L179.792 35.3166L180.589 35.2187L180.497 34.476L179.701 34.574L179.57 33.5113L178.654 33.6239L178.785 34.6865L178.252 34.7521L178.343 35.4947L178.876 35.4292L179.086 37.1307C179.133 37.5201 179.179 37.6535 179.305 37.7844C179.473 37.9613 179.782 38.0332 180.186 37.9836C180.454 37.9505 180.692 37.8884 180.905 37.794L180.809 37.0148ZM181.856 36.0692C181.925 36.6327 182.362 36.9799 182.881 36.9162C183.399 36.8524 183.742 36.4093 183.673 35.8459C183.604 35.2823 183.164 34.9356 182.645 34.9994C182.126 35.0631 181.787 35.5056 181.856 36.0692ZM184.561 35.7367C184.686 36.7541 184.016 37.6073 182.982 37.7344C181.951 37.8611 181.097 37.1952 180.972 36.1778C180.847 35.1605 181.514 34.3075 182.545 34.1808C183.579 34.0537 184.436 34.7193 184.561 35.7367ZM175.606 36.8377C175.675 37.4011 176.112 37.7483 176.631 37.6846C177.149 37.6209 177.492 37.1778 177.423 36.6143C177.354 36.0507 176.913 35.7041 176.395 35.7678C175.876 35.8315 175.537 36.2741 175.606 36.8377ZM178.311 36.505C178.436 37.5224 177.766 38.3756 176.732 38.5027C175.701 38.6294 174.847 37.9635 174.722 36.9461C174.597 35.9288 175.264 35.0758 176.295 34.9492C177.329 34.822 178.186 35.4877 178.311 36.505ZM191.718 36.5586L190.651 36.6897L189.858 34.7018L189.621 36.8164L188.511 36.9528L187.162 33.6577L188.092 33.5434L188.944 35.78L189.201 33.407L190.174 33.2874L191.042 35.5222L191.299 33.1492L192.243 33.0332L191.718 36.5586ZM185.202 37.3592L184.783 33.9498L185.633 33.8453L185.73 34.2211C185.975 33.891 186.197 33.732 186.478 33.6974C186.579 33.685 186.666 33.6817 186.822 33.6991L186.928 34.5568C186.869 34.5566 186.819 34.5628 186.804 34.5646C186.473 34.6054 186.264 34.6969 186.096 34.8785C185.889 35.0942 185.858 35.259 185.916 35.7347L186.102 37.2484L185.202 37.3592ZM173.512 38.7961L173.286 36.9509C173.219 36.4103 173.002 36.1882 172.591 36.2387C172.36 36.2671 172.164 36.4009 172.065 36.6034C171.984 36.7743 171.968 36.9445 172.006 37.2545L172.215 38.9556L171.314 39.0663L171.099 37.3147C171.063 37.0192 171.004 36.8363 170.916 36.7153C170.802 36.5683 170.588 36.4922 170.379 36.5178C169.947 36.571 169.732 36.9047 169.797 37.4381L170.017 39.2258L169.123 39.3356L168.704 35.9262L169.548 35.8226L169.633 36.0975C169.935 35.8188 170.162 35.7031 170.486 35.6632C170.912 35.611 171.24 35.7243 171.631 36.0493C171.975 35.6339 172.281 35.4427 172.692 35.3922C173.146 35.3364 173.55 35.4696 173.828 35.772C174.04 36.0021 174.115 36.1977 174.176 36.6951L174.42 38.6845L173.512 38.7961Z" fill="white" fill-rule="evenodd"></path></g><path d="M231.395 156.216C232.798 162.136 248.337 174.934 260.391 187.423L274.321 217.492L302.652 203.395L288.767 175.995C287.297 171.058 287.871 157.126 286.793 152.187C285.444 146.013 281.834 134.026 276.099 131.408C273.969 130.095 269.401 130.344 267.383 130.633C265.874 129.854 262.008 128.951 258.617 131.574C254.941 126.555 251.297 125.332 246.485 128.767C240.703 118.771 233.118 108.348 230.619 109.794C228.121 111.239 231.018 121.068 235.184 131.447C239.35 141.826 238.967 140.212 241.447 145.877C241.447 145.877 229.991 150.297 231.395 156.216Z" fill="#C68642"></path><path d="M260.391 187.423L261.071 187.108L261.018 186.993L260.931 186.902L260.391 187.423ZM231.395 156.216L232.125 156.043L231.395 156.216ZM235.184 131.447L234.488 131.726L235.184 131.447ZM230.619 109.794L230.995 110.443L230.619 109.794ZM288.767 175.995L288.048 176.209L288.067 176.274L288.098 176.334L288.767 175.995ZM286.793 152.187L287.525 152.027L286.793 152.187ZM276.099 131.408L275.706 132.047L275.745 132.071L275.788 132.091L276.099 131.408ZM246.485 128.767L245.836 129.143L245.842 129.153L245.848 129.162L246.485 128.767ZM251.49 138.606C251.7 138.963 252.16 139.082 252.517 138.872C252.874 138.662 252.993 138.203 252.784 137.846L251.49 138.606ZM274.321 217.492L273.64 217.807L273.965 218.507L274.655 218.163L274.321 217.492ZM302.652 203.395L302.986 204.067L303.663 203.73L303.321 203.056L302.652 203.395ZM248.386 161.437C248.555 161.815 248.998 161.984 249.376 161.816C249.755 161.647 249.924 161.203 249.755 160.825L248.386 161.437ZM241.447 145.877L242.142 145.593L242.138 145.584L242.134 145.576L241.447 145.877ZM271.929 138.649C272.024 139.052 272.428 139.302 272.831 139.206C273.234 139.11 273.484 138.706 273.388 138.303L271.929 138.649ZM262.614 140.032C262.795 140.404 263.244 140.559 263.616 140.377C263.989 140.195 264.143 139.746 263.962 139.374L262.614 140.032ZM260.931 186.902C254.901 180.655 247.958 174.289 242.426 168.823C239.647 166.076 237.218 163.553 235.4 161.355C233.559 159.129 232.431 157.337 232.125 156.043L230.665 156.389C231.06 158.055 232.401 160.083 234.245 162.311C236.112 164.569 238.584 167.135 241.372 169.89C246.973 175.424 253.827 181.702 259.851 187.944L260.931 186.902ZM235.88 131.168C233.802 125.991 232.052 120.979 231.132 117.097C230.671 115.151 230.429 113.532 230.443 112.336C230.449 111.738 230.52 111.285 230.634 110.964C230.746 110.649 230.881 110.508 230.995 110.443L230.244 109.144C229.733 109.44 229.412 109.923 229.221 110.462C229.031 110.996 228.951 111.63 228.943 112.319C228.927 113.696 229.201 115.454 229.673 117.443C230.618 121.432 232.4 126.525 234.488 131.726L235.88 131.168ZM289.485 175.781C289.142 174.628 288.907 172.898 288.737 170.826C288.569 168.767 288.47 166.423 288.382 164.064C288.209 159.396 288.083 154.581 287.525 152.027L286.06 152.347C286.581 154.732 286.707 159.352 286.883 164.12C286.971 166.478 287.071 168.852 287.242 170.948C287.412 173.031 287.656 174.894 288.048 176.209L289.485 175.781ZM287.525 152.027C286.845 148.911 285.593 144.32 283.778 140.164C282.871 138.086 281.814 136.095 280.605 134.447C279.399 132.806 278.007 131.454 276.411 130.726L275.788 132.091C277.059 132.671 278.269 133.8 279.395 135.335C280.518 136.863 281.523 138.746 282.404 140.764C284.165 144.799 285.392 149.288 286.06 152.347L287.525 152.027ZM230.995 110.443C231.042 110.416 231.18 110.364 231.525 110.489C231.872 110.615 232.321 110.885 232.868 111.327C233.957 112.205 235.28 113.634 236.734 115.458C239.635 119.093 242.956 124.164 245.836 129.143L247.135 128.392C244.232 123.374 240.87 118.236 237.907 114.522C236.43 112.671 235.027 111.141 233.81 110.159C233.205 109.671 232.606 109.286 232.037 109.079C231.467 108.872 230.822 108.81 230.244 109.144L230.995 110.443ZM245.848 129.162C248.601 133.614 247.678 132.118 251.49 138.606L252.784 137.846C248.974 131.364 249.888 132.842 247.123 128.373L245.848 129.162ZM259.71 187.738L273.64 217.807L275.001 217.176L261.071 187.108L259.71 187.738ZM274.655 218.163L302.986 204.067L302.318 202.724L273.987 216.82L274.655 218.163ZM303.321 203.056L289.436 175.656L288.098 176.334L301.983 203.734L303.321 203.056ZM249.755 160.825C249.553 160.372 249.145 159.619 248.627 158.674C248.101 157.714 247.444 156.527 246.72 155.17C245.273 152.458 243.567 149.088 242.142 145.593L240.753 146.16C242.206 149.723 243.939 153.145 245.397 155.877C246.126 157.243 246.788 158.441 247.312 159.395C247.843 160.365 248.215 161.054 248.386 161.437L249.755 160.825ZM242.134 145.576C239.63 139.856 240.044 141.541 235.88 131.168L234.488 131.726C238.656 142.11 238.305 140.569 240.76 146.177L242.134 145.576ZM232.125 156.043C231.838 154.836 232.19 153.668 232.987 152.535C233.791 151.392 235.009 150.344 236.319 149.445C237.622 148.551 238.974 147.832 240.005 147.335C240.519 147.088 240.95 146.897 241.252 146.768C241.403 146.704 241.521 146.655 241.6 146.623C241.64 146.607 241.67 146.595 241.69 146.587C241.7 146.583 241.707 146.58 241.712 146.578C241.714 146.578 241.716 146.577 241.717 146.577C241.717 146.576 241.717 146.576 241.717 146.576C241.717 146.576 241.717 146.576 241.717 146.576C241.717 146.576 241.717 146.576 241.447 145.877C241.177 145.177 241.177 145.177 241.177 145.177C241.177 145.177 241.176 145.177 241.176 145.177C241.175 145.177 241.175 145.178 241.174 145.178C241.172 145.179 241.169 145.18 241.166 145.181C241.16 145.184 241.151 145.187 241.139 145.192C241.115 145.201 241.081 145.215 241.038 145.232C240.95 145.268 240.823 145.32 240.664 145.388C240.344 145.524 239.891 145.725 239.354 145.984C238.281 146.501 236.856 147.257 235.47 148.208C234.092 149.155 232.71 150.321 231.76 151.672C230.804 153.032 230.25 154.637 230.665 156.389L232.125 156.043ZM273.388 138.303C273.007 136.698 272.612 135.122 271.799 133.701C270.971 132.253 269.733 131.002 267.727 129.967L267.039 131.299C268.806 132.212 269.822 133.267 270.497 134.446C271.188 135.653 271.543 137.025 271.929 138.649L273.388 138.303ZM276.493 130.77C275.251 130.004 273.406 129.737 271.729 129.67C270.016 129.602 268.324 129.741 267.277 129.891L267.49 131.375C268.461 131.236 270.061 131.105 271.669 131.169C273.313 131.234 274.817 131.499 275.706 132.047L276.493 130.77ZM263.962 139.374C262.335 136.039 260.784 133.263 259.222 131.131L258.012 132.017C259.496 134.043 261.001 136.727 262.614 140.032L263.962 139.374ZM259.222 131.131C257.347 128.571 255.386 126.842 253.163 126.274C250.9 125.696 248.559 126.365 246.05 128.157L246.921 129.378C249.223 127.734 251.11 127.298 252.791 127.727C254.511 128.166 256.21 129.558 258.012 132.017L259.222 131.131ZM259.076 132.167C262.16 129.782 265.691 130.603 267.039 131.299L267.727 129.967C266.058 129.105 261.857 128.12 258.158 130.981L259.076 132.167Z" fill="#1D1D1B"></path><path d="M270.241 208.022L277.349 203.867L272.087 194.363L265.392 198.265L270.241 208.022Z" fill="#00BC80" stroke="#1D1D1B" stroke-width="1.55"></path><path d="M292.214 197.105L298.853 194.577L293.354 184.826L287.065 187.14L292.214 197.105Z" fill="#00BC80" stroke="#1D1D1B" stroke-width="1.55"></path><circle cx="281.843" cy="195.34" fill="white" r="11.4521" stroke="#1D1D1B" stroke-width="1.5" transform="rotate(160.907 281.843 195.34)"></circle><path d="M305.296 195.776C289.205 194.42 278.657 198.642 269.077 211.879C268.405 212.808 268.358 214.046 268.924 215.043L305.296 279C321.645 286.114 330.878 267.341 333.258 258.951C327.549 246.431 307.919 197.977 307.41 196.817C306.913 195.684 306.017 195.595 305.296 195.776Z" fill="#0460CC" stroke="#1D1D1B" stroke-width="1.5"></path><path d="M273.615 199.335L281.985 195.33L279.533 190.207" stroke="black" stroke-width="1.55"></path><path d="M93.5701 182.088C92.1322 174.587 95.1139 152.851 105.738 156.333C113.499 158.876 114.837 159.566 114.995 159.753C118.707 153.93 124.765 143.822 126.225 141.39C128.575 137.475 131.473 129.525 135.02 131.629C136.273 132.372 135.104 139.399 132.627 147.552C133.786 149.002 134.855 150.969 135.595 153.029C138.034 155.066 142.594 160.935 141.534 166.218C140.758 170.09 138.696 174.201 137.65 176.121C137.339 176.692 137.598 176.982 138.052 176.517C138.835 175.716 140.148 174.024 142.263 170.457C146.47 163.365 150.693 154.178 152.85 160.534C155.006 166.89 136.36 191.348 130.735 197.741C125.111 204.133 116.913 210.11 116.913 210.11L70 267L49.0358 250.467L92.3156 192.561C92.3156 192.561 95.0081 189.59 93.5701 182.088Z" fill="#FFCFAC"></path><path d="M105.738 156.333L105.972 155.62L105.738 156.333ZM126.225 141.39L125.582 141.004L126.225 141.39ZM135.02 131.629L135.403 130.984L135.403 130.984L135.02 131.629ZM130.735 197.741L131.299 198.236L130.735 197.741ZM152.85 160.534L152.139 160.775L152.85 160.534ZM142.263 170.457L141.618 170.075L142.263 170.457ZM138.052 176.517L137.515 175.993L137.515 175.993L138.052 176.517ZM137.65 176.121L138.308 176.48L138.308 176.48L137.65 176.121ZM141.534 166.218L140.799 166.071L141.534 166.218ZM132.627 147.552L131.91 147.334L132.627 147.552ZM124.268 166.36C124.09 166.734 124.249 167.182 124.623 167.359C124.997 167.537 125.445 167.378 125.623 167.004L124.268 166.36ZM92.3156 192.561L91.7599 192.057L91.7361 192.084L91.7149 192.112L92.3156 192.561ZM107.628 170.322C107.396 170.666 107.487 171.132 107.831 171.363C108.174 171.595 108.64 171.504 108.872 171.161L107.628 170.322ZM132.447 170.156C132.24 170.515 132.364 170.973 132.723 171.18C133.082 171.386 133.54 171.263 133.747 170.904L132.447 170.156ZM136.617 158.444L137.367 158.458L136.617 158.444ZM116.913 210.11L116.471 209.504L116.394 209.56L116.334 209.633L116.913 210.11ZM49.0358 250.467L48.4351 250.018L47.9976 250.603L48.5714 251.056L49.0358 250.467ZM70 267L69.5356 267.589L70.1118 268.043L70.5786 267.477L70 267ZM94.3067 181.947C93.6151 178.339 93.9831 171.158 95.8454 165.32C96.7764 162.401 98.0515 159.916 99.6695 158.377C101.242 156.881 103.138 156.27 105.505 157.045L105.972 155.62C103.027 154.655 100.566 155.455 98.6358 157.29C96.7515 159.082 95.379 161.846 94.4163 164.864C92.4911 170.899 92.0872 178.336 92.8336 182.23L94.3067 181.947ZM126.868 141.776C127.471 140.772 128.108 139.511 128.757 138.264C129.415 137 130.093 135.737 130.8 134.666C131.516 133.58 132.213 132.772 132.881 132.35C133.205 132.145 133.496 132.047 133.762 132.033C134.022 132.018 134.308 132.079 134.637 132.274L135.403 130.984C134.845 130.653 134.265 130.502 133.678 130.535C133.098 130.567 132.563 130.776 132.079 131.082C131.133 131.681 130.293 132.711 129.548 133.839C128.793 134.982 128.084 136.308 127.427 137.571C126.761 138.85 126.154 140.05 125.582 141.004L126.868 141.776ZM131.299 198.236C134.135 195.012 140.223 187.272 145.336 179.537C147.892 175.671 150.219 171.782 151.775 168.447C152.552 166.78 153.147 165.229 153.478 163.873C153.803 162.538 153.898 161.291 153.56 160.293L152.139 160.775C152.34 161.366 152.324 162.274 152.021 163.518C151.722 164.741 151.171 166.193 150.415 167.813C148.905 171.051 146.624 174.869 144.085 178.71C139.007 186.391 132.96 194.076 130.172 197.245L131.299 198.236ZM153.56 160.293C153.275 159.453 152.928 158.782 152.488 158.325C152.023 157.84 151.445 157.594 150.801 157.66C150.206 157.721 149.661 158.038 149.183 158.432C148.697 158.834 148.212 159.374 147.732 159.993C146.773 161.231 145.762 162.884 144.74 164.644C143.704 166.429 142.671 168.299 141.618 170.075L142.908 170.84C143.958 169.069 145.031 167.131 146.037 165.397C147.058 163.639 148.026 162.063 148.918 160.912C149.364 160.336 149.772 159.892 150.139 159.589C150.515 159.278 150.783 159.169 150.953 159.152C151.074 159.14 151.213 159.163 151.407 159.365C151.628 159.594 151.885 160.027 152.139 160.775L153.56 160.293ZM141.618 170.075C139.512 173.625 138.235 175.256 137.515 175.993L138.588 177.041C139.434 176.176 140.783 174.423 142.908 170.84L141.618 170.075ZM138.308 176.48C139.361 174.549 141.47 170.355 142.27 166.366L140.799 166.071C140.046 169.826 138.031 173.854 136.991 175.762L138.308 176.48ZM134.637 132.274C134.553 132.224 134.597 132.194 134.66 132.406C134.717 132.598 134.76 132.893 134.773 133.307C134.799 134.13 134.701 135.281 134.481 136.697C134.043 139.52 133.142 143.279 131.91 147.334L133.345 147.77C134.59 143.673 135.511 139.841 135.963 136.927C136.189 135.474 136.303 134.219 136.273 133.26C136.258 132.784 136.206 132.344 136.097 131.978C135.994 131.632 135.801 131.22 135.403 130.984L134.637 132.274ZM131.91 147.334C130.577 151.722 128.802 156.823 124.268 166.36L125.623 167.004C130.186 157.405 131.989 152.235 133.345 147.77L131.91 147.334ZM92.8336 182.23C93.5322 185.874 93.2193 188.371 92.7625 189.927C92.5335 190.707 92.2664 191.257 92.0654 191.603C91.9648 191.776 91.8804 191.899 91.8252 191.973C91.7976 192.011 91.7773 192.036 91.7659 192.05C91.7601 192.057 91.7567 192.061 91.7556 192.062C91.7551 192.063 91.7551 192.063 91.7559 192.062C91.7562 192.062 91.7567 192.061 91.7574 192.06C91.7577 192.06 91.7581 192.059 91.7585 192.059C91.7587 192.059 91.7591 192.058 91.7592 192.058C91.7595 192.058 91.7599 192.057 92.3156 192.561C92.8713 193.065 92.8717 193.064 92.8721 193.064C92.8723 193.064 92.8727 193.063 92.873 193.063C92.8735 193.062 92.8742 193.062 92.8748 193.061C92.8761 193.059 92.8776 193.058 92.8793 193.056C92.8826 193.052 92.8865 193.048 92.891 193.043C92.9 193.032 92.9115 193.019 92.9252 193.002C92.9525 192.969 92.9886 192.923 93.0318 192.864C93.1182 192.747 93.233 192.579 93.3623 192.357C93.6212 191.911 93.9373 191.25 94.2017 190.349C94.7317 188.544 95.0461 185.805 94.3067 181.947L92.8336 182.23ZM108.872 171.161C109.328 170.484 110.051 169.244 111.119 167.458C112.196 165.656 113.647 163.26 115.582 160.226L114.318 159.419C112.372 162.469 110.913 164.878 109.831 166.688C108.74 168.513 108.054 169.69 107.628 170.322L108.872 171.161ZM115.582 160.226C115.597 160.203 115.612 160.18 115.627 160.156L114.362 159.35C114.348 159.373 114.333 159.396 114.318 159.419L115.582 160.226ZM115.627 160.156C119.346 154.323 125.41 144.204 126.868 141.776L125.582 141.004C124.12 143.439 118.068 153.538 114.362 159.35L115.627 160.156ZM105.505 157.045C109.381 158.316 111.641 159.119 112.946 159.625C113.6 159.879 114.003 160.054 114.245 160.172C114.367 160.231 114.436 160.27 114.473 160.293C114.522 160.324 114.479 160.305 114.421 160.236L115.569 159.27C115.471 159.154 115.351 159.073 115.268 159.021C115.17 158.96 115.049 158.895 114.901 158.823C114.605 158.679 114.159 158.487 113.489 158.227C112.146 157.706 109.856 156.893 105.972 155.62L105.505 157.045ZM114.421 160.236C114.391 160.201 114.224 159.997 114.27 159.684C114.322 159.333 114.583 159.179 114.671 159.137C114.767 159.091 114.847 159.081 114.868 159.078C114.886 159.076 114.901 159.075 114.912 159.074C114.918 159.074 114.924 159.073 114.93 159.073C114.932 159.073 114.935 159.073 114.938 159.073C114.939 159.073 114.94 159.073 114.942 159.073C114.942 159.073 114.943 159.073 114.944 159.073C114.944 159.073 114.944 159.073 114.945 159.073C114.945 159.073 114.945 159.073 114.945 159.073C114.945 159.073 114.946 159.073 114.95 159.823C114.955 160.573 114.955 160.573 114.955 160.573C114.955 160.573 114.956 160.573 114.956 160.573C114.956 160.573 114.956 160.573 114.957 160.573C114.958 160.573 114.958 160.573 114.959 160.573C114.96 160.573 114.962 160.573 114.963 160.573C114.966 160.573 114.97 160.573 114.973 160.573C114.98 160.572 114.988 160.572 114.997 160.572C115.014 160.571 115.036 160.569 115.063 160.565C115.102 160.56 115.204 160.545 115.318 160.491C115.424 160.44 115.7 160.273 115.754 159.903C115.803 159.57 115.628 159.34 115.569 159.27L114.421 160.236ZM133.747 170.904C135.896 167.17 137.289 162.732 137.367 158.458L135.867 158.43C135.795 162.415 134.489 166.607 132.447 170.156L133.747 170.904ZM137.367 158.458C137.4 156.658 136.977 154.662 136.3 152.776L134.889 153.282C135.525 155.056 135.896 156.866 135.867 158.43L137.367 158.458ZM136.3 152.776C135.538 150.65 134.431 148.608 133.213 147.084L132.041 148.021C133.141 149.396 134.173 151.287 134.889 153.282L136.3 152.776ZM142.27 166.366C142.849 163.475 141.885 160.497 140.533 158.044C139.177 155.583 137.368 153.533 136.075 152.453L135.114 153.605C136.26 154.562 137.951 156.465 139.22 158.768C140.493 161.08 141.279 163.679 140.799 166.071L142.27 166.366ZM130.172 197.245C127.397 200.4 123.975 203.464 121.235 205.747C119.867 206.886 118.674 207.827 117.824 208.483C117.399 208.81 117.059 209.067 116.827 209.241C116.711 209.328 116.621 209.394 116.561 209.438C116.531 209.461 116.508 209.477 116.493 209.488C116.485 209.494 116.48 209.498 116.476 209.501C116.474 209.502 116.473 209.503 116.472 209.504C116.472 209.504 116.471 209.504 116.471 209.504C116.471 209.504 116.471 209.504 116.471 209.504C116.471 209.504 116.471 209.504 116.913 210.11C117.355 210.716 117.355 210.716 117.355 210.716C117.355 210.716 117.355 210.716 117.355 210.716C117.356 210.716 117.356 210.715 117.357 210.715C117.358 210.714 117.359 210.713 117.361 210.711C117.366 210.708 117.372 210.704 117.38 210.698C117.396 210.686 117.42 210.668 117.452 210.645C117.514 210.599 117.606 210.531 117.725 210.442C117.963 210.264 118.308 210.003 118.74 209.671C119.602 209.006 120.81 208.053 122.195 206.899C124.96 204.595 128.449 201.474 131.299 198.236L130.172 197.245ZM91.7149 192.112L48.4351 250.018L49.6366 250.916L92.9164 193.01L91.7149 192.112ZM48.5714 251.056L69.5356 267.589L70.4644 266.411L49.5002 249.878L48.5714 251.056ZM70.5786 267.477L117.491 210.588L116.334 209.633L69.4214 266.523L70.5786 267.477ZM137.515 175.993C137.443 176.067 137.437 176.048 137.505 176.024C137.581 175.997 137.868 175.941 138.104 176.187C138.201 176.288 138.239 176.394 138.254 176.46C138.268 176.526 138.264 176.57 138.262 176.581C138.26 176.601 138.261 176.568 138.308 176.48L136.991 175.762C136.884 175.96 136.801 176.176 136.773 176.397C136.75 176.59 136.752 176.945 137.024 177.227C137.343 177.559 137.76 177.524 138.002 177.439C138.237 177.357 138.434 177.199 138.588 177.041L137.515 175.993Z" fill="#1D1D1B"></path><path d="M80.9581 206.596L87.9309 210.973L93.921 201.911L87.3636 197.782L80.9581 206.596Z" fill="#FF8400" stroke="#1D1D1B" stroke-width="1.55"></path><path d="M100.805 221.023L106.118 225.738L112.217 216.351L107.256 211.847L100.805 221.023Z" fill="#FF8400" stroke="#1D1D1B" stroke-width="1.55"></path><circle cx="97.5701" cy="211.013" fill="white" r="11.4521" stroke="#1D1D1B" stroke-width="1.5" transform="rotate(-136.661 97.5701 211.013)"></circle><path d="M90.2207 205.568L97.6438 211.134L101.051 206.589" stroke="black" stroke-width="1.55"></path><defs><clipPath id="clip0_1613_40485"><rect fill="white" height="113.424" rx="1.82576" transform="rotate(-7.00729 106.148 33.6312)" width="151.298" x="106.148" y="33.6312"></rect></clipPath></defs></svg>