<svg fill="none" height="282" viewBox="0 0 196 282" width="196" xmlns="http://www.w3.org/2000/svg"><rect fill="#FEF200" height="253.895" rx="1.29167" stroke="#1D1D1B" stroke-width="1.55" transform="rotate(13.9664 62.2174 0.939137)" width="136.473" x="62.2174" y="0.939137"></rect><path clip-rule="evenodd" d="M121.264 70.7732L119.549 77.6696L116.416 76.8903L118.006 70.4973C118.473 68.6164 118.042 67.6114 116.626 67.2593C115.833 67.0621 115.021 67.2636 114.436 67.804C113.952 68.2586 113.685 68.8075 113.418 69.8809L111.951 75.78L108.846 75.0077L110.356 68.9376C110.611 67.9117 110.651 67.2257 110.517 66.7182C110.333 66.0875 109.722 65.5623 109.004 65.3839C107.513 65.013 106.385 65.8419 105.924 67.6943L104.384 73.8878L101.307 73.1226L104.246 61.3055L107.153 62.0285L107.079 63.0492C108.425 62.5163 109.321 62.4165 110.435 62.6935C111.908 63.0597 112.844 63.8474 113.717 65.4161C115.374 64.4765 116.618 64.2311 118.033 64.5832C119.6 64.9729 120.756 65.9261 121.291 67.2797C121.697 68.3086 121.692 69.0538 121.264 70.7732ZM124.674 78.9443L129.532 73.8785L127.613 67.1272L124.215 66.2821L126.134 73.0334L121.276 78.0992L124.674 78.9443Z" fill="#1D1D1B" fill-rule="evenodd"></path><path d="M140.62 250.204L140.433 250.956L139.681 250.769L74.3116 234.511L8.94379 218.254L8.1917 218.067L8.37874 217.315L26.6044 144.032L26.9778 142.531L27.9566 143.729L80.8072 208.394L157.793 176.02L159.219 175.42L158.846 176.921L140.62 250.204Z" fill="white" stroke="#1D1D1B" stroke-width="1.55"></path><rect fill="white" height="28.7047" rx="0.775" stroke="#1D1D1B" stroke-width="1.55" transform="rotate(13.9664 60.3893 94.9999)" width="95.5272" x="60.3893" y="94.9999"></rect><path d="M61.6427 95.3116L78.1111 99.4074L71.1831 127.263L54.7148 123.168C54.0225 122.996 53.6009 122.295 53.7731 121.603L60.0775 96.2534C60.2497 95.5611 60.9505 95.1395 61.6427 95.3116Z" fill="#0460CC" stroke="#1D1D1B" stroke-width="1.55"></path><rect fill="#1D1D1B" height="32.6299" transform="matrix(-0.970438 -0.241352 -0.241352 0.970438 194.488 33.243)" width="136.06"></rect><rect fill="#1D1D1B" height="30.8684" transform="matrix(-0.970438 -0.241352 -0.241352 0.970438 140.863 250.264)" width="136.673"></rect><path d="M90.8555 109.818L93.5839 110.496L89.895 125.284L87.2087 124.616L88.6906 118.612L84.7191 117.624L83.2161 123.668L80.5535 122.994L84.2161 108.178L86.8392 108.83L85.3915 114.876L89.3525 115.861L90.8555 109.818Z" fill="black"></path><path d="M103.669 113.004L106.282 113.654L103.56 124.731L103.537 124.826L103.51 124.932L103.486 125.028L103.46 125.134L103.41 125.335L103.368 125.46L103.339 125.531L103.312 125.592L103.278 125.685L103.183 125.887L103.081 126.075L103.036 126.165L102.994 126.245L102.951 126.324L102.899 126.401L102.878 126.441L102.862 126.46L102.846 126.478L102.806 126.547L102.775 126.584L102.743 126.622L102.725 126.651L102.693 126.688L102.662 126.725L102.643 126.754L102.612 126.791L102.583 126.818L102.554 126.845L102.522 126.882L102.461 126.945L102.39 127.007L102.316 127.078L102.285 127.115L102.243 127.15L102.201 127.185L102.158 127.219L102.106 127.251L102.064 127.286L102.008 127.328L101.956 127.36L101.892 127.389L101.837 127.432L101.797 127.456L101.747 127.477L101.708 127.501L101.668 127.525L101.632 127.538L101.605 127.554L101.534 127.57L101.497 127.584L101.46 127.597L101.387 127.624L101.339 127.635L101.3 127.659L101.205 127.68L101.107 127.712L101.013 127.733L100.918 127.755L100.87 127.766L100.823 127.776L100.778 127.776L100.741 127.79L100.694 127.801L100.66 127.803L100.615 127.803L100.581 127.806L100.546 127.809L100.512 127.812L100.48 127.804L100.457 127.809L100.423 127.812L100.401 127.807L100.378 127.812L100.357 127.807L100.322 127.81L100.288 127.812L100.254 127.815L100.222 127.807L100.209 127.815L100.188 127.81L100.178 127.807L100.154 127.813L100.133 127.807L100.112 127.802L100.088 127.808L100.067 127.802L100.035 127.794L100.001 127.797L99.9695 127.789L99.9353 127.792L99.901 127.795L99.8589 127.784L99.8141 127.784L99.7931 127.779L99.772 127.774L99.7615 127.771L99.7404 127.766L99.7298 127.763L99.7193 127.761L96.2614 126.912L96.2298 126.904L96.1982 126.896L96.1771 126.891L96.1666 126.888L96.156 126.886L96.0849 126.857L96.0217 126.841L95.9611 126.815L95.89 126.786L95.8611 126.767L95.8295 126.76L95.7715 126.723L95.7031 126.683L95.6451 126.646L95.6267 126.63L95.6162 126.628L95.5977 126.612L95.5793 126.596L95.5582 126.591L95.5398 126.575L95.5135 126.546L95.474 126.525L95.4371 126.493L95.4002 126.461L95.3818 126.446L95.3713 126.443L95.3528 126.427L95.316 126.396L95.2765 126.374L95.2159 126.303L95.179 126.271L95.1527 126.242L95.1001 126.184L95.0816 126.168L95.0737 126.155L95.0369 126.123L95.0105 126.094L94.9868 126.055L94.95 126.023L94.9342 125.997L94.9263 125.983L94.9079 125.968L94.8921 125.941L94.8552 125.909L94.7762 125.822L94.7077 125.738L94.6419 125.642L94.5866 125.55L94.5551 125.497L94.5235 125.444L94.4998 125.404L94.4655 125.362L94.455 125.315L94.4313 125.275L94.4076 125.235L94.3918 125.209L94.3866 125.185L94.3787 125.172L94.3655 125.135L94.3418 125.095L94.3287 125.058L94.3181 125.01L94.305 124.973L94.2734 124.875L94.2392 124.788L94.2182 124.693L94.205 124.611L94.1813 124.526L94.1577 124.351L94.1314 124.187L94.1288 124.153L94.1182 124.105L94.1182 124.06L94.1183 124.015L94.1183 123.97L94.1183 123.925L94.1209 123.824L94.1368 123.625L94.1527 123.427L94.1659 123.374L94.1685 123.318L94.1817 123.265L94.1843 123.209L94.2002 123.146L94.2028 123.09L94.2186 123.027L94.2344 122.963L96.942 122.826L96.9315 122.868L96.9262 122.889L96.9315 122.913L96.9236 122.945L96.913 122.987L96.9156 123.022L96.9104 123.043L96.9025 123.075L96.9077 123.099L96.9025 123.12L96.8972 123.141L96.8998 123.176L96.8919 123.207L96.884 123.239L96.8734 123.282L96.8629 123.324L96.8602 123.38L96.8471 123.433L96.847 123.478L96.8339 123.531L96.8338 123.576L96.8312 123.631L96.8312 123.676L96.8391 123.78L96.8496 123.827L96.8601 123.875L96.8706 123.923L96.8785 123.936L96.8917 123.973L96.9048 124.01L96.9233 124.026L96.9391 124.052L96.9628 124.092L96.997 124.134L97.0233 124.163L97.0575 124.206L97.0944 124.237L97.1313 124.269L97.1813 124.293L97.2182 124.324L97.2682 124.348L97.3182 124.372L97.3577 124.393L97.4078 124.416L97.4499 124.427L97.5 124.451L97.5421 124.461L97.5948 124.474L97.6474 124.487L97.7001 124.5L99.6595 124.988L99.7675 125.003L99.8202 125.016L99.8518 125.024L99.8728 125.03L99.9071 125.027L99.9282 125.032L99.9808 125.045L100.036 125.048L100.081 125.048L100.113 125.055L100.136 125.05L100.16 125.045L100.17 125.047L100.181 125.05L100.228 125.039L100.286 125.031L100.334 125.02L100.357 125.015L100.381 125.01L100.405 125.004L100.418 124.996L100.421 124.986L100.431 124.988L100.479 124.978L100.494 124.959L100.505 124.962L100.508 124.951L100.521 124.943L100.544 124.938L100.56 124.919L100.6 124.895L100.629 124.869L100.642 124.861L100.674 124.823L100.689 124.805L100.703 124.797L100.705 124.786L100.739 124.738L100.755 124.72L100.771 124.701L100.776 124.68L100.795 124.651L100.819 124.601L100.842 124.55L100.855 124.497L100.869 124.444L100.895 124.383L100.903 124.351L100.911 124.319L100.927 124.256L100.929 124.245L103.669 113.004Z" fill="black"></path><path d="M109.912 114.591L112.506 115.225L108.864 130.046L106.283 129.405L109.912 114.591Z" fill="black"></path></svg>