<svg width="110" height="110" viewBox="0 0 110 110" fill="none" xmlns="http://www.w3.org/2000/svg">
<path d="M55 110C85.3757 110 110 85.3757 110 55C110 24.6243 85.3757 0 55 0C24.6244 0 0 24.6243 0 55C0 85.3757 24.6244 110 55 110Z" fill="#EAEAEA"/>
<path d="M84.2669 83.3537L26.9132 83.7347C26.0353 83.743 25.3231 83.0307 25.3148 82.1611L25.0001 35.0027C24.9835 32.2199 27.2196 29.9506 30.0024 29.934L80.4572 29.5945C83.24 29.5779 85.5093 31.8141 85.5258 34.5969L85.8405 81.7553C85.8488 82.6332 85.1448 83.3537 84.2669 83.3537Z" fill="white"/>
<path d="M85.5258 34.6052L85.5756 42.2992L25.0497 42.7051L25.0001 35.011C24.9835 32.2282 27.2196 29.9589 30.0024 29.9423L80.4572 29.6028C83.24 29.5862 85.5093 31.8224 85.5258 34.6052Z" fill="#C7C7C7"/>
<path d="M35.2869 48.4943L31.8416 48.5192C31.295 48.5192 30.8477 48.0802 30.8477 47.5336C30.8477 46.987 31.2867 46.5398 31.8333 46.5398L35.2786 46.5149C35.8252 46.5149 36.2725 46.9538 36.2725 47.5005C36.2725 48.0471 35.8335 48.4943 35.2869 48.4943Z" fill="#ADADAD"/>
<path d="M45.8708 48.428L42.4255 48.4529C41.8788 48.4529 41.4316 48.0139 41.4316 47.4673C41.4316 46.9207 41.8705 46.4735 42.4172 46.4735L45.8626 46.4486C46.4092 46.4486 46.8565 46.8876 46.8565 47.4342C46.8565 47.9808 46.4175 48.4198 45.8708 48.428Z" fill="#ADADAD"/>
<path d="M56.4568 48.3536L53.0114 48.3784C52.4648 48.3784 52.0176 47.9395 52.0176 47.3929C52.0176 46.8462 52.4565 46.399 53.0031 46.399L56.4485 46.3741C56.9951 46.3741 57.4423 46.8131 57.4423 47.3597C57.4423 47.9063 57.0034 48.3536 56.4568 48.3536Z" fill="#ADADAD"/>
<path d="M67.0409 48.2872L63.5955 48.312C63.0489 48.312 62.6016 47.8731 62.6016 47.3264C62.6016 46.7798 63.0406 46.3326 63.5872 46.3326L67.0326 46.3077C67.5792 46.3077 68.0264 46.7467 68.0264 47.2933C68.0264 47.8399 67.5875 48.2789 67.0409 48.2872Z" fill="#ADADAD"/>
<path d="M77.6248 48.2127L74.1795 48.2376C73.6328 48.2376 73.1855 47.7986 73.1855 47.252C73.1855 46.7054 73.6246 46.2581 74.1712 46.2581L77.6165 46.2333C78.1631 46.2333 78.6104 46.6722 78.6104 47.2189C78.6104 47.7655 78.1714 48.2127 77.6248 48.2127Z" fill="#ADADAD"/>
<path d="M35.3201 53.4801L31.8747 53.505C31.3281 53.505 30.8809 53.066 30.8809 52.5194C30.8809 51.9728 31.3198 51.5256 31.8664 51.5256L35.3118 51.5007C35.8584 51.5007 36.3056 51.9397 36.3056 52.4863C36.3139 53.0329 35.8667 53.4801 35.3201 53.4801Z" fill="#ADADAD"/>
<path d="M45.9041 53.4139L42.4587 53.4387C41.912 53.4387 41.4648 52.9998 41.4648 52.4532C41.4648 51.9065 41.9037 51.4593 42.4504 51.4593L45.8958 51.4344C46.4424 51.4344 46.8896 51.8734 46.8896 52.42C46.8979 52.9584 46.4507 53.4056 45.9041 53.4139Z" fill="#ADADAD"/>
<path d="M56.4901 53.3393L53.0447 53.3641C52.4981 53.3641 52.0508 52.9252 52.0508 52.3786C52.0508 51.832 52.4898 51.3847 53.0364 51.3847L56.4818 51.3599C57.0284 51.3599 57.4756 51.7988 57.4756 52.3454C57.4839 52.8921 57.0367 53.3393 56.4901 53.3393Z" fill="#ADADAD"/>
<path d="M67.074 53.2648L63.6287 53.2897C63.0821 53.2897 62.6348 52.8507 62.6348 52.3041C62.6348 51.7575 63.0738 51.3102 63.6204 51.3102L67.0657 51.2854C67.6123 51.2854 68.0596 51.7244 68.0596 52.271C68.0679 52.8176 67.6206 53.2648 67.074 53.2648Z" fill="#ADADAD"/>
<path d="M77.658 53.1985L74.2126 53.2234C73.6659 53.2234 73.2188 52.7844 73.2188 52.2378C73.2188 51.6912 73.6577 51.244 74.2043 51.244L77.6497 51.2191C78.1963 51.2191 78.6436 51.6581 78.6436 52.2047C78.6436 52.7513 78.2046 53.1902 77.658 53.1985Z" fill="#ADADAD"/>
<path d="M50.5086 78.0781C49.7632 78.0863 49.0178 77.8047 48.4463 77.2416L43.3197 72.1812C42.1768 71.0548 42.1602 69.2079 43.2949 68.065C44.4212 66.922 46.2681 66.9055 47.411 68.0401L50.4672 71.0548L62.2775 59.0789C63.4039 57.9359 65.2508 57.9194 66.3937 59.054C67.5366 60.1804 67.5532 62.0273 66.4186 63.1702L52.5625 77.2167C51.991 77.7882 51.2457 78.0698 50.5086 78.0781Z" fill="#ADADAD"/>
<path d="M35.8081 33.9095L33.9695 33.9178C33.1909 33.9261 32.545 33.2966 32.545 32.5098L32.5118 27.6979C32.5035 26.9194 33.133 26.2817 33.9198 26.2734L35.7584 26.2651C36.5369 26.2568 37.1746 26.8862 37.1829 27.673L37.2161 32.485C37.2161 33.2635 36.5866 33.9012 35.8081 33.9095Z" fill="white"/>
<path d="M49.0347 33.8183L47.196 33.8266C46.4175 33.8349 45.7798 33.2054 45.7715 32.4186L45.7384 27.6067C45.7301 26.8282 46.3596 26.1905 47.1464 26.1822L48.985 26.1739C49.7635 26.1656 50.4012 26.7951 50.4095 27.5819L50.4427 32.3938C50.4427 33.1806 49.8133 33.8183 49.0347 33.8183Z" fill="white"/>
<path d="M62.2612 33.7355L60.4226 33.7438C59.6441 33.7521 59.0063 33.1227 58.998 32.3358L58.9649 27.5239C58.9566 26.7454 59.586 26.1077 60.3728 26.0994L62.2115 26.0911C62.99 26.0829 63.6277 26.7123 63.636 27.4991L63.6691 32.311C63.6691 33.0895 63.0397 33.7272 62.2612 33.7355Z" fill="white"/>
<path d="M75.4878 33.6445L73.6491 33.6528C72.8706 33.661 72.2246 33.0316 72.2246 32.2448L72.1915 27.4329C72.1832 26.6544 72.8126 26.0167 73.5994 26.0084L75.438 26.0001C76.2165 25.9918 76.8626 26.6213 76.8626 27.4081L76.8957 32.22C76.8957 32.9985 76.2663 33.6445 75.4878 33.6445Z" fill="white"/>
<path d="M12.0001 34C18.6275 34 24 28.6274 24 22C24 15.3726 18.6275 10 12.0001 10C5.37266 10 0 15.3726 0 22C0 28.6274 5.37266 34 12.0001 34Z" fill="#3D82C3"/>
<path d="M13.2432 27H11.5889V19.0088L9.14844 19.8428V18.4414L13.0312 17.0127H13.2432V27Z" fill="white"/>
<circle cx="12.498" cy="22.5" r="12" fill="white"/>
<path d="M12.5 10C5.6 10 0 15.6 0 22.5C0 29.4 5.6 35 12.5 35C19.4 35 25 29.4 25 22.5C25 15.6 19.4 10 12.5 10ZM9.1125 27.8625L4.625 23.375C4.1375 22.8875 4.1375 22.1 4.625 21.6125C5.1125 21.125 5.9 21.125 6.3875 21.6125L10 25.2125L18.6 16.6125C19.0875 16.125 19.875 16.125 20.3625 16.6125C20.85 17.1 20.85 17.8875 20.3625 18.375L10.875 27.8625C10.4 28.35 9.6 28.35 9.1125 27.8625Z" fill="#3D82C3"/>
</svg>
