<svg width="110" height="110" viewBox="0 0 110 110" fill="none" xmlns="http://www.w3.org/2000/svg">
<path d="M55 110C85.3757 110 110 85.3757 110 55C110 24.6243 85.3757 0 55 0C24.6244 0 0 24.6243 0 55C0 85.3757 24.6244 110 55 110Z" fill="#FFCB31"/>
<path d="M51.1386 75.5902L22.0377 75.5117C22.0377 75.5117 21.527 74.4018 22.2734 73.8617C22.735 73.5179 37.251 73.2626 48.5162 73.2626C49.4001 74.3822 50.0779 74.7456 51.1386 75.5902Z" fill="#333333"/>
<path d="M0.714283 77.8589C6.07678 78.0848 18.3143 78.291 19.1196 77.8589C19.925 77.4267 20.6322 72.8205 21.634 72.1821C22.5277 71.6125 46.1089 71.1312 47.2482 71.3669C44.8027 67.6642 42.7206 62.3999 42.7206 57.1848L42.7991 54.6901C42.7991 54.6901 15.9375 53.5508 14.592 52.7455C15.5643 50.3687 22.5277 43.7687 24.6001 43.1205C26.6724 42.4625 43.0544 42.3053 43.0544 42.3053V41.2151C43.0544 41.2151 35.6786 41.166 32.5161 41.166C24.2268 41.166 23.7652 41.2937 23.5884 41.3428C22.5179 41.6375 18.5402 45.0357 11.7634 51.4196L11.4492 51.7241C11.3018 51.7437 11.1545 51.7535 11.017 51.7732C10.8598 51.0267 10.2411 50.1723 9.05267 49.5437C7.29463 48.6008 4.98666 48.4928 4.57416 49.3276C4.21076 50.074 5.94917 51.341 7.28488 52.4214C5.67417 53.1776 3.1991 54.9455 2.79642 56.7232C2.79642 56.7232 1.70633 61.9678 0.675079 69.0687C0.174186 72.4866 -0.572324 77.8098 0.714283 77.8589ZM4.37766 75.0499L5.10443 71.4848L15.8885 72.9973L15.4759 75.0499H4.37766Z" fill="white"/>
<path d="M51.1386 75.5902L22.0377 75.5117C22.0377 75.5117 21.527 74.4018 22.2734 73.8617C22.735 73.5179 37.251 73.2626 48.5162 73.2626C49.4001 74.3822 50.0779 74.7456 51.1386 75.5902Z" fill="#3D82C3"/>
<path d="M0.714283 77.8589C6.07678 78.0848 18.3143 78.291 19.1196 77.8589C19.925 77.4267 20.6322 72.8205 21.634 72.1821C22.5277 71.6125 46.1089 71.1312 47.2482 71.3669C44.8027 67.6642 42.7206 62.3999 42.7206 57.1848L42.7991 54.6901C42.7991 54.6901 15.9375 53.5508 14.592 52.7455C15.5643 50.3687 22.5277 43.7687 24.6001 43.1205C26.6724 42.4625 43.0544 42.3053 43.0544 42.3053V41.2151C43.0544 41.2151 35.6786 41.166 32.5161 41.166C24.2268 41.166 23.7652 41.2937 23.5884 41.3428C22.5179 41.6375 18.5402 45.0357 11.7634 51.4196L11.4492 51.7241C11.3018 51.7437 11.1545 51.7535 11.017 51.7732C10.8598 51.0267 10.2411 50.1723 9.05267 49.5437C7.29463 48.6008 4.98666 48.4928 4.57416 49.3276C4.21076 50.074 5.94917 51.341 7.28488 52.4214C5.67417 53.1776 3.1991 54.9455 2.79642 56.7232C2.79642 56.7232 1.70633 61.9678 0.675079 69.0687C0.174186 72.4866 -0.572324 77.8098 0.714283 77.8589ZM4.37766 75.0499L5.10443 71.4848L15.8885 72.9973L15.4759 75.0499H4.37766Z" fill="#3D82C3"/>
<path d="M7.3724 58.8643C7.59829 57.0473 11.301 57.3812 15.259 58.8544C18.7064 60.141 21.0045 62.5277 21.0045 63.6866C21.0045 64.5312 19.4921 65.0616 14.1689 64.3151C6.50815 63.2348 7.06793 61.3393 7.3724 58.8643Z" fill="white"/>
<path d="M15.8779 72.9973L15.4654 75.05H4.37695L5.09402 71.4849L15.8779 72.9973Z" fill="white"/>
<path d="M83.3504 46.629C85.4762 49.4308 86.3967 52.7526 86.3018 56.0358C88.0764 52.1749 87.7727 47.4859 85.0207 43.8753C81.3481 39.0516 74.7241 37.9732 69.7324 41.1313C74.7621 40.3803 80.0195 42.2578 83.3504 46.629Z" fill="white"/>
<path d="M108.72 80.4584L96.0602 69.7699C99.45 65.311 101.285 59.8323 101.285 54.057C101.285 39.4843 90.189 27.5536 74.2889 27.5536C58.3888 27.5536 47.1426 39.6326 47.1426 54.057C47.1426 68.6297 58.2389 80.5604 74.139 80.5604C79.8511 80.5604 84.8983 78.9844 89.1121 76.2312L102.568 87.5964C104.272 89.0333 107.025 88.6069 108.73 86.6323C110.425 84.6578 110.425 81.8953 108.72 80.4584ZM74.2326 72.6251C64.3817 72.6251 56.3849 64.3283 56.3849 54.0848C56.3849 43.8413 64.3723 35.5445 74.2326 35.5445C84.093 35.5445 92.0805 43.8413 92.0805 54.0848C92.0805 64.3283 84.0836 72.6251 74.2326 72.6251Z" fill="#333333"/>
<path d="M13.0001 34C19.6275 34 25 28.6274 25 22C25 15.3726 19.6275 10 13.0001 10C6.37266 10 1 15.3726 1 22C1 28.6274 6.37266 34 13.0001 34Z" fill="#3D82C3"/>
<path d="M16.4375 27H9.74512V25.8584L13.0605 22.2422C13.5391 21.709 13.8786 21.2646 14.0791 20.9092C14.2842 20.5492 14.3867 20.1891 14.3867 19.8291C14.3867 19.3551 14.2523 18.9723 13.9834 18.6807C13.7191 18.389 13.3613 18.2432 12.9102 18.2432C12.3724 18.2432 11.9554 18.4072 11.6592 18.7354C11.363 19.0635 11.2148 19.5124 11.2148 20.082H9.55371C9.55371 19.4759 9.69043 18.9313 9.96387 18.4482C10.2419 17.9606 10.6361 17.5824 11.1465 17.3135C11.6615 17.0446 12.2539 16.9102 12.9238 16.9102C13.89 16.9102 14.651 17.154 15.207 17.6416C15.7676 18.1247 16.0479 18.7946 16.0479 19.6514C16.0479 20.1481 15.9066 20.6699 15.624 21.2168C15.346 21.7591 14.888 22.3766 14.25 23.0693L11.8164 25.6738H16.4375V27Z" fill="white"/>
</svg>
