<svg width="110" height="110" viewBox="0 0 110 110" fill="none" xmlns="http://www.w3.org/2000/svg">
<path d="M55 110C85.3757 110 110 85.3757 110 55C110 24.6244 85.3757 0 55 0C24.6244 0 0 24.6244 0 55C0 85.3757 24.6244 110 55 110Z" fill="#FFCB31"/>
<path d="M60.2353 80.1322L56.6719 79.733C56.7717 79.6631 56.8814 79.6032 56.9912 79.5433L70.9757 72.7856C71.4449 72.5561 71.9439 72.4762 72.423 72.5061C73.0918 72.5561 73.7307 72.8356 74.2098 73.3047L60.7444 79.8128C60.5747 79.9026 60.405 80.0125 60.2353 80.1322Z" fill="white"/>
<path d="M67.6322 80.9607L62.3418 80.3618L78.123 72.7357L79.0513 72.2865C79.5304 72.0569 80.0695 71.9471 80.6085 71.9871C81.6266 72.0669 82.5449 72.6359 83.044 73.5043L78.5822 75.6603L67.6322 80.9607Z" fill="white"/>
<path d="M74.04 81.6894H74.0101L70.4766 81.2902L80.1788 76.5987L86.5672 73.5144C87.0862 73.2748 87.6652 73.165 88.2442 73.2049C89.4719 73.2948 90.5699 74.0334 91.0989 75.1314C91.9174 76.8383 91.2086 78.8945 89.5018 79.723L79.6099 84.5043C79.1807 83.9353 78.6018 83.4363 77.8731 83.007C76.1562 81.9889 74.1298 81.6994 74.04 81.6894Z" fill="white"/>
<path d="M4.76687 72.4563L11.8439 71.0289C12.6424 70.8692 13.421 71.3882 13.5807 72.1868L17.4836 91.5015C17.6433 92.3 17.1243 93.0786 16.3257 93.2383L9.24867 94.6657C8.45013 94.8254 7.67156 94.3063 7.51185 93.5078L3.60895 74.1931C3.44924 73.4045 3.96832 72.6259 4.76687 72.4563Z" fill="#3D82C3"/>
<path d="M21.6165 72.3865C27.376 71.5979 33.5148 70.3103 40.0728 73.2948C42.0691 74.2032 44.4547 75.7603 46.6408 77.2975C49.2759 79.1541 52.3204 80.332 55.5146 80.7113L73.6614 82.7576C73.6614 82.7576 75.4981 83.0071 77.0153 83.9055C77.6043 84.2548 78.1531 84.704 78.5225 85.2829C79.8301 87.3192 78.2829 89.8945 78.2829 89.8945C78.2829 89.8945 77.9835 90.2239 76.9154 90.2139C75.8474 90.194 69.2195 89.4254 69.2195 89.4254V89.4154L53.3086 88.2775C54.187 88.7067 55.0953 89.056 56.0635 89.1658L56.5626 89.2257L68.3311 90.4435C64.6578 93.0388 49.0064 97.2411 45.9919 97.0115C41.9293 96.7121 28.9231 89.0061 24.8206 89.0161C22.2054 89.0161 19.1309 90.3737 19.1309 90.3737L15.4277 72.8057C15.4277 72.7958 19.8497 72.626 21.6165 72.3865Z" fill="white"/>
<path d="M45.6717 25.9628L45.002 29.5586L49.9901 30.4876L50.6598 26.8918L45.6717 25.9628Z" fill="white"/>
<path d="M67.1283 29.9359L66.459 33.5317L71.4471 34.4603L72.1164 30.8644L67.1283 29.9359Z" fill="white"/>
<path d="M53.4219 71.3249L59.4514 38.3275L59.9901 38.4318L53.9605 71.4292L53.4219 71.3249Z" fill="white"/>
<path d="M73.3105 24.5048L76.7597 25.1477L76.4035 27.0243L73.797 28.1364L73.3105 24.5048Z" fill="#333333"/>
<path d="M43.9007 30.0738L42.971 29.9001L42.5801 31.9852L43.5097 32.159L43.2491 33.5491L44.7608 33.8271L44.0049 37.8845L49.6869 38.9444L50.4688 34.7654L53.0666 35.252C53.0318 35.3649 52.9797 35.6255 52.9362 35.808C52.6669 37.0243 52.5019 38.2233 52.6582 38.9183C52.7886 39.5004 54.1787 40.4388 54.1787 40.4388L53.7964 42.3328L52.6322 43.5578L53.362 45.4344L52.2065 47.3371L52.7625 50.0739L51.772 51.7072L52.276 53.8184L51.8068 56.3206L50.2255 59.4049L50.5731 62.0547L49.3481 63.6273L50.2864 65.1824L48.8442 69.0052L50.7121 75L54.9432 72.8019L61.5635 36.8332L64.3872 37.3545L63.6052 41.5334L69.2873 42.5934L70.0431 38.5361L71.5549 38.8141L71.8155 37.424L72.7451 37.5977L73.136 35.5126L72.2065 35.3388L73.1534 30.265C73.4923 28.4318 70.9901 18.7185 70.9901 18.7185C67.4454 17.8236 66.3681 17.5196 61.607 16.6334C56.7938 15.7385 54.2829 15.2867 51.0075 15C51.0075 15 45.1778 23.1668 44.839 25L43.9007 30.0738ZM53.4228 71.3249L59.4523 38.3275L59.9824 38.4318L53.9528 71.4292L53.4228 71.3249ZM71.9545 26.5117C67.6452 25.4952 65.3689 24.9653 60.2429 24.0183C55.0996 23.0626 51.7373 22.5413 47.3672 21.9331C47.7321 21.1946 48.3663 20.0304 49.2786 18.4405C49.852 17.5717 51.4332 15.9557 51.4332 15.9557C54.1004 16.2163 56.5766 16.616 61.4506 17.5196C66.3072 18.4231 67.5844 18.8923 70.2864 19.4657C70.2864 19.4657 70.8858 20.6386 71.4071 22.5586C71.6156 23.5056 71.7981 24.8176 71.9545 26.5117ZM50.6253 26.8853L49.9563 30.4822L44.9693 29.5526L45.6383 25.9557L50.6253 26.8853ZM71.4158 34.4787L66.4289 33.5491L67.0979 29.9522L72.0848 30.8819L71.4158 34.4787ZM72.7103 35.9209L72.4758 37.1981L43.0058 31.7072L43.2404 30.4301L72.7103 35.9209Z" fill="#333333"/>
<path d="M46.8024 19.5699L45.03 22.7758L42.9883 20.8036L43.3358 18.927L46.8024 19.5699Z" fill="#333333"/>
<path d="M12.0001 34C18.6275 34 24 28.6274 24 22C24 15.3726 18.6275 10 12.0001 10C5.37266 10 0 15.3726 0 22C0 28.6274 5.37266 34 12.0001 34Z" fill="#3D82C3"/>
<path d="M10.666 21.2646H11.6777C12.1882 21.2601 12.5915 21.1279 12.8877 20.8682C13.1885 20.6084 13.3389 20.2324 13.3389 19.7402C13.3389 19.2663 13.2135 18.8994 12.9629 18.6396C12.7168 18.3753 12.3385 18.2432 11.8281 18.2432C11.3815 18.2432 11.0146 18.373 10.7275 18.6328C10.4404 18.888 10.2969 19.223 10.2969 19.6377H8.63574C8.63574 19.1273 8.77018 18.6624 9.03906 18.2432C9.3125 17.8239 9.69076 17.498 10.1738 17.2656C10.6615 17.0286 11.2061 16.9102 11.8076 16.9102C12.8011 16.9102 13.5804 17.1608 14.1455 17.6621C14.7152 18.1589 15 18.8516 15 19.7402C15 20.1868 14.8564 20.6084 14.5693 21.0049C14.2868 21.3968 13.9199 21.693 13.4688 21.8936C14.0156 22.0804 14.4303 22.3743 14.7129 22.7754C15 23.1764 15.1436 23.6549 15.1436 24.2109C15.1436 25.1042 14.8359 25.8151 14.2207 26.3438C13.61 26.8724 12.8057 27.1367 11.8076 27.1367C10.8506 27.1367 10.0667 26.8815 9.45605 26.3711C8.84538 25.8607 8.54004 25.1816 8.54004 24.334H10.2012C10.2012 24.7715 10.347 25.127 10.6387 25.4004C10.9349 25.6738 11.3314 25.8105 11.8281 25.8105C12.3431 25.8105 12.7487 25.6738 13.0449 25.4004C13.3411 25.127 13.4893 24.7305 13.4893 24.2109C13.4893 23.6868 13.3343 23.2835 13.0244 23.001C12.7145 22.7184 12.2542 22.5771 11.6436 22.5771H10.666V21.2646Z" fill="white"/>
</svg>
