<svg width="110" height="110" viewBox="0 0 110 110" fill="none" xmlns="http://www.w3.org/2000/svg">
<path d="M55 110C85.3756 110 110 85.3757 110 55C110 24.6243 85.3756 0 55 0C24.6244 0 0 24.6243 0 55C0 85.3757 24.6244 110 55 110Z" fill="#FFCB31"/>
<path d="M80.4023 31.6031L76.0605 36.1935C76.176 36.3089 76.2914 36.4154 76.4068 36.5309L80.8994 32.0915C80.7396 31.9228 80.5709 31.763 80.4023 31.6031Z" fill="white"/>
<path d="M76.7807 28.4868L73.0605 33.5921C73.1937 33.6897 73.1227 33.6365 73.2559 33.7341L77.1447 28.7621C76.9583 28.62 76.9671 28.6289 76.7807 28.4868Z" fill="white"/>
<path d="M78.9815 39.381L83.9891 35.5365C83.7583 35.2435 83.5186 34.9505 83.2789 34.6664L78.3867 38.6618C78.5909 38.8927 78.7862 39.1413 78.9815 39.381Z" fill="white"/>
<path d="M85.4375 54.6878L91.7059 53.9598C91.6171 53.214 91.5017 52.477 91.3596 51.7401L85.1445 52.8411C85.2688 53.4448 85.3576 54.0663 85.4375 54.6878Z" fill="white"/>
<path d="M84.8682 51.5004L91.0212 50.1243C90.8792 49.5116 90.7193 48.9079 90.5506 48.313L84.4688 49.9911C84.6197 50.4883 84.7528 50.9944 84.8682 51.5004Z" fill="white"/>
<path d="M71.6575 84.2274C64.7854 88.6756 56.5814 90.185 48.5728 88.4714C40.5642 86.7578 33.701 82.0254 29.2527 75.1533C24.8045 68.2812 23.2952 60.0773 25.0088 52.0687C26.2074 46.4662 28.8799 41.4319 32.7332 37.3832C34.3935 35.643 36.2581 34.0804 38.3269 32.7485C43.5298 29.3835 49.4962 27.6966 55.5604 27.8209L54.1487 34.4266L64.8209 29.4368L69.0472 27.4568L65.1316 22.9198L58.304 15L56.9011 21.5436C53.9444 21.3838 50.979 21.588 48.049 22.1474C47.0812 22.3338 46.1135 22.5558 45.1723 22.8221C41.5409 23.8254 38.096 25.3703 34.8997 27.4391C30.8688 30.0494 27.4327 33.3612 24.6892 37.2767C21.848 41.3343 19.8768 45.8624 18.8291 50.7457C17.7814 55.629 17.7282 60.5656 18.6605 65.4311C19.5572 70.128 21.3418 74.5496 23.9522 78.5805C26.5625 82.6114 29.8743 86.0475 33.7899 88.791C37.8474 91.6322 42.3755 93.6033 47.2588 94.651C52.1421 95.6987 57.0787 95.7519 61.9442 94.8197C66.6411 93.9229 71.0626 92.1383 75.0935 89.528C79.1245 86.9176 82.5605 83.6058 85.3041 79.6903C88.0476 75.7659 89.9832 71.3976 91.0487 66.7008L84.8957 65.289C83.111 73.1378 78.4231 79.8502 71.6575 84.2274Z" fill="white"/>
<path d="M80.7395 41.8226C80.846 41.9824 80.9436 42.1422 81.0413 42.3021L86.4573 39.0524C86.3152 38.8305 86.1821 38.6085 86.04 38.3865C85.9424 38.2356 85.8447 38.0847 85.7382 37.9337L80.4375 41.3698C80.544 41.5207 80.6418 41.6717 80.7395 41.8226Z" fill="white"/>
<path d="M83.5195 47.2031C83.6793 47.6115 83.8302 48.0199 83.9722 48.4284L89.9654 46.4307C89.7967 45.9334 89.6102 45.4451 89.4149 44.9568L83.5195 47.2031Z" fill="white"/>
<path d="M82.7024 45.3385L88.4469 42.7104C88.2516 42.2931 88.0474 41.8847 87.8343 41.4763L82.1875 44.3175C82.3651 44.6549 82.5337 44.9923 82.7024 45.3385Z" fill="white"/>
<path d="M85.5176 61.4268L91.8037 62.0572C91.9102 60.9917 91.9723 59.9263 91.9812 58.8608L85.6684 58.7632C85.6596 59.6599 85.6064 60.5478 85.5176 61.4268Z" fill="white"/>
<path d="M85.6673 57.9996L91.98 57.9375C91.9712 57.0318 91.918 56.1262 91.8381 55.2206L85.543 55.7356C85.614 56.4903 85.6584 57.2449 85.6673 57.9996Z" fill="white"/>
<path d="M84.9836 64.9072C84.9747 64.9427 84.9659 64.9782 84.957 65.0137L91.1277 66.3633C91.1366 66.3189 91.1455 66.2745 91.1632 66.2212C91.4207 65.0315 91.616 63.8417 91.7492 62.652L85.472 61.924C85.3565 62.9184 85.1878 63.9128 84.9836 64.9072Z" fill="white"/>
<path d="M47.4931 48.8128H42.4434V41.1923H56.4908V75.8059H47.4931V48.8128Z" fill="#3D82C3"/>
<path d="M62.5907 43.9285H65.196V41.2495H67.0004V48.1909H65.196V45.3278H62.5907V48.1909H60.7863V41.2495H62.5907V43.9285Z" fill="#333333"/>
<path d="M61.938 54.4868C61.938 54.763 61.9902 55.0177 62.0945 55.2509C62.1989 55.4841 62.34 55.6867 62.518 55.8585C62.696 56.0303 62.9016 56.1654 63.1348 56.2636C63.3742 56.3556 63.6258 56.4017 63.8897 56.4017C64.1536 56.4017 64.4022 56.3556 64.6354 56.2636C64.8748 56.1654 65.0834 56.0303 65.2614 55.8585C65.4455 55.6867 65.5898 55.4841 65.6941 55.2509C65.7984 55.0177 65.8506 54.763 65.8506 54.4868C65.8506 54.2106 65.7984 53.9559 65.6941 53.7227C65.5898 53.4895 65.4455 53.2869 65.2614 53.1151C65.0834 52.9432 64.8748 52.8113 64.6354 52.7192C64.4022 52.621 64.1536 52.5719 63.8897 52.5719C63.6258 52.5719 63.3742 52.621 63.1348 52.7192C62.9016 52.8113 62.696 52.9432 62.518 53.1151C62.34 53.2869 62.1989 53.4895 62.0945 53.7227C61.9902 53.9559 61.938 54.2106 61.938 54.4868ZM60.0508 54.4868C60.0508 53.9713 60.1459 53.4925 60.3362 53.0506C60.5264 52.6026 60.7903 52.2129 61.1279 51.8815C61.4654 51.5501 61.8674 51.2923 62.3339 51.1082C62.8065 50.9179 63.3251 50.8228 63.8897 50.8228C64.4482 50.8228 64.9638 50.9179 65.4363 51.1082C65.9089 51.2923 66.314 51.5501 66.6515 51.8815C66.9952 52.2129 67.2622 52.6026 67.4525 53.0506C67.6427 53.4925 67.7379 53.9713 67.7379 54.4868C67.7379 55.0023 67.6427 55.4841 67.4525 55.9321C67.2622 56.374 66.9952 56.7607 66.6515 57.0921C66.314 57.4235 65.9089 57.6844 65.4363 57.8746C64.9638 58.0588 64.4482 58.1508 63.8897 58.1508C63.3251 58.1508 62.8065 58.0588 62.3339 57.8746C61.8674 57.6844 61.4654 57.4235 61.1279 57.0921C60.7903 56.7607 60.5264 56.374 60.3362 55.9321C60.1459 55.4841 60.0508 55.0023 60.0508 54.4868Z" fill="#333333"/>
<path d="M62.6716 59.8948V63.6693C62.6716 63.8718 62.6778 64.0805 62.69 64.2953C62.7085 64.504 62.7545 64.6943 62.8281 64.8661C62.9079 65.038 63.0307 65.1791 63.1964 65.2896C63.3621 65.3939 63.5953 65.4461 63.896 65.4461C64.1968 65.4461 64.4269 65.3939 64.5865 65.2896C64.7522 65.1791 64.875 65.038 64.9547 64.8661C65.0345 64.6943 65.0806 64.504 65.0928 64.2953C65.1112 64.0805 65.1205 63.8718 65.1205 63.6693V59.8948H66.9156V63.9179C66.9156 64.9981 66.6671 65.7867 66.1699 66.2838C65.679 66.781 64.921 67.0295 63.896 67.0295C62.8711 67.0295 62.1101 66.781 61.6129 66.2838C61.1158 65.7867 60.8672 64.9981 60.8672 63.9179V59.8948H62.6716Z" fill="#333333"/>
<path d="M63.1616 71.876H63.5022C63.8582 71.876 64.1313 71.8023 64.3216 71.655C64.5118 71.5077 64.607 71.296 64.607 71.0198C64.607 70.7436 64.5118 70.5319 64.3216 70.3846C64.1313 70.2373 63.8582 70.1637 63.5022 70.1637H63.1616V71.876ZM67.1294 75.7149H64.8831L63.1616 73.0452V75.7149H61.3572V68.7735H64.1651C64.5517 68.7735 64.8893 68.8318 65.1777 68.9485C65.4662 69.0589 65.7025 69.2124 65.8866 69.4088C66.0769 69.6052 66.218 69.8322 66.3101 70.09C66.4083 70.3478 66.4574 70.624 66.4574 70.9186C66.4574 71.4464 66.3285 71.876 66.0707 72.2074C65.8191 72.5327 65.4447 72.7536 64.9476 72.8702L67.1294 75.7149Z" fill="#333333"/>
<path d="M12.0001 34C18.6275 34 24 28.6274 24 22C24 15.3726 18.6275 10 12.0001 10C5.37266 10 0 15.3726 0 22C0 28.6274 5.37266 34 12.0001 34Z" fill="#3D82C3"/>
<path d="M14.3643 23.4521H15.6016V24.7852H14.3643V27H12.7031V24.7852H8.40332L8.35547 23.7734L12.6484 17.0469H14.3643V23.4521ZM10.0986 23.4521H12.7031V19.2959L12.5801 19.5146L10.0986 23.4521Z" fill="white"/>
</svg>
