<svg width="660" height="340" viewBox="0 0 660 340" fill="none" xmlns="http://www.w3.org/2000/svg">
<path d="M405.598 339.289C458.814 339.289 501.954 333.289 501.954 325.888C501.954 318.487 458.814 312.488 405.598 312.488C352.382 312.488 309.242 318.487 309.242 325.888C309.242 333.289 352.382 339.289 405.598 339.289Z" fill="#B5CFF1"/>
<path d="M562.623 339.289C615.839 339.289 658.979 333.289 658.979 325.888C658.979 318.487 615.839 312.488 562.623 312.488C509.408 312.488 466.268 318.487 466.268 325.888C466.268 333.289 509.408 339.289 562.623 339.289Z" fill="#B5CFF1"/>
<path d="M14.4473 255.514C14.4473 255.514 112.005 278.497 158.773 279.698C207.79 280.957 365.706 279.698 365.706 279.698C395.041 279.456 383.897 270.718 381.456 270.081L255.462 230.628L47.9412 220.709L14.4473 255.514Z" fill="#B5CFF1"/>
<path d="M307.88 46.2676H296.014V242.571H307.88V46.2676Z" fill="url(#paint0_linear_6591_67481)"/>
<path d="M331.253 270.081C352.093 270.081 368.988 255.935 368.988 238.486C368.988 221.036 352.093 206.891 331.253 206.891C310.412 206.891 293.518 221.036 293.518 238.486C293.518 255.935 310.412 270.081 331.253 270.081Z" fill="#3D3D3D"/>
<path d="M331.252 206.891C328.323 206.891 325.401 207.179 322.529 207.749C339.162 211.047 351.541 223.552 351.541 238.486C351.541 253.42 347.805 270.081 322.529 269.223C325.401 269.793 328.323 270.08 331.252 270.081C352.093 270.081 368.988 255.933 368.988 238.486C368.988 221.039 352.093 206.891 331.252 206.891Z" fill="#6C5548"/>
<path d="M34.6812 185.905C27.3594 185.905 21.4216 201.485 21.4216 220.709C21.4216 221.156 21.428 221.61 21.4344 222.057L10.4453 230.564L14.4495 255.517H34.6812C42.003 255.517 47.9407 239.936 47.9407 220.711C47.9407 201.487 42.003 185.905 34.6812 185.905Z" fill="#3D3D3D"/>
<path d="M13.0778 149.214C13.0778 149.214 48.1856 97.3416 90.3154 94.6947C132.445 92.0477 214.95 92.5313 237.771 100.752C260.592 108.973 311.012 142.291 311.012 142.291C311.012 142.291 356.883 159.167 362.936 168.685C362.936 168.685 377.765 169.551 375.241 185.341L377.437 194.104C377.437 194.104 387.128 201.715 387.128 212.962V245.556C387.128 245.556 386.834 253.633 369.866 253.633H197.396C197.396 253.633 176.55 255.003 175.236 241.372C173.922 227.742 169.531 185.338 148.247 182.094C148.247 182.094 135.519 177.767 128.059 201.782L126.304 245.052L30.851 235.324C30.851 235.324 26.2465 182.532 13.0778 180.585C13.0778 180.585 1.66738 178.422 3.64177 204.816L6.49438 221.042C6.49438 221.042 -2.28232 214.335 0.570288 191.619C3.4229 168.902 5.61708 165.658 13.0778 149.214Z" fill="url(#paint1_linear_6591_67481)"/>
<path d="M83.4397 103.636L70.5652 143.156L37.2121 139.695C37.2121 139.695 30.4825 140.272 32.5304 133.926C34.5784 127.58 60.6197 105.944 83.4397 103.636Z" fill="#BE6302"/>
<path d="M92.2178 102.483L81.6855 144.883L128.497 149.499C128.497 149.499 135.226 150.941 139.322 147.48C143.418 144.019 120.886 112.864 110.504 105.652C110.504 105.656 104.14 100.894 92.2178 102.483Z" fill="#BE6302"/>
<path d="M122.059 100.175C122.059 100.175 215.681 97.8671 244.936 105.656L306.101 142.003C306.101 142.003 187.443 141.782 162.432 140.56C162.432 140.56 152.777 142.868 145.17 131.041C137.563 119.214 122.059 100.175 122.059 100.175Z" fill="url(#paint2_linear_6591_67481)"/>
<path d="M178.526 163.061C178.526 163.061 230.603 176.045 249.621 176.045L263.078 187.864C263.078 187.864 260.738 193.634 248.743 194.5C236.747 195.366 196.72 191.326 184.843 176.903C172.967 162.48 178.526 163.061 178.526 163.061Z" fill="#FFF7DD"/>
<path d="M357.869 177.195C357.869 177.195 365.33 176.618 364.305 171.859C364.305 171.859 375.862 173.301 372.79 188.445C372.79 188.445 369.133 195.08 363.574 191.907L360.214 189.888L357.869 177.195Z" fill="#FFF7DD"/>
<path d="M259.273 177.195C259.273 177.195 323.932 183.83 354.066 177.195V189.311L324.517 194.614L272.732 189.022L259.273 177.195Z" fill="url(#paint3_linear_6591_67481)"/>
<path d="M29.1693 152.82C29.1693 152.82 25.8045 154.55 29.1693 157.436H37.2149C37.2149 157.436 44.3823 153.974 29.1693 152.82Z" fill="#BE6302"/>
<path d="M72.4732 159.021L84.4612 162.339C84.4612 162.339 87.2403 165.368 83.4368 165.652C79.6333 165.936 72.9019 165.652 72.9019 165.652C72.9019 165.652 67.2057 161.906 72.4732 159.021Z" fill="#BE6302"/>
<path d="M14.4491 255.513C21.7711 255.513 27.7068 239.931 27.7068 220.709C27.7068 201.487 21.7711 185.905 14.4491 185.905C7.12708 185.905 1.19141 201.487 1.19141 220.709C1.19141 239.931 7.12708 255.513 14.4491 255.513Z" fill="#6C5548"/>
<path d="M14.4496 246.78C19.9339 246.78 24.3797 235.107 24.3797 220.709C24.3797 206.31 19.9339 194.638 14.4496 194.638C8.96539 194.638 4.51953 206.31 4.51953 220.709C4.51953 235.107 8.96539 246.78 14.4496 246.78Z" fill="url(#paint4_linear_6591_67481)"/>
<path d="M121.581 116.626L91.8965 145.894L106.438 147.327L128.567 125.508C126.329 122.454 123.945 119.416 121.581 116.626Z" fill="url(#paint5_linear_6591_67481)"/>
<path d="M114.584 148.131L123.644 149.027L136.034 136.811C134.936 134.904 133.65 132.852 132.231 130.734L114.584 148.131Z" fill="url(#paint6_linear_6591_67481)"/>
<path d="M65.56 108.713L34.5 139.338C35.3749 139.624 36.2968 139.746 37.2173 139.696L43.5746 140.356L80.3743 104.07C75.2619 105.013 70.2865 106.573 65.56 108.713Z" fill="url(#paint7_linear_6591_67481)"/>
<path d="M266.364 220.938L232.541 219.321C227.402 219.075 223.034 222.983 222.785 228.049C222.536 233.116 226.5 237.422 231.638 237.668L265.462 239.285C270.601 239.53 274.969 235.622 275.218 230.556C275.467 225.49 271.503 221.184 266.364 220.938Z" fill="url(#paint8_linear_6591_67481)"/>
<path d="M387.129 220.141L370.261 221.285C369.035 221.36 367.835 221.673 366.731 222.206C365.628 222.74 364.642 223.484 363.832 224.394C363.021 225.305 362.401 226.365 362.008 227.513C361.614 228.661 361.455 229.875 361.54 231.084C361.624 232.293 361.95 233.473 362.499 234.557C363.049 235.641 363.81 236.608 364.74 237.4C365.669 238.193 366.749 238.796 367.916 239.176C369.084 239.555 370.315 239.703 371.541 239.611L387.129 238.553V220.141Z" fill="url(#paint9_linear_6591_67481)"/>
<path d="M197.396 253.639C197.396 253.639 176.55 255.009 175.236 241.379C174.122 229.842 170.805 197.694 156.906 186.122C134.593 188.373 117.137 208.355 117.137 232.68C117.137 258.514 136.823 279.456 161.107 279.456C178.306 279.456 193.189 268.946 200.415 253.639H197.396Z" fill="#6C5548"/>
<path d="M148.184 265.871C160.774 265.871 170.98 251.139 170.98 232.967C170.98 214.795 160.774 200.064 148.184 200.064C135.595 200.064 125.389 214.795 125.389 232.967C125.389 251.139 135.595 265.871 148.184 265.871Z" fill="url(#paint10_linear_6591_67481)"/>
<path d="M158.034 187.131C157.671 186.786 157.3 186.454 156.922 186.137C154.922 186.337 152.938 186.68 150.988 187.164C153.327 186.88 155.692 186.869 158.034 187.131Z" fill="#3D3D3D"/>
<path d="M197.396 253.639C193.421 253.811 189.444 253.354 185.616 252.286C180.268 267.722 168.542 280.385 150.988 278.197C154.294 279.031 157.693 279.454 161.105 279.456C178.304 279.456 193.187 268.945 200.413 253.639H197.396Z" fill="#3D3D3D"/>
<path d="M146.906 226.578C147.841 226.578 148.599 220.941 148.599 213.988C148.599 207.034 147.841 201.397 146.906 201.397C145.971 201.397 145.213 207.034 145.213 213.988C145.213 220.941 145.971 226.578 146.906 226.578Z" fill="#6C5548"/>
<path d="M143.421 230.136C144.342 229.249 142.188 225.6 138.609 221.984C135.03 218.368 131.382 216.156 130.461 217.042C129.54 217.928 131.694 221.578 135.273 225.194C138.852 228.809 142.5 231.022 143.421 230.136Z" fill="#6C5548"/>
<path d="M138.687 244.176C142.266 240.56 144.42 236.911 143.499 236.024C142.578 235.138 138.93 237.351 135.351 240.966C131.772 244.582 129.618 248.231 130.539 249.118C131.46 250.004 135.108 247.792 138.687 244.176Z" fill="#6C5548"/>
<path d="M147.066 264.538C148.001 264.538 148.759 258.901 148.759 251.948C148.759 244.994 148.001 239.357 147.066 239.357C146.131 239.357 145.373 244.994 145.373 251.948C145.373 258.901 146.131 264.538 147.066 264.538Z" fill="#6C5548"/>
<path d="M163.509 248.89C164.43 248.003 162.276 244.354 158.697 240.738C155.118 237.122 151.47 234.91 150.549 235.796C149.628 236.682 151.782 240.332 155.361 243.948C158.94 247.563 162.588 249.776 163.509 248.89Z" fill="#6C5548"/>
<path d="M158.619 224.97C162.197 221.354 164.352 217.705 163.431 216.818C162.51 215.932 158.862 218.144 155.283 221.76C151.704 225.376 149.549 229.025 150.471 229.912C151.392 230.798 155.04 228.586 158.619 224.97Z" fill="#6C5548"/>
<path d="M14.4166 216.122C14.8063 216.122 15.1223 211.95 15.1223 206.803C15.1223 201.656 14.8063 197.484 14.4166 197.484C14.0269 197.484 13.7109 201.656 13.7109 206.803C13.7109 211.95 14.0269 216.122 14.4166 216.122Z" fill="#6C5548"/>
<path d="M12.8483 218.871C13.4275 218.577 12.7403 216.119 11.3135 213.379C9.88673 210.64 8.26059 208.657 7.68145 208.95C7.1023 209.243 7.78946 211.702 9.21625 214.441C10.643 217.181 12.2692 219.164 12.8483 218.871Z" fill="#6C5548"/>
<path d="M11.3448 228.491C12.7716 225.751 13.4587 223.293 12.8796 223C12.3004 222.706 10.6743 224.689 9.2475 227.429C7.8207 230.168 7.13356 232.627 7.7127 232.92C8.29185 233.213 9.91798 231.23 11.3448 228.491Z" fill="#6C5548"/>
<path d="M14.4811 244.217C14.8708 244.217 15.1867 240.045 15.1867 234.898C15.1867 229.752 14.8708 225.579 14.4811 225.579C14.0913 225.579 13.7754 229.752 13.7754 234.898C13.7754 240.045 14.0913 244.217 14.4811 244.217Z" fill="#6C5548"/>
<path d="M21.2194 232.75C21.7986 232.457 21.1114 229.998 19.6846 227.259C18.2578 224.52 16.6317 222.537 16.0525 222.83C15.4734 223.123 16.1606 225.582 17.5873 228.321C19.0141 231.06 20.6403 233.043 21.2194 232.75Z" fill="#6C5548"/>
<path d="M19.6475 214.275C21.0743 211.536 21.7614 209.077 21.1823 208.784C20.6032 208.491 18.977 210.474 17.5502 213.213C16.1234 215.953 15.4363 218.411 16.0154 218.705C16.5946 218.998 18.2207 217.015 19.6475 214.275Z" fill="#6C5548"/>
<path d="M147.153 235.82C148.136 235.82 148.933 234.658 148.933 233.225C148.933 231.791 148.136 230.629 147.153 230.629C146.17 230.629 145.373 231.791 145.373 233.225C145.373 234.658 146.17 235.82 147.153 235.82Z" fill="#6C5548"/>
<path d="M273.807 138.116H170.982L143.689 104.07L232.51 106.336L273.807 138.116Z" fill="url(#paint11_linear_6591_67481)"/>
<path d="M183.727 123.188C183.207 122.653 182.564 122.249 181.852 122.011C180.688 121.628 179.498 121.329 178.29 121.115C176.698 120.804 175.359 120.505 174.273 120.22C170.754 119.301 168.338 118.087 167.024 116.578C166.749 116.344 166.539 116.043 166.417 115.705C166.295 115.368 166.264 115.004 166.327 114.651C166.508 114.11 167.067 113.699 168.004 113.416C169.192 113.108 170.421 112.981 171.648 113.041C173.122 113.072 174.588 113.262 176.02 113.61C177.417 113.937 178.769 114.429 180.047 115.075C181.164 115.623 182.18 116.352 183.053 117.231L178.121 117.151C177.584 116.587 176.923 116.152 176.189 115.88C175.396 115.574 174.553 115.412 173.702 115.4C173.095 115.323 172.479 115.442 171.946 115.741C171.658 115.984 171.689 116.3 172.037 116.691C172.52 117.136 173.103 117.461 173.738 117.64C174.986 118.035 176.261 118.343 177.553 118.561C179.269 118.885 180.752 119.229 182.003 119.592C184.55 120.198 186.891 121.451 188.793 123.228C189.988 124.477 190.239 125.466 189.526 126.177C188.813 126.888 187.207 127.252 184.724 127.232C182.914 127.21 181.114 126.979 179.36 126.542C177.695 126.153 176.089 125.551 174.583 124.751C173.347 124.105 172.238 123.247 171.307 122.218L176.478 122.28C177.138 123.026 177.964 123.61 178.891 123.986C179.975 124.388 181.125 124.585 182.282 124.568C182.865 124.643 183.456 124.52 183.956 124.217C184.217 123.976 184.141 123.633 183.727 123.188Z" fill="white"/>
<path d="M206.72 120.549C207.879 121.523 208.804 122.739 209.427 124.109C209.639 124.517 209.699 124.987 209.594 125.434C209.49 125.881 209.229 126.278 208.857 126.554C207.701 127.227 206.359 127.522 205.023 127.398C203.112 127.366 201.216 127.064 199.392 126.502C197.421 125.912 195.53 125.088 193.762 124.047C192.071 123.072 190.514 121.886 189.13 120.52L188.38 119.748C187.334 118.805 186.548 117.617 186.094 116.293C185.957 115.884 185.97 115.44 186.131 115.039C186.292 114.638 186.591 114.306 186.975 114.1C188.138 113.533 189.436 113.294 190.728 113.407C192.508 113.458 194.273 113.744 195.975 114.258C197.848 114.809 199.651 115.569 201.349 116.524C203.052 117.467 204.633 118.609 206.057 119.927L206.72 120.549ZM201.191 119.912C199.979 118.705 198.589 117.685 197.069 116.884C195.877 116.244 194.552 115.883 193.196 115.829C190.783 115.787 190.692 116.952 192.972 119.373L193.958 120.372C195.173 121.623 196.572 122.686 198.108 123.527C199.372 124.237 200.792 124.633 202.246 124.681C203.506 124.694 204.099 124.338 204.022 123.614C203.946 122.897 203.214 121.868 201.843 120.537L201.191 119.912Z" fill="white"/>
<path d="M219.445 124.709L227.848 124.798L230.871 127.425L217.441 127.31L202.816 113.811L207.464 113.901L219.445 124.709Z" fill="white"/>
<path d="M233.872 127.451L218.305 114.108L224.358 114.224C226.169 114.28 227.967 114.558 229.709 115.053C231.681 115.594 233.595 116.328 235.42 117.242C237.221 118.124 238.921 119.194 240.492 120.433L241.247 121.039C242.469 121.923 243.492 123.047 244.252 124.34C244.504 124.693 244.616 125.124 244.567 125.554C244.518 125.983 244.312 126.379 243.986 126.668C242.928 127.338 241.671 127.634 240.42 127.507L233.872 127.451ZM225.623 116.526L235.568 124.879L237.212 124.897C238.564 124.911 239.191 124.583 239.091 123.912C238.992 123.249 238.144 122.264 236.561 120.968L235.863 120.395C234.498 119.243 232.98 118.282 231.349 117.54C230.033 116.937 228.607 116.602 227.157 116.555L225.623 116.526Z" fill="white"/>
<path d="M154.68 101.203C160.429 94.5126 163.459 85.9587 163.184 77.194C162.91 68.4293 159.351 60.0759 153.194 53.7477C147.038 47.4194 138.721 43.5654 129.851 42.9301C120.981 42.2949 112.186 44.9235 105.167 50.3082C98.1479 55.6929 93.4018 63.4515 91.8457 72.0851C90.2897 80.7187 92.0341 89.6145 96.742 97.054C101.45 104.493 108.787 109.948 117.336 112.365C125.885 114.782 135.04 113.989 143.03 110.14L155.818 115.376C156.131 115.504 156.474 115.542 156.808 115.486C157.142 115.43 157.453 115.282 157.706 115.06C157.958 114.837 158.142 114.548 158.235 114.227C158.329 113.906 158.328 113.565 158.234 113.244L154.68 101.203Z" fill="url(#paint12_linear_6591_67481)"/>
<path d="M127.215 110.228C145.149 110.228 159.687 95.8939 159.687 78.2121C159.687 60.5302 145.149 46.1963 127.215 46.1963C109.282 46.1963 94.7441 60.5302 94.7441 78.2121C94.7441 95.8939 109.282 110.228 127.215 110.228Z" fill="white"/>
<path d="M132.451 77.6645C132.378 78.1462 132.453 78.6387 132.667 79.0777C132.881 79.5168 133.224 79.8821 133.652 80.1261L133.816 80.2156C134.188 80.4277 134.609 80.5395 135.039 80.5398C135.256 80.5397 135.472 80.5114 135.682 80.4556C135.994 80.3742 136.287 80.2325 136.544 80.0387C136.801 79.8448 137.016 79.6028 137.177 79.3264L142.027 71.0427C142.352 70.4853 142.44 69.8236 142.271 69.2025C142.102 68.5815 141.691 68.0518 141.126 67.7295L140.963 67.64C140.534 67.3972 140.042 67.287 139.549 67.3236C139.057 67.3601 138.587 67.5418 138.2 67.845L121.301 58.2253C121.376 57.7435 121.302 57.2507 121.088 56.8114C120.874 56.3722 120.53 56.0069 120.102 55.7637L119.938 55.6741C119.373 55.3538 118.702 55.2675 118.072 55.434C117.442 55.6005 116.905 56.0062 116.578 56.5624L111.727 64.8462C111.403 65.4038 111.316 66.0654 111.485 66.6862C111.654 67.3071 112.065 67.8367 112.629 68.1593L112.794 68.2489C113.165 68.4609 113.587 68.5727 114.016 68.573C114.233 68.5729 114.449 68.5446 114.659 68.4889C114.985 68.4022 115.29 68.2497 115.554 68.0411L121.741 71.5638L109.098 93.1539C108.676 93.7587 108.512 94.5027 108.64 95.2257C108.769 95.9488 109.18 96.5933 109.786 97.0205C110.127 97.2125 110.513 97.3123 110.906 97.3097C111.247 97.3077 111.584 97.2405 111.899 97.1118C112.587 96.8218 113.158 96.3164 113.525 95.6737L126.168 74.0836L132.451 77.6645ZM112.047 94.8365C111.869 95.1561 111.59 95.4097 111.252 95.5591C111.157 95.6051 111.052 95.6297 110.945 95.6313C110.838 95.6328 110.733 95.6112 110.636 95.568C110.288 95.3702 110.182 94.6556 110.572 93.9965L123.073 72.6491L124.548 73.489L112.047 94.8365ZM140.11 69.0933L140.273 69.1828C140.446 69.2833 140.571 69.4469 140.623 69.638C140.674 69.8291 140.646 70.0324 140.546 70.2036L135.696 78.4865C135.647 78.5716 135.58 78.646 135.501 78.7056C135.422 78.7651 135.332 78.8084 135.236 78.8331C135.042 78.8848 134.836 78.8587 134.662 78.7605L134.497 78.671C134.325 78.5707 134.199 78.4071 134.148 78.2159C134.097 78.0247 134.125 77.8214 134.225 77.6502L139.076 69.3673C139.176 69.1959 139.341 69.0708 139.535 69.0194C139.729 68.9681 139.936 68.9946 140.11 69.0933ZM113.643 66.8L113.478 66.7105C113.305 66.6105 113.18 66.4471 113.129 66.256C113.078 66.0649 113.105 65.8616 113.206 65.6906L118.057 57.4068C118.123 57.2932 118.219 57.1989 118.335 57.1333C118.45 57.0678 118.581 57.0333 118.714 57.0334C118.846 57.0334 118.976 57.068 119.091 57.1337L119.254 57.2232C119.428 57.323 119.554 57.4862 119.606 57.6774C119.658 57.8686 119.631 58.0723 119.531 58.2441L114.681 66.5278C114.579 66.6975 114.413 66.8209 114.22 66.8711C114.026 66.9214 113.821 66.8946 113.647 66.7965L113.643 66.8ZM120.736 59.8469L136.965 69.0852L132.919 75.9954L116.69 66.7562L120.736 59.8469Z" fill="url(#paint13_linear_6591_67481)"/>
<path d="M143.438 92.6948H128.531C127.402 92.6972 126.32 93.1403 125.522 93.9272C124.724 94.714 124.274 95.7806 124.271 96.8936V97.7335H147.697V96.8936C147.695 95.7806 147.245 94.714 146.447 93.9272C145.648 93.1403 144.567 92.6972 143.438 92.6948ZM126.121 96.0536C126.298 95.5629 126.625 95.1381 127.056 94.8375C127.488 94.537 128.003 94.3753 128.531 94.3747H143.438C143.966 94.3753 144.481 94.537 144.913 94.8375C145.344 95.1381 145.67 95.5629 145.847 96.0536H126.121Z" fill="url(#paint14_linear_6591_67481)"/>
<path d="M135.131 83.0355V88.4977C135.131 88.7205 135.221 88.9341 135.38 89.0916C135.54 89.2491 135.757 89.3376 135.983 89.3376C136.209 89.3376 136.425 89.2491 136.585 89.0916C136.745 88.9341 136.835 88.7205 136.835 88.4977V83.0355C136.835 82.8127 136.745 82.5991 136.585 82.4416C136.425 82.284 136.209 82.1956 135.983 82.1956C135.757 82.1956 135.54 82.284 135.38 82.4416C135.221 82.5991 135.131 82.8127 135.131 83.0355Z" fill="url(#paint15_linear_6591_67481)"/>
<path d="M128.956 84.4085C128.859 84.4635 128.774 84.5368 128.706 84.6243C128.637 84.7117 128.587 84.8116 128.558 84.9181C128.529 85.0247 128.522 85.1358 128.537 85.2452C128.551 85.3545 128.587 85.46 128.643 85.5555L131.413 90.2835C131.487 90.4113 131.595 90.5173 131.725 90.5911C131.854 90.6648 132.001 90.7035 132.151 90.7034C132.3 90.7037 132.447 90.6647 132.576 90.5906C132.673 90.5355 132.758 90.4621 132.826 90.3747C132.894 90.2872 132.944 90.1873 132.973 90.0808C133.002 89.9742 133.009 89.8631 132.995 89.7538C132.98 89.6444 132.943 89.539 132.887 89.4436L130.119 84.7156C130.063 84.62 129.989 84.5363 129.9 84.4691C129.812 84.402 129.71 84.3527 129.602 84.3242C129.494 84.2957 129.381 84.2884 129.271 84.3029C129.16 84.3173 129.053 84.3532 128.956 84.4085Z" fill="url(#paint16_linear_6591_67481)"/>
<path d="M142.06 84.7158L139.292 89.4437C139.236 89.5392 139.2 89.6446 139.185 89.7539C139.17 89.8633 139.178 89.9744 139.207 90.0809C139.236 90.1875 139.286 90.2873 139.354 90.3748C139.422 90.4623 139.507 90.5357 139.604 90.5908C139.733 90.6649 139.879 90.7038 140.029 90.7036C140.178 90.7037 140.325 90.6649 140.455 90.5912C140.585 90.5175 140.692 90.4114 140.767 90.2836L143.536 85.5557C143.649 85.3627 143.68 85.1334 143.621 84.9182C143.563 84.703 143.42 84.5195 143.224 84.4082C143.028 84.2968 142.796 84.2666 142.578 84.3243C142.359 84.382 142.173 84.5228 142.06 84.7158Z" fill="url(#paint17_linear_6591_67481)"/>
<path d="M125.891 64.1657L122.202 62.0659C122.006 61.9545 121.774 61.9243 121.555 61.982C121.337 62.0397 121.151 62.1805 121.038 62.3735C120.925 62.5664 120.894 62.7957 120.953 63.0109C121.011 63.2261 121.154 63.4096 121.35 63.521L125.039 65.6199C125.168 65.694 125.315 65.7329 125.464 65.7327C125.651 65.7328 125.834 65.6719 125.983 65.5594C126.131 65.447 126.238 65.2892 126.287 65.1107C126.336 64.9321 126.323 64.7427 126.252 64.5719C126.18 64.401 126.053 64.2582 125.891 64.1657Z" fill="url(#paint18_linear_6591_67481)"/>
<path d="M453.748 146.703L448.873 134.303L435.205 144.715L438.22 153.58C438.752 155.892 441.546 159.899 443.959 159.963L483.521 165.993L494.237 166.949C497.149 167.508 500.1 164.511 501.698 162.071C502.779 160.419 500.161 158.559 498.206 158.107L492.121 156.703L493.884 155.636C494.102 155.503 494.283 155.319 494.411 155.1C494.539 154.882 494.61 154.635 494.617 154.382C494.624 154.13 494.568 153.879 494.452 153.654C494.337 153.428 494.166 153.234 493.956 153.09C493.643 152.873 493.274 152.751 492.892 152.739C492.51 152.726 492.133 152.824 491.807 153.02L485.378 156.911L453.748 146.703Z" fill="#EC947A"/>
<path d="M438.447 317.541H426.884L426.275 308.028H437.837L438.447 317.541Z" fill="#E39C8A"/>
<path d="M425.047 327.644H461.943C462.431 326.693 462.455 324.718 458.656 324.433C454.857 324.149 443.982 319.321 438.258 317.539H426.568L425.047 327.644Z" fill="#273156"/>
<path d="M443.613 223.008C443.127 247.265 442.398 297.921 438.746 308.623H425.357L411.055 227.468L400.404 164.743H441.49C444.498 179.04 444.111 198.291 443.63 222.155L443.613 223.008Z" fill="#273156"/>
<path d="M383.387 319.323H371.824L373.954 305.648H385.518L383.387 319.323Z" fill="#E39C8A"/>
<path d="M406.525 327.655C406.778 327.066 406.878 326.423 406.816 325.785C406.754 325.148 406.531 324.535 406.168 324.004C405.805 323.473 405.314 323.039 404.738 322.742C404.162 322.445 403.521 322.295 402.871 322.304C398.512 321.981 390.296 319.57 383.728 317.549C381.506 318.456 379.106 318.862 376.704 318.738C374.537 318.567 372.395 318.168 370.314 317.549L369.096 327.655H406.525Z" fill="#273156"/>
<path d="M386.292 308.624H372.604C372.604 308.624 375.95 221.229 376.864 197.444C377.777 173.659 381.123 166.23 381.123 166.23L411.792 168.312C414.834 182.779 412.279 190.43 411.792 214.686C411.304 238.942 389.944 297.923 386.292 308.624Z" fill="#2E3760"/>
<path d="M396.34 223.554L356.291 206.187L368.637 179.016L408.686 196.383L396.34 223.554Z" fill="#F2F2F2"/>
<path d="M397.561 224.14L357.512 206.773L369.857 179.602L409.906 196.969L397.561 224.14Z" fill="white"/>
<path d="M402.628 218.025L398.252 216.128L404.31 202.797L408.684 204.694L402.628 218.025Z" fill="#A98982"/>
<path d="M452.37 139.937L425.132 151.151L411.485 123.17C410.563 121.267 410.038 119.201 409.943 117.095C409.849 114.988 410.185 112.885 410.933 110.909C411.681 108.934 412.825 107.128 414.297 105.598C415.769 104.068 417.538 102.846 419.5 102.006C421.461 101.165 423.574 100.723 425.712 100.705C427.851 100.687 429.971 101.095 431.946 101.903C433.921 102.711 435.711 103.903 437.209 105.409C438.706 106.914 439.881 108.701 440.662 110.664L452.37 139.937Z" fill="#1B2E71"/>
<path d="M414.715 178.115C401.637 178.115 382.278 176.927 379.539 175.143L383.373 104.095C388.538 101.432 392.28 98.4473 408.446 98.4473C414.591 98.4573 420.715 99.1573 426.7 100.534C435.565 102.583 438.068 105.793 438.677 107.876L443.011 173.09C437.94 175.565 431.07 178.115 414.715 178.115Z" fill="#2A3F88"/>
<path d="M420.92 94.7965L419.398 94.2019V101.04L418.789 104.31L420.92 102.823L422.137 98.3639L420.92 94.7965Z" fill="#0F2059"/>
<path d="M401.746 100.44C403.206 100.202 404.992 98.3588 405.702 97.4669C405.398 95.4853 403.935 91.403 400.525 94.4941C396.268 98.3588 399.92 100.738 401.746 100.44Z" fill="#0F2059"/>
<path d="M386.029 203.884L384.401 220.769C384.381 220.98 384.305 221.181 384.182 221.355C384.059 221.528 383.892 221.667 383.698 221.757C383.504 221.847 383.289 221.886 383.075 221.87C382.861 221.854 382.655 221.783 382.477 221.664L371.796 214.549L375.683 201.506L365.542 169.496C363.176 162.027 362.878 154.071 364.679 146.451L366.157 140.183L387.246 143.83L384.203 162.261L386.029 203.884Z" fill="#EC947A"/>
<path d="M419.804 93.9546L419.957 100.33C419.957 106.025 416.087 108.468 415.817 108.329C411.087 105.881 406.604 102.994 402.428 99.7088V84.8444L403.074 84.9993C402.999 84.4746 402.949 84.0143 402.92 83.6821C400.791 80.7101 397.687 73.9916 402.312 70.8996C408.093 67.0348 421.341 65.6505 421.342 70.8996C421.951 72.386 422.089 75.1637 422.393 82.5959C422.7 90.0639 422.917 93.1389 419.804 93.9546Z" fill="#EAA48F"/>
<path d="M413.414 77.2555L408.545 76.9582L409.152 75.4727L413.414 76.3681V77.2555Z" fill="#2E384A"/>
<path d="M418.285 77.2555L423.154 76.9582L422.543 75.4727L418.285 76.3681V77.2555Z" fill="#2E384A"/>
<path d="M403.077 84.9714H402.659L402.469 90.9163C403.483 92.8988 406.919 97.882 411.063 97.882C412.631 97.8494 414.175 97.4883 415.591 96.8228C417.007 96.1573 418.264 95.2025 419.277 94.0217C417.047 94.3181 411.854 94.559 408.931 93.1263C406.009 91.6936 403.888 86.7552 403.077 84.9714Z" fill="#D77C63"/>
<path d="M410.244 109.709L416.344 108.164C416.446 106.578 415.477 103.943 413.286 105.845C411.094 107.748 410.345 109.214 410.244 109.709Z" fill="#0F2059"/>
<path d="M423.645 108.17C422.589 107.398 421.309 106.981 419.994 106.981C418.679 106.981 417.398 107.398 416.342 108.17C416.95 107.274 417.73 104.9 419.689 104.9C421.147 104.901 423.339 107.279 423.645 108.17Z" fill="#0F2059"/>
<path d="M419.999 102.815C419.358 103.852 418.646 104.845 417.869 105.788C418.584 105.313 419.446 105.102 420.303 105.193C421.211 105.49 421.428 105.942 422.315 106.805C422.769 107.253 423.152 107.722 423.458 108.069C423.807 108.467 424.142 108.235 424.167 107.711C424.315 104.803 425.001 98.994 424.564 98.3547C424.314 97.9867 422.785 95.5054 422.129 94.7872C420.716 94.3735 420.118 94.0458 419.999 94.1927C419.923 94.2822 419.999 94.4899 419.999 94.7872C420.163 94.7728 420.328 94.7917 420.484 94.8428C420.641 94.894 420.784 94.9762 420.907 95.0845C421.173 95.8484 421.276 96.6579 421.211 97.4628V99.2457C421.216 100.139 421.373 100.581 419.999 102.815Z" fill="#455AA6"/>
<path d="M401.617 95.9918C401.514 95.7766 401.457 95.5429 401.449 95.305C401.442 95.0672 401.484 94.8303 401.573 94.6092C401.662 94.3881 401.796 94.1874 401.968 94.0197C402.139 93.8519 402.343 93.7207 402.568 93.6341L402.659 93.6081V92.4189C402.659 92.4189 400.225 92.4189 399.312 93.3144C398.399 94.2098 395.66 99.2602 395.66 99.2602C397.511 101.502 399.546 103.59 401.745 105.502C403.549 107.05 405.535 108.597 407.025 109.724C407.316 109.934 407.649 110.08 408.002 110.154C408.354 110.228 408.718 110.227 409.071 110.153C409.423 110.079 409.756 109.932 410.047 109.723C410.338 109.513 410.581 109.246 410.76 108.937C411.271 107.998 411.925 107.14 412.698 106.394C413.217 105.944 413.847 105.635 414.524 105.499C410.771 103.715 409.049 103.547 405.093 100.574C403.668 99.2611 402.492 97.7097 401.617 95.9918Z" fill="#455AA6"/>
<path d="M429.91 66.3815C428.693 65.906 422.658 64.562 419.564 64.0023C411.349 62.5159 400.657 62.703 399.104 65.3607C397.886 67.4426 399.408 67.1453 397.277 67.4417C395.148 69.5227 397.486 77.5603 398.191 79.6296C399.165 82.4834 400.929 85.8727 402.641 90.6293V85.5754L404.884 80.5224C407.318 83.198 405.356 79.0001 404.58 75.4685C403.706 71.4838 404.58 71.7318 407.088 71.7318C410.13 71.7318 416.217 73.2182 416.217 73.2182L414.695 71.7318H429.002C427.785 69.9481 424.133 68.4625 424.133 68.4625L429.91 66.3815Z" fill="#384458"/>
<path d="M390.408 148.029C393.544 138.816 394.779 134.851 396.505 125.125C398.341 119.344 396.751 104.498 387.725 103.87C373.002 102.848 368.051 123.506 365.084 144.634L390.408 148.029Z" fill="#354B99"/>
<path d="M403.073 85.5752C404.753 85.5752 406.116 84.2442 406.116 82.6023C406.116 80.9604 404.753 79.6294 403.073 79.6294C401.392 79.6294 400.029 80.9604 400.029 82.6023C400.029 84.2442 401.392 85.5752 403.073 85.5752Z" fill="#EAA48F"/>
<path d="M402.768 83.1952C402.251 82.6902 402.463 82.6006 402.768 82.2997L401.859 81.4043C402.57 81.6022 404.293 81.6416 404.293 82.5935C404.289 83.7898 403.072 83.4925 402.768 83.1952Z" fill="#DA8369"/>
<path d="M414.7 89.8339C416.829 90.1312 416.774 89.0414 417.049 88.3483L411.656 87.4529C411.96 89.2393 412.962 89.5921 414.7 89.8339Z" fill="#BB4927"/>
<path fill-rule="evenodd" clip-rule="evenodd" d="M417.5 80.2599C417.561 80.9105 417.727 81.5473 417.993 82.1457C418.265 82.6925 418.664 83.1683 419.158 83.5345C419.335 83.6423 419.48 83.7951 419.577 83.9769C419.674 84.1586 419.72 84.3627 419.709 84.5679C419.668 84.739 419.587 84.8983 419.472 85.0324C419.357 85.1666 419.211 85.2719 419.046 85.3397C418.427 85.608 417.764 85.7679 417.089 85.8125C417.027 85.8236 416.964 85.8218 416.902 85.8074C416.841 85.7929 416.784 85.766 416.734 85.7285C416.683 85.691 416.642 85.6436 416.611 85.5893C416.581 85.535 416.562 85.4751 416.556 85.4133C416.55 85.3515 416.558 85.2892 416.577 85.2303C416.597 85.1715 416.629 85.1173 416.672 85.0713C416.714 85.0254 416.765 84.9885 416.823 84.9632C416.88 84.9379 416.943 84.9246 417.006 84.9243C417.562 84.8891 418.109 84.7626 418.624 84.55C418.686 84.521 418.743 84.483 418.794 84.4371C418.738 84.3566 418.668 84.2866 418.588 84.2303C417.986 83.7808 417.499 83.198 417.168 82.5289C416.859 81.8451 416.665 81.1162 416.594 80.3709C416.579 80.2522 416.613 80.1325 416.688 80.0382C416.762 79.9439 416.872 79.8827 416.992 79.8681C417.113 79.8535 417.234 79.8867 417.33 79.9603C417.425 80.034 417.487 80.142 417.502 80.2608L417.5 80.2599ZM417.676 87.993L417.473 88.5034C417.446 88.5714 417.421 88.6484 417.391 88.7433L417.377 88.7926C417.353 88.8714 417.326 88.9618 417.296 89.0496C417.217 89.3057 417.086 89.5435 416.912 89.7489C416.61 90.0217 416.241 90.2129 415.841 90.304C415.442 90.3952 415.026 90.3832 414.632 90.2692C413.838 90.2111 413.068 89.9766 412.379 89.5833C412.047 89.341 411.771 89.0323 411.569 88.6774C411.366 88.3224 411.242 87.9293 411.205 87.5237L411.1 86.9068L417.676 87.993ZM412.266 88.0028C412.377 88.3464 412.601 88.6441 412.901 88.8499C413.475 89.1623 414.111 89.3457 414.765 89.3872C415.764 89.5269 416.088 89.3191 416.225 89.1642C416.321 89.0469 416.392 88.9121 416.433 88.7675C416.441 88.7442 416.45 88.7201 416.457 88.6968L412.266 88.0028Z" fill="#BB4927"/>
<path d="M412.57 79.4351C412.57 78.9381 412.161 78.5352 411.657 78.5352C411.153 78.5352 410.744 78.9381 410.744 79.4351V80.0135C410.744 80.5106 411.153 80.9135 411.657 80.9135C412.161 80.9135 412.57 80.5106 412.57 80.0135V79.4351Z" fill="#2E384A"/>
<path d="M419.164 79.4352V80.0137C419.163 80.1317 419.187 80.2486 419.232 80.3577C419.277 80.4669 419.344 80.5661 419.428 80.6498C419.513 80.7334 419.613 80.7997 419.724 80.845C419.834 80.8903 419.953 80.9136 420.072 80.9136C420.192 80.9136 420.31 80.8903 420.421 80.845C420.531 80.7997 420.632 80.7334 420.716 80.6498C420.8 80.5661 420.867 80.4669 420.913 80.3577C420.958 80.2486 420.981 80.1317 420.98 80.0137V79.4352C420.98 79.1978 420.885 78.97 420.714 78.8021C420.544 78.6341 420.313 78.5398 420.072 78.5398C419.831 78.5398 419.6 78.6341 419.43 78.8021C419.26 78.97 419.164 79.1978 419.164 79.4352Z" fill="#2E384A"/>
<path d="M427.024 119.798C426.964 119.78 426.903 119.767 426.842 119.759C426.779 119.752 426.716 119.752 426.653 119.759C426.544 119.771 426.439 119.805 426.342 119.857C426.248 119.907 426.164 119.974 426.095 120.055C426.023 120.14 425.969 120.238 425.937 120.344C425.904 120.45 425.895 120.562 425.908 120.672C425.921 120.791 425.957 120.907 426.015 121.012C426.07 121.106 426.143 121.189 426.229 121.257C426.313 121.323 426.41 121.373 426.514 121.402C426.618 121.432 426.726 121.441 426.834 121.429C426.888 121.423 426.941 121.412 426.994 121.395C427.053 121.377 427.111 121.354 427.167 121.327L427.192 121.316L427.147 120.896C427.065 120.992 426.948 121.054 426.821 121.07C426.759 121.076 426.697 121.071 426.638 121.054C426.578 121.036 426.523 121.008 426.475 120.969C426.428 120.931 426.389 120.884 426.361 120.83C426.33 120.768 426.31 120.701 426.302 120.633C426.296 120.569 426.301 120.505 426.318 120.444C426.334 120.386 426.362 120.333 426.4 120.286C426.437 120.24 426.483 120.201 426.536 120.171C426.592 120.141 426.654 120.122 426.717 120.116C426.78 120.108 426.844 120.114 426.905 120.131C426.966 120.149 427.023 120.178 427.072 120.218L427.024 119.798Z" fill="#FDCB02"/>
<path d="M429.835 120.138C429.778 120.186 429.707 120.214 429.633 120.217L429.528 120.228L429.48 119.78L429.584 119.768C429.658 119.756 429.733 119.769 429.799 119.803C429.825 119.821 429.847 119.844 429.863 119.872C429.879 119.899 429.888 119.93 429.889 119.962C429.895 119.993 429.892 120.026 429.882 120.056C429.871 120.087 429.854 120.114 429.83 120.136L429.835 120.138ZM430.546 121.001L429.946 120.375L429.983 120.361C430.079 120.333 430.163 120.271 430.218 120.188C430.269 120.1 430.288 119.998 430.272 119.897C430.265 119.829 430.247 119.763 430.218 119.7C430.191 119.647 430.154 119.599 430.107 119.561C430.057 119.521 430 119.492 429.937 119.476C429.861 119.457 429.782 119.453 429.704 119.462L429.068 119.53L429.245 121.142L429.62 121.102L429.542 120.399L430.079 121.053L430.546 121.003V121.001Z" fill="#FDCB02"/>
<path d="M431.501 119.516L431.314 119.654C431.283 119.607 431.242 119.568 431.194 119.54C431.149 119.521 431.101 119.515 431.053 119.522C430.991 119.526 430.932 119.553 430.89 119.598C430.87 119.617 430.855 119.64 430.846 119.666C430.837 119.692 430.834 119.719 430.838 119.746C430.846 119.825 430.912 119.882 431.036 119.917L431.206 119.966C431.322 119.993 431.43 120.049 431.518 120.129C431.589 120.201 431.633 120.296 431.641 120.397C431.65 120.465 431.645 120.534 431.626 120.6C431.607 120.666 431.575 120.727 431.531 120.78C431.486 120.833 431.431 120.877 431.368 120.909C431.306 120.941 431.238 120.961 431.167 120.966C431.039 120.983 430.909 120.951 430.804 120.876C430.698 120.793 430.624 120.676 430.596 120.545L430.84 120.464C430.85 120.533 430.878 120.598 430.92 120.654C430.948 120.682 430.981 120.703 431.018 120.717C431.054 120.731 431.093 120.738 431.132 120.736C431.172 120.735 431.21 120.725 431.245 120.708C431.281 120.692 431.312 120.668 431.337 120.638C431.359 120.61 431.376 120.578 431.385 120.543C431.394 120.509 431.397 120.473 431.392 120.438C431.389 120.408 431.382 120.379 431.369 120.353C431.357 120.327 431.341 120.305 431.32 120.285C431.296 120.264 431.27 120.245 431.241 120.231C431.205 120.213 431.168 120.199 431.129 120.188L430.965 120.139C430.732 120.07 430.602 119.946 430.585 119.767C430.578 119.709 430.583 119.651 430.602 119.595C430.621 119.54 430.651 119.49 430.692 119.448C430.78 119.354 430.9 119.297 431.029 119.288C431.121 119.278 431.214 119.294 431.297 119.333C431.38 119.373 431.45 119.435 431.499 119.512" fill="#FDCB02"/>
<path d="M432.026 120.026C432.036 120.145 432.082 120.259 432.159 120.352C432.235 120.446 432.338 120.514 432.454 120.549C432.571 120.585 432.695 120.584 432.811 120.549C432.928 120.514 433.031 120.445 433.107 120.351C433.208 120.224 433.255 120.062 433.238 119.901C433.221 119.74 433.141 119.592 433.016 119.487C432.955 119.436 432.883 119.398 432.806 119.376C432.729 119.354 432.648 119.347 432.568 119.358C432.488 119.365 432.41 119.388 432.339 119.426C432.268 119.464 432.206 119.516 432.157 119.579C432.105 119.641 432.067 119.712 432.045 119.789C432.023 119.866 432.017 119.947 432.028 120.026L432.026 120.026ZM431.779 120.05C431.766 119.941 431.776 119.83 431.808 119.725C431.841 119.62 431.895 119.522 431.968 119.439C432.038 119.352 432.125 119.279 432.225 119.226C432.324 119.173 432.433 119.14 432.546 119.13C432.771 119.107 432.996 119.173 433.172 119.313C433.348 119.453 433.461 119.656 433.486 119.878C433.5 119.988 433.491 120.099 433.459 120.205C433.427 120.311 433.372 120.41 433.299 120.494C433.159 120.661 432.96 120.77 432.742 120.798C432.524 120.826 432.303 120.772 432.124 120.646C432.025 120.578 431.943 120.49 431.883 120.386C431.823 120.283 431.788 120.168 431.779 120.05Z" fill="#FDCB02"/>
<path d="M436.466 118.977L435.812 119.047L435.854 119.434L436.49 119.366L436.515 119.594L435.88 119.662L435.938 120.201L436.593 120.131L436.618 120.359L435.716 120.455L435.541 118.845L436.442 118.749L436.466 118.977Z" fill="#FDCB02"/>
<path d="M428.608 121.21L429.031 121.166L428.233 119.622L427.823 119.665L427.377 121.341L427.801 121.296L428.076 120.086L428.608 121.21Z" fill="#FDCB02"/>
<path d="M435.041 118.899L434.771 118.928L434.552 120.244L434.052 119.004L433.783 119.033L433.668 120.671L433.911 120.645L433.973 119.384L434.476 120.601L434.702 120.577L434.931 119.282L435.264 120.501L435.507 120.475L435.041 118.899Z" fill="#FDCB02"/>
<path d="M492.3 140.476C493.136 140.476 493.813 139.094 493.813 137.389C493.813 135.685 493.136 134.303 492.3 134.303C491.465 134.303 490.787 135.685 490.787 137.389C490.787 139.094 491.465 140.476 492.3 140.476Z" stroke="#DAE7FF" stroke-width="0.5" stroke-miterlimit="10"/>
<path d="M491.207 142.749V150.197L492.582 151.21V150.381L493.378 149.859V142.196L491.207 142.749Z" fill="#C6C6C6"/>
<path d="M509.936 204.315C511.418 205.873 513.42 206.851 515.574 207.069V197.429L514.165 190.544L521.212 147.854L511.345 145.1L507.117 191.922C507.117 195.135 507.681 202.111 509.936 204.315Z" fill="#EAA48F"/>
<path d="M524.792 106.882C524.792 106.882 515.101 110.963 510.121 136.495L507.117 150.047L522.122 153.582L524.792 106.882Z" fill="#EBF2FF"/>
<path d="M521.25 320.59H532.814L533.422 311.077H521.859L521.25 320.59Z" fill="#E39C8A"/>
<path d="M534.65 330.693H497.751C497.263 329.742 497.239 327.768 501.038 327.482C504.837 327.197 515.712 322.369 521.436 320.587H533.125L534.65 330.693Z" fill="#F4F7FA"/>
<path d="M520.951 311.671H534.341L552.902 226.279L559.293 167.792H518.208C515.164 182.258 511.64 195.482 512.123 219.739C512.606 243.996 517.3 300.969 520.951 311.671Z" fill="#7A98C0"/>
<path d="M576.905 321.864L582.99 323.944L588.466 321.864L586.338 308.189H574.775L576.905 321.864Z" fill="#E39C8A"/>
<path d="M584.222 322.753C582.85 323.026 581.431 322.95 580.096 322.534C578.762 322.118 577.557 321.375 576.593 320.374C570.025 322.396 560.687 324.714 556.452 327.468C553.497 329.39 553.22 331.896 555.046 331.599H590.283L588.249 320.54C588.257 320.407 588.233 320.274 588.177 320.153L588.249 320.54C588.224 321.102 587.671 322.142 584.222 322.753Z" fill="#F4F7FA"/>
<path d="M573.617 309.806H587.309C587.309 309.806 578.787 262.243 580.309 237.866C581.832 213.49 580.309 176.629 580.309 176.629L539.23 170.981C536.188 185.449 539.23 216.167 541.058 241.136C542.885 266.106 569.965 299.106 573.617 309.806Z" fill="#82A1CA"/>
<path d="M545.13 180.205C558.208 180.205 577.568 179.017 580.307 177.233C580.307 177.233 582.783 123.916 576.116 110.619C573.699 105.799 567.566 100.537 551.4 100.536C533.146 100.536 521.272 107.968 522.184 109.752L516.834 175.177C521.909 177.656 528.776 180.205 545.13 180.205Z" fill="#DAE7FF"/>
<path d="M539.841 96.9342V101.416C539.841 103.199 539.392 105.99 542.087 106.469C552.27 108.28 557.301 103.718 557.301 100.821L557.186 87.8167L556.359 88.0146C556.521 87.5748 556.632 87.1186 556.692 86.6545C558.822 83.6816 561.926 76.963 557.3 73.8711C551.518 70.0072 537.828 65.4539 537.828 70.703C537.219 72.1894 537.524 78.1352 537.219 85.5674C536.913 93.0623 536.695 96.1319 539.841 96.9342Z" fill="#FABEAC"/>
<path d="M539.225 83.2855C539.729 83.2855 540.138 82.7531 540.138 82.0964C540.138 81.4396 539.729 80.9072 539.225 80.9072C538.721 80.9072 538.312 81.4396 538.312 82.0964C538.312 82.7531 538.721 83.2855 539.225 83.2855Z" fill="#2E384A"/>
<path fill-rule="evenodd" clip-rule="evenodd" d="M541.914 82.6425C541.853 83.2931 541.687 83.9298 541.422 84.5283C541.149 85.075 540.75 85.5506 540.256 85.9163C540.079 86.0247 539.934 86.1777 539.837 86.3595C539.74 86.5413 539.695 86.7453 539.704 86.9505C539.746 87.1214 539.827 87.2804 539.942 87.4145C540.057 87.5486 540.202 87.6541 540.366 87.7224C540.986 87.9904 541.649 88.1504 542.324 88.1952C542.386 88.2062 542.45 88.2045 542.511 88.19C542.573 88.1755 542.63 88.1486 542.68 88.111C542.73 88.0734 542.772 88.026 542.803 87.9717C542.833 87.9173 542.852 87.8574 542.858 87.7955C542.863 87.7337 542.856 87.6713 542.836 87.6125C542.816 87.5536 542.784 87.4994 542.741 87.4535C542.699 87.4075 542.647 87.3708 542.59 87.3455C542.532 87.3203 542.47 87.3071 542.407 87.3069C541.851 87.2717 541.305 87.1452 540.791 86.9326C540.729 86.904 540.671 86.8659 540.621 86.8198C540.676 86.739 540.745 86.6688 540.826 86.6129C541.428 86.1634 541.915 85.5806 542.246 84.9116C542.554 84.2276 542.747 83.4992 542.819 82.7545C542.834 82.6357 542.801 82.516 542.726 82.4217C542.651 82.3275 542.542 82.2663 542.421 82.2517C542.301 82.2371 542.179 82.2702 542.084 82.3439C541.988 82.4175 541.926 82.5256 541.911 82.6443L541.914 82.6425ZM547.265 90.0685C546.577 90.6116 545.744 90.9476 544.867 91.0364C544.249 91.0691 543.628 91.0288 543.019 90.9165L542.735 90.8753C542.676 90.8666 542.616 90.8696 542.558 90.884C542.5 90.8984 542.445 90.9239 542.397 90.9591C542.349 90.9943 542.309 91.0384 542.278 91.089C542.248 91.1397 542.228 91.1957 542.219 91.254C542.265 91.6422 542.389 92.0171 542.586 92.3562C542.783 92.6953 543.048 92.9913 543.364 93.2264C543.681 93.4615 544.042 93.6307 544.427 93.7237C544.812 93.8167 545.212 93.8317 545.603 93.7676C545.997 93.6844 546.371 93.5241 546.701 93.2963C547.031 93.0685 547.312 92.7778 547.527 92.4412C547.741 92.1047 547.885 91.7292 547.95 91.3369C548.015 90.9446 547.999 90.5434 547.904 90.1571C547.831 90.0627 547.722 90.0006 547.603 89.9844C547.483 89.9681 547.362 89.999 547.265 90.0703V90.0685Z" fill="#BB4927"/>
<path d="M547.525 81.8071V82.3855C547.525 82.5035 547.548 82.6204 547.593 82.7296C547.639 82.8387 547.705 82.938 547.79 83.0216C547.874 83.1052 547.974 83.1716 548.085 83.2169C548.195 83.2621 548.314 83.2855 548.434 83.2855C548.554 83.2861 548.673 83.2632 548.784 83.2182C548.895 83.1731 548.995 83.1069 549.08 83.0232C549.165 82.9395 549.232 82.8401 549.278 82.7306C549.324 82.6212 549.347 82.5039 549.346 82.3855V81.8071C549.346 81.6891 549.323 81.5723 549.277 81.4634C549.231 81.3544 549.163 81.2555 549.079 81.1723C548.994 81.0891 548.893 81.0232 548.783 80.9785C548.672 80.9338 548.553 80.911 548.434 80.9116C548.193 80.9116 547.962 81.006 547.791 81.1739C547.621 81.3418 547.525 81.5696 547.525 81.8071Z" fill="#2E384A"/>
<path d="M557.189 96.3708C556.174 98.3533 555.051 99.9382 548.785 101.034C544.712 101.751 541.053 99.6409 539.836 97.2626C540.918 97.4068 547.011 98.279 550.486 96.3672C554.175 94.3435 555.964 89.389 555.964 87.7467C555.964 85.5896 556.378 90.7912 557.189 89.0111V96.3708Z" fill="#D88D78"/>
<path d="M534.652 66.0473C535.869 65.5718 539.17 66.9794 542.263 66.4198C550.478 64.9324 557.046 65.1509 559.427 67.1424C561.008 68.4685 560.068 69.9577 560.851 70.8791C561.286 71.2982 561.855 71.5539 562.461 71.6017C564.905 71.6017 563.175 81.7203 562.469 83.7905C561.496 86.6443 561.135 89.9046 557.179 93.7694V88.934H557.165C556.868 89.0143 556.552 88.9825 556.277 88.8449C556.003 88.7073 555.79 88.4737 555.681 88.1899L555.167 86.8467L556.075 83.4834C555.167 81.7928 552.91 84.0851 552.91 80.3063C553.028 78.4051 552.715 76.5019 551.997 74.734C551.388 73.3407 548.65 74.2675 548.65 74.2675L543.473 74.734C540.126 74.734 540.703 75.0922 538.604 74.734C538.086 74.6379 537.586 74.4614 537.123 74.211C534.298 72.7362 533.881 69.116 534.652 66.0473Z" fill="#2E384A"/>
<path d="M555.963 87.4555C557.644 87.4555 559.007 86.1245 559.007 84.4827C559.007 82.8408 557.644 81.5098 555.963 81.5098C554.283 81.5098 552.92 82.8408 552.92 84.4827C552.92 86.1245 554.283 87.4555 555.963 87.4555Z" fill="#FABEAC"/>
<path d="M556.454 83.724V82.3477C555.044 83.2655 552.79 85.1021 555.044 85.1021C557.298 85.1021 556.924 84.1842 556.454 83.724Z" fill="#F3A792"/>
<path d="M556.81 144.004C556.81 144.004 540.144 153.298 534.327 156.695C528.51 160.091 519.456 155.882 513.712 150.045C507.967 144.209 500.262 133.07 500.262 133.07C498.017 133.678 495.678 133.88 493.36 133.666C489.309 133.343 489.182 130.733 493.161 130.052C497.14 129.372 495.081 129.062 493.477 128.735C491.873 128.408 489.957 130.752 489.957 130.752C489.957 130.752 489.94 131.379 488.45 131.562C486.961 131.746 487.122 127.031 488.904 125.742C490.687 124.452 495.08 121.533 499.191 123.498C501.791 124.781 504.177 126.448 506.267 128.441L528.738 139.978L546.29 129.605L556.81 144.004Z" fill="#FABEAC"/>
<path d="M533.205 137.484C538.727 130.042 548.447 118.635 555.526 113.039C560.057 109.457 567.683 104.051 573.409 110.944C582.749 122.19 566.127 142.767 551.016 156.452L533.205 137.484Z" fill="#EBF2FF"/>
<path d="M546.861 79.0597C547.055 78.7799 547.305 78.5423 547.596 78.3615C547.886 78.1808 548.212 78.0609 548.551 78.0091C548.891 77.9573 549.238 77.9748 549.57 78.0604C549.903 78.1461 550.214 78.2982 550.484 78.5072" stroke="#2E384A" stroke-miterlimit="10"/>
<path d="M537.055 78.5219C537.324 78.3117 537.635 78.1583 537.967 78.0712C538.299 77.9841 538.645 77.9652 538.985 78.0155C539.325 78.0659 539.651 78.1845 539.942 78.364C540.234 78.5435 540.484 78.7801 540.679 79.0591" stroke="#2E384A" stroke-miterlimit="10"/>
<path d="M495.941 140.574C495.941 141.528 495.557 142.442 494.872 143.117C494.188 143.792 493.26 144.171 492.293 144.171C491.325 144.171 490.397 143.792 489.713 143.117C489.029 142.442 488.645 141.528 488.645 140.574C488.645 138.587 490.279 138.562 492.293 138.562C494.306 138.562 495.941 138.587 495.941 140.574Z" fill="#2E384A"/>
<path d="M492.505 144.732H491.82V149.245H492.505V144.732Z" fill="#B2B2B2"/>
<path d="M492.3 135.89C494.029 135.89 495.431 134.508 495.431 132.803C495.431 131.099 494.029 129.717 492.3 129.717C490.572 129.717 489.17 131.099 489.17 132.803C489.17 134.508 490.572 135.89 492.3 135.89Z" stroke="#DAE7FF" stroke-width="0.5" stroke-miterlimit="10"/>
<path d="M492.292 140.961C492.734 140.961 493.092 140.608 493.092 140.172C493.092 139.736 492.734 139.383 492.292 139.383C491.85 139.383 491.492 139.736 491.492 140.172C491.492 140.608 491.85 140.961 492.292 140.961Z" fill="#B2B2B2"/>
<path d="M586.12 66.4807V53.2102C586.124 53.0473 586.096 52.8852 586.036 52.7334C585.975 52.5816 585.885 52.4433 585.77 52.3265C585.655 52.2097 585.517 52.1169 585.365 52.0535C585.212 51.9902 585.049 51.9575 584.883 51.9575C584.718 51.9575 584.555 51.9902 584.402 52.0535C584.25 52.1169 584.112 52.2097 583.997 52.3265C583.882 52.4433 583.791 52.5816 583.731 52.7334C583.671 52.8852 583.642 53.0473 583.647 53.2102V66.2443C584.477 66.2537 585.304 66.3328 586.12 66.4807Z" fill="url(#paint19_linear_6591_67481)"/>
<path d="M592.251 69.1213V62.5218C592.251 62.1984 592.121 61.8882 591.889 61.6595C591.657 61.4307 591.342 61.3022 591.014 61.3022C590.686 61.3022 590.372 61.4307 590.14 61.6595C589.908 61.8882 589.777 62.1984 589.777 62.5218V67.6474C590.649 68.0567 591.478 68.5504 592.251 69.1213Z" fill="url(#paint20_linear_6591_67481)"/>
<path d="M580.3 66.5927V59.0996C580.304 58.9367 580.275 58.7746 580.215 58.6228C580.155 58.471 580.065 58.3327 579.95 58.2159C579.834 58.0991 579.696 58.0063 579.544 57.943C579.392 57.8796 579.228 57.8469 579.063 57.8469C578.898 57.8469 578.734 57.8796 578.582 57.943C578.43 58.0063 578.292 58.0991 578.177 58.2159C578.061 58.3327 577.971 58.471 577.911 58.6228C577.851 58.7746 577.822 58.9367 577.827 59.0996V67.3663C578.626 67.0364 579.454 66.7775 580.3 66.5927Z" fill="url(#paint21_linear_6591_67481)"/>
<path d="M579.063 54.4285C579.225 54.4287 579.386 54.3972 579.536 54.336C579.686 54.2748 579.822 54.1851 579.937 54.0719C580.052 53.9587 580.143 53.8243 580.205 53.6764C580.268 53.5285 580.3 53.37 580.3 53.2098V50.1823C580.304 50.0194 580.275 49.8573 580.215 49.7056C580.155 49.5538 580.065 49.4154 579.95 49.2987C579.834 49.1819 579.696 49.0891 579.544 49.0257C579.392 48.9623 579.228 48.9297 579.063 48.9297C578.898 48.9297 578.734 48.9623 578.582 49.0257C578.43 49.0891 578.292 49.1819 578.177 49.2987C578.061 49.4154 577.971 49.5538 577.911 49.7056C577.851 49.8573 577.822 50.0194 577.827 50.1823V53.2098C577.827 53.5331 577.957 53.843 578.189 54.0716C578.42 54.3001 578.735 54.4285 579.063 54.4285Z" fill="url(#paint22_linear_6591_67481)"/>
<path d="M583.647 94.9432C590.879 94.9432 596.741 89.1629 596.741 82.0326C596.741 74.9023 590.879 69.1221 583.647 69.1221C576.415 69.1221 570.553 74.9023 570.553 82.0326C570.553 89.1629 576.415 94.9432 583.647 94.9432Z" fill="#FCE47E"/>
<path d="M583.649 69.9399C586.073 69.941 588.443 70.6508 590.458 71.9795C592.474 73.3083 594.044 75.1963 594.972 77.4051C595.899 79.6138 596.141 82.044 595.668 84.3885C595.195 86.7329 594.027 88.8864 592.313 90.5767C590.598 92.2669 588.414 93.4181 586.036 93.8846C583.658 94.3511 581.193 94.112 578.953 93.1976C576.713 92.2832 574.798 90.7344 573.451 88.7472C572.103 86.76 571.384 84.4234 571.383 82.0329C571.386 78.8266 572.68 75.7526 574.979 73.4855C577.279 71.2184 580.397 69.9433 583.649 69.9399ZM583.649 93.0281C585.855 93.0281 588.011 92.3832 589.845 91.1749C591.679 89.9666 593.108 88.2492 593.952 86.2399C594.797 84.2305 595.017 82.0195 594.587 79.8865C594.157 77.7534 593.094 75.7941 591.534 74.2563C589.975 72.7185 587.987 71.6713 585.824 71.2471C583.661 70.823 581.418 71.0408 579.38 71.8732C577.342 72.7057 575.601 74.1152 574.375 75.9236C573.15 77.732 572.496 79.8581 572.496 82.0329C572.499 84.9483 573.675 87.7433 575.766 89.8046C577.857 91.866 580.692 93.0253 583.649 93.0281Z" fill="#EDBE5F"/>
<path d="M582.384 79.4262C582.364 79.7613 582.47 80.0921 582.681 80.3557C582.975 80.6419 583.331 80.8595 583.722 80.9924C584.219 81.1929 584.677 81.3953 585.098 81.5995C585.493 81.7877 585.86 82.0287 586.188 82.3158C586.485 82.5763 586.723 82.8954 586.887 83.2525C587.06 83.6605 587.143 84.1 587.131 84.5419C587.143 84.9304 587.072 85.317 586.923 85.6766C586.773 86.0363 586.548 86.3608 586.263 86.6292C585.628 87.2007 584.812 87.5383 583.953 87.5846V89.166H582.744V87.5542C581.898 87.4621 581.118 87.0597 580.559 86.4268C580.013 85.7649 579.731 84.9296 579.764 84.0772H582.334C582.307 84.4982 582.414 84.917 582.638 85.2762C582.735 85.4127 582.865 85.5228 583.016 85.5962C583.168 85.6696 583.336 85.704 583.504 85.6961C583.649 85.7043 583.795 85.6805 583.929 85.6267C584.064 85.5728 584.185 85.4901 584.284 85.3845C584.481 85.1424 584.58 84.8367 584.561 84.5267C584.57 84.3663 584.546 84.2058 584.491 84.0546C584.436 83.9034 584.351 83.7644 584.242 83.6456C583.943 83.3752 583.595 83.1642 583.216 83.0241C582.744 82.8265 582.299 82.6215 581.881 82.4089C581.49 82.2148 581.126 81.9716 580.798 81.6854C580.498 81.4213 580.255 81.1003 580.083 80.7416C579.901 80.3334 579.813 79.8907 579.825 79.445C579.81 79.0593 579.876 78.6747 580.018 78.3149C580.16 77.9552 580.375 77.6279 580.65 77.3533C581.262 76.7868 582.058 76.4524 582.896 76.4095V74.9006H584.105V76.4148C585.064 76.4639 585.97 76.8632 586.648 77.535C587.259 78.2244 587.576 79.1203 587.533 80.0351H584.972C585.005 79.5705 584.869 79.1095 584.588 78.7349C584.452 78.5839 584.284 78.4652 584.095 78.3876C583.906 78.3101 583.702 78.2757 583.498 78.2872C583.348 78.2787 583.197 78.3014 583.057 78.3536C582.916 78.4059 582.788 78.4867 582.681 78.5908C582.578 78.7039 582.499 78.836 582.448 78.9794C582.397 79.1227 582.376 79.2746 582.384 79.4262Z" fill="#D6A856"/>
<path d="M583.497 79.4262C583.477 79.7614 583.583 80.0922 583.794 80.3557C584.088 80.6421 584.444 80.8597 584.836 80.9924C585.331 81.1929 585.79 81.3953 586.211 81.5995C586.606 81.7877 586.973 82.0287 587.301 82.3158C587.598 82.5765 587.836 82.8956 588.001 83.2525C588.173 83.6606 588.255 84.1 588.243 84.5419C588.255 84.9303 588.184 85.3168 588.035 85.6764C587.886 86.036 587.662 86.3607 587.377 86.6292C586.741 87.2007 585.925 87.5383 585.066 87.5846V89.166H583.857V87.5542C583.011 87.4621 582.231 87.0597 581.671 86.4268C581.126 85.7645 580.844 84.9294 580.878 84.0772H583.447C583.42 84.4982 583.526 84.9172 583.751 85.2762C583.848 85.4127 583.978 85.5228 584.129 85.5962C584.281 85.6696 584.449 85.704 584.618 85.6961C584.763 85.7043 584.908 85.6805 585.043 85.6267C585.177 85.5728 585.298 85.4901 585.397 85.3845C585.594 85.1422 585.692 84.8366 585.674 84.5267C585.682 84.3663 585.658 84.2059 585.604 84.0547C585.549 83.9035 585.464 83.7644 585.355 83.6456C585.057 83.3754 584.708 83.1644 584.329 83.0241C583.857 82.8265 583.412 82.6215 582.995 82.4089C582.603 82.215 582.239 81.9718 581.911 81.6854C581.611 81.4213 581.368 81.1003 581.196 80.7416C581.014 80.3336 580.926 79.8907 580.939 79.445C580.924 79.0593 580.989 78.6746 581.131 78.3148C581.273 77.955 581.488 77.6278 581.763 77.3533C582.375 76.7868 583.171 76.4524 584.009 76.4095V74.9006H585.218V76.4148C586.177 76.4639 587.084 76.8632 587.761 77.535C588.372 78.2244 588.69 79.1203 588.646 80.0351H586.082C586.114 79.5706 585.978 79.1098 585.698 78.7349C585.563 78.584 585.394 78.4653 585.206 78.3878C585.017 78.3103 584.813 78.2759 584.608 78.2872C584.459 78.2792 584.31 78.3021 584.17 78.3543C584.03 78.4066 583.902 78.4871 583.796 78.5908C583.692 78.7037 583.613 78.8357 583.562 78.9791C583.51 79.1225 583.488 79.2744 583.497 79.4262Z" fill="#EDBE5F"/>
<path d="M384.541 16.6875V57.0337C384.541 61.4595 382.758 65.704 379.584 68.8335C376.41 71.9631 372.105 73.7212 367.616 73.7212L236.28 73.7212C231.791 73.7212 227.486 71.9631 224.312 68.8336C221.137 65.7041 219.354 61.4596 219.354 57.0337V16.6875C219.354 14.4961 219.792 12.3261 220.642 10.3015C221.493 8.27686 222.739 6.43723 224.311 4.88765C225.883 3.33807 227.748 2.10889 229.802 1.27026C231.855 0.431634 234.056 0 236.279 0L367.616 0C369.839 0 372.04 0.431634 374.093 1.27026C376.146 2.10889 378.012 3.33807 379.584 4.88765C381.155 6.43723 382.402 8.27686 383.253 10.3015C384.103 12.3261 384.541 14.4961 384.541 16.6875Z" fill="url(#paint23_linear_6591_67481)"/>
<path d="M367.616 2.68628H236.279C228.436 2.68628 222.078 8.95483 222.078 16.6875V57.0354C222.078 64.768 228.436 71.0366 236.279 71.0366H367.616C375.458 71.0366 381.816 64.768 381.816 57.0354V16.6875C381.816 8.95483 375.458 2.68628 367.616 2.68628Z" fill="#FDCF33"/>
<path d="M249.841 27.2834C249.109 26.9757 248.352 26.7295 247.578 26.5474C246.802 26.3825 246.01 26.2994 245.217 26.2993C243.157 26.3018 241.143 26.8936 239.418 28.0029C237.693 29.1122 236.332 30.6914 235.499 32.5486C234.914 33.8697 234.62 35.298 234.635 36.7393C234.622 38.2539 234.92 39.7555 235.513 41.153C236.072 42.4012 236.864 43.5349 237.848 44.4957C239.803 46.3961 242.44 47.4606 245.186 47.4587C245.875 47.4533 246.563 47.384 247.239 47.2519C248.007 47.0973 248.762 46.8879 249.499 46.625L249.837 46.5095V41.2022C248.672 42.3008 247.128 42.921 245.516 42.9367C244.719 42.9428 243.929 42.7864 243.196 42.4773C242.491 42.1827 241.852 41.753 241.316 41.213C240.781 40.673 240.359 40.0335 240.076 39.3316C239.772 38.5115 239.62 37.6439 239.629 36.7707C239.623 35.9704 239.776 35.1768 240.076 34.4335C240.36 33.7358 240.778 33.0992 241.309 32.5594C241.844 32.0265 242.48 31.6026 243.181 31.312C244.297 30.8574 245.523 30.7375 246.707 30.9676C247.891 31.1976 248.98 31.7672 249.837 32.605L249.841 27.2834Z" fill="black"/>
<path d="M284.583 35.292C283.809 35.81 282.884 36.0618 281.95 36.0083H280.617V30.3482H281.95C282.884 30.2942 283.81 30.5461 284.583 31.0646C284.889 31.3282 285.134 31.6533 285.302 32.018C285.47 32.3827 285.557 32.7786 285.557 33.1792C285.557 33.5797 285.47 33.9756 285.302 34.3403C285.134 34.705 284.889 35.0301 284.583 35.2938V35.292ZM292.358 47.0859L285.703 38.4251L286.183 38.3132C287.428 38.0797 288.552 37.4259 289.361 36.4641C290.116 35.4225 290.494 34.1611 290.435 32.8823C290.44 32.0219 290.303 31.1663 290.03 30.3491C289.769 29.643 289.362 28.9978 288.836 28.4544C288.267 27.8848 287.58 27.4437 286.821 27.1613C285.891 26.8239 284.906 26.6611 283.915 26.6814H275.859V47.0805H280.606V38.1717L286.434 47.0805H292.35L292.358 47.0859Z" fill="black"/>
<path d="M306.336 29.7219L303.803 31.2003C303.489 30.5707 303.025 30.0261 302.449 29.6135C301.84 29.2897 301.15 29.1461 300.46 29.2001C299.771 29.2541 299.111 29.5034 298.562 29.918C298.29 30.1331 298.071 30.407 297.922 30.7185C297.774 31.0301 297.7 31.371 297.706 31.7152C297.706 32.7103 298.457 33.5126 299.958 34.1221L302.022 34.9558C303.444 35.4481 304.713 36.2927 305.708 37.4084C306.502 38.4222 306.914 39.6767 306.873 40.9571C306.9 41.8211 306.744 42.6812 306.415 43.4827C306.087 44.2843 305.594 45.0099 304.966 45.6134C304.339 46.22 303.596 46.6961 302.779 47.0131C301.962 47.3302 301.088 47.4818 300.211 47.4589C298.577 47.518 296.984 46.9546 295.76 45.8856C294.539 44.703 293.776 43.1366 293.604 41.4576L296.766 40.7708C296.803 41.6473 297.061 42.5008 297.516 43.2548C297.824 43.635 298.209 43.948 298.646 44.174C299.084 44.4 299.564 44.5341 300.056 44.5678C300.549 44.6014 301.043 44.534 301.508 44.3696C301.973 44.2053 302.398 43.9476 302.756 43.613C303.076 43.2907 303.327 42.9079 303.493 42.4876C303.659 42.0674 303.737 41.6183 303.723 41.1675C303.726 40.7978 303.67 40.43 303.556 40.0777C303.441 39.7448 303.263 39.4361 303.033 39.1671C302.766 38.8657 302.458 38.6026 302.117 38.3853C301.691 38.1174 301.243 37.8856 300.777 37.6923L298.779 36.872C295.948 35.6918 294.531 33.9648 294.53 31.691C294.517 30.9587 294.671 30.2328 294.979 29.5666C295.288 28.9004 295.744 28.3107 296.314 27.8406C297.539 26.7871 299.123 26.2301 300.748 26.2816C301.913 26.2783 303.055 26.599 304.043 27.207C305.031 27.8149 305.825 28.6854 306.334 29.7183" fill="black"/>
<path d="M312.206 36.803C312.173 37.8381 312.361 38.8686 312.758 39.8273C313.155 40.7859 313.754 41.6511 314.513 42.3664C315.95 43.7695 317.893 44.5531 319.916 44.5452C321.938 44.5373 323.875 43.7386 325.301 42.3243C326.732 40.8537 327.533 38.8959 327.538 36.8578C327.544 34.8197 326.752 32.858 325.329 31.3802C323.883 29.9565 321.923 29.1569 319.88 29.1569C317.836 29.1569 315.876 29.9565 314.431 31.3802C313.704 32.0864 313.131 32.9318 312.748 33.8644C312.365 34.797 312.179 35.7971 312.203 36.803H312.206ZM309.055 36.7609C309.039 35.3762 309.316 34.0033 309.867 32.7295C310.418 31.4558 311.232 30.3089 312.256 29.3618C313.257 28.3632 314.452 27.5744 315.77 27.0429C317.087 26.5114 318.501 26.2482 319.924 26.269C322.774 26.2843 325.502 27.4071 327.517 29.3937C329.532 31.3803 330.671 34.0704 330.687 36.88C330.711 38.2749 330.44 39.6594 329.89 40.945C329.341 42.2306 328.525 43.389 327.496 44.3462C325.515 46.2596 322.871 47.3594 320.099 47.4231C317.327 47.4868 314.634 46.5095 312.565 44.6892C311.416 43.7102 310.505 42.4899 309.897 41.1179C309.29 39.7458 309.002 38.257 309.055 36.7609Z" fill="black"/>
<path d="M369.26 29.5747H360.963V34.4755H369.019V37.3732H360.963V44.1902H369.26V47.0843H357.84V26.6807H369.26V29.5747Z" fill="black"/>
<path d="M267.747 47.0843H273.113L265.235 26.6807H260.038L252.16 47.0843H257.525L262.638 32.2862L267.747 47.0843Z" fill="black"/>
<path d="M351.509 26.6985H348.101L343.54 42.898L338.977 26.6985H335.569L331.885 47.0663H334.973L337.471 31.3467L342.107 47.266H344.972L349.608 31.3467L352.106 47.0663H355.191L351.509 26.6985Z" fill="black"/>
<defs>
<linearGradient id="paint0_linear_6591_67481" x1="4241.25" y1="14930.8" x2="4241.25" y2="33430.2" gradientUnits="userSpaceOnUse">
<stop stop-color="#3A79E7"/>
<stop offset="1" stop-color="#AFD7FE"/>
</linearGradient>
<linearGradient id="paint1_linear_6591_67481" x1="-5.25087e-05" y1="173.469" x2="387.128" y2="173.469" gradientUnits="userSpaceOnUse">
<stop stop-color="#F6D355"/>
<stop offset="1" stop-color="#FF8A48"/>
</linearGradient>
<linearGradient id="paint2_linear_6591_67481" x1="122.058" y1="120.929" x2="306.102" y2="120.929" gradientUnits="userSpaceOnUse">
<stop stop-color="#BE6302"/>
<stop offset="1" stop-color="#7E4502"/>
</linearGradient>
<linearGradient id="paint3_linear_6591_67481" x1="27321.3" y1="3793.6" x2="37215.4" y2="3793.6" gradientUnits="userSpaceOnUse">
<stop stop-color="#BE6302"/>
<stop offset="1" stop-color="#7E4502"/>
</linearGradient>
<linearGradient id="paint4_linear_6591_67481" x1="-5.27435" y1="193.158" x2="25.7302" y2="237.706" gradientUnits="userSpaceOnUse">
<stop stop-color="#E0CBAB"/>
<stop offset="1" stop-color="#FFF0DE"/>
</linearGradient>
<linearGradient id="paint5_linear_6591_67481" x1="132.59" y1="113.656" x2="63.4072" y2="183.825" gradientUnits="userSpaceOnUse">
<stop stop-color="#BE6302"/>
<stop offset="1" stop-color="#E4BB82"/>
</linearGradient>
<linearGradient id="paint6_linear_6591_67481" x1="3505.24" y1="2673.6" x2="2109.46" y2="4310.22" gradientUnits="userSpaceOnUse">
<stop stop-color="#BE6302"/>
<stop offset="1" stop-color="#E4BB82"/>
</linearGradient>
<linearGradient id="paint7_linear_6591_67481" x1="3924.23" y1="4253.97" x2="1484.19" y2="7338.75" gradientUnits="userSpaceOnUse">
<stop stop-color="#BE6302"/>
<stop offset="1" stop-color="#E4BB82"/>
</linearGradient>
<linearGradient id="paint8_linear_6591_67481" x1="222.776" y1="229.301" x2="275.231" y2="229.301" gradientUnits="userSpaceOnUse">
<stop stop-color="#FFCE6C"/>
<stop offset="1" stop-color="#E4BB82"/>
</linearGradient>
<linearGradient id="paint9_linear_6591_67481" x1="10558.4" y1="5225.4" x2="11278.8" y2="5225.4" gradientUnits="userSpaceOnUse">
<stop stop-color="#FFCE6C"/>
<stop offset="1" stop-color="#E4BB82"/>
</linearGradient>
<linearGradient id="paint10_linear_6591_67481" x1="5990.52" y1="15049.3" x2="9290.37" y2="17335.4" gradientUnits="userSpaceOnUse">
<stop stop-color="#E0CBAB"/>
<stop offset="1" stop-color="#FFF0DE"/>
</linearGradient>
<linearGradient id="paint11_linear_6591_67481" x1="143.689" y1="121.093" x2="273.807" y2="121.093" gradientUnits="userSpaceOnUse">
<stop stop-color="#3A79E7"/>
<stop offset="1" stop-color="#6090FE"/>
</linearGradient>
<linearGradient id="paint12_linear_6591_67481" x1="14682.3" y1="6462.62" x2="9870.23" y2="6462.62" gradientUnits="userSpaceOnUse">
<stop stop-color="#3A79E7"/>
<stop offset="1" stop-color="#AFD7FE"/>
</linearGradient>
<linearGradient id="paint13_linear_6591_67481" x1="3843.9" y1="2761.77" x2="5720.34" y2="4271.44" gradientUnits="userSpaceOnUse">
<stop stop-color="#3A79E7"/>
<stop offset="1" stop-color="#6090FE"/>
</linearGradient>
<linearGradient id="paint14_linear_6591_67481" x1="2668.05" y1="428.094" x2="2762.9" y2="869.064" gradientUnits="userSpaceOnUse">
<stop stop-color="#3A79E7"/>
<stop offset="1" stop-color="#6090FE"/>
</linearGradient>
<linearGradient id="paint15_linear_6591_67481" x1="330.299" y1="515.012" x2="477.905" y2="550.223" gradientUnits="userSpaceOnUse">
<stop stop-color="#3A79E7"/>
<stop offset="1" stop-color="#6090FE"/>
</linearGradient>
<linearGradient id="paint16_linear_6591_67481" x1="623.694" y1="497.227" x2="899.069" y2="689.434" gradientUnits="userSpaceOnUse">
<stop stop-color="#3A79E7"/>
<stop offset="1" stop-color="#6090FE"/>
</linearGradient>
<linearGradient id="paint17_linear_6591_67481" x1="660.55" y1="459.673" x2="935.927" y2="651.874" gradientUnits="userSpaceOnUse">
<stop stop-color="#3A79E7"/>
<stop offset="1" stop-color="#6090FE"/>
</linearGradient>
<linearGradient id="paint18_linear_6591_67481" x1="767.945" y1="270.445" x2="930.597" y2="502.514" gradientUnits="userSpaceOnUse">
<stop stop-color="#3A79E7"/>
<stop offset="1" stop-color="#6090FE"/>
</linearGradient>
<linearGradient id="paint19_linear_6591_67481" x1="584.886" y1="50.9626" x2="584.886" y2="66.2192" gradientUnits="userSpaceOnUse">
<stop stop-color="#ECF3F9"/>
<stop offset="1" stop-color="#8FC1FF"/>
</linearGradient>
<linearGradient id="paint20_linear_6591_67481" x1="2244.37" y1="506.308" x2="2244.37" y2="639.529" gradientUnits="userSpaceOnUse">
<stop stop-color="#ECF3F9"/>
<stop offset="1" stop-color="#8FC1FF"/>
</linearGradient>
<linearGradient id="paint21_linear_6591_67481" x1="2199.77" y1="599.625" x2="2199.77" y2="761.817" gradientUnits="userSpaceOnUse">
<stop stop-color="#ECF3F9"/>
<stop offset="1" stop-color="#8FC1FF"/>
</linearGradient>
<linearGradient id="paint22_linear_6591_67481" x1="2199.77" y1="361.886" x2="2199.77" y2="455.575" gradientUnits="userSpaceOnUse">
<stop stop-color="#ECF3F9"/>
<stop offset="1" stop-color="#8FC1FF"/>
</linearGradient>
<linearGradient id="paint23_linear_6591_67481" x1="18323.7" y1="6660.13" x2="31923.4" y2="6660.13" gradientUnits="userSpaceOnUse">
<stop stop-color="#3A79E7"/>
<stop offset="1" stop-color="#AFD7FE"/>
</linearGradient>
</defs>
</svg>
