<svg width="97" height="77" viewBox="0 0 97 77" fill="none" xmlns="http://www.w3.org/2000/svg">
<path d="M13.0195 20.0029L12.5391 23.1084C12.4062 24.0459 12.1758 24.9521 11.8477 25.8271C11.5195 26.6943 11.082 27.4717 10.5352 28.1592C9.99609 28.8467 9.33203 29.3857 8.54297 29.7764C7.76172 30.167 6.83594 30.3506 5.76562 30.3271C4.95312 30.3115 4.25391 30.167 3.66797 29.8936C3.08203 29.6123 2.59375 29.2373 2.20312 28.7686C1.82031 28.2998 1.52344 27.7607 1.3125 27.1514C1.10938 26.542 0.984375 25.8936 0.9375 25.2061C0.890625 24.5186 0.910156 23.8232 0.996094 23.1201L1.46484 20.0029C1.60547 19.0654 1.83984 18.1631 2.16797 17.2959C2.49609 16.4209 2.93359 15.6396 3.48047 14.9521C4.02734 14.2646 4.69531 13.7295 5.48438 13.3467C6.27344 12.9561 7.19922 12.7725 8.26172 12.7959C9.07422 12.8115 9.77344 12.96 10.3594 13.2412C10.9453 13.5146 11.4297 13.8857 11.8125 14.3545C12.1953 14.8232 12.4883 15.3623 12.6914 15.9717C12.9023 16.5811 13.0312 17.2295 13.0781 17.917C13.125 18.6045 13.1055 19.2998 13.0195 20.0029ZM8.63672 23.6123L9.24609 19.4756C9.26953 19.2412 9.29688 18.9717 9.32812 18.667C9.35938 18.3623 9.36719 18.0498 9.35156 17.7295C9.34375 17.4014 9.29688 17.0967 9.21094 16.8154C9.13281 16.5342 8.99609 16.3037 8.80078 16.124C8.61328 15.9365 8.34766 15.835 8.00391 15.8193C7.51953 15.7959 7.11719 15.9014 6.79688 16.1357C6.48438 16.3701 6.23438 16.6826 6.04688 17.0732C5.85938 17.4561 5.71484 17.8662 5.61328 18.3037C5.51953 18.7334 5.44531 19.1279 5.39062 19.4873L4.78125 23.6123C4.75781 23.8467 4.73047 24.1201 4.69922 24.4326C4.66797 24.7373 4.65625 25.0537 4.66406 25.3818C4.67188 25.71 4.71484 26.0146 4.79297 26.2959C4.87891 26.5771 5.01953 26.8115 5.21484 26.999C5.41016 27.1787 5.67969 27.2803 6.02344 27.3037C6.50781 27.3271 6.90625 27.2217 7.21875 26.9873C7.53906 26.7451 7.79297 26.4326 7.98047 26.0498C8.16797 25.6592 8.30859 25.2451 8.40234 24.8076C8.50391 24.3701 8.58203 23.9717 8.63672 23.6123ZM18.5039 19.9092L20.2148 19.9326C20.6836 19.917 21.0977 19.8193 21.457 19.6396C21.8242 19.46 22.1172 19.2021 22.3359 18.8662C22.5625 18.5225 22.7031 18.1162 22.7578 17.6475C22.8047 17.2959 22.7695 16.9834 22.6523 16.71C22.543 16.4365 22.3633 16.2217 22.1133 16.0654C21.8711 15.9014 21.5703 15.8154 21.2109 15.8076C20.8672 15.7998 20.5508 15.8623 20.2617 15.9951C19.9727 16.1279 19.7266 16.3154 19.5234 16.5576C19.3281 16.7998 19.1953 17.085 19.125 17.4131L15.2461 17.4365C15.3008 16.4053 15.6289 15.542 16.2305 14.8467C16.8398 14.1514 17.5938 13.6318 18.4922 13.2881C19.3906 12.9365 20.3125 12.7646 21.2578 12.7725C22.2422 12.7881 23.1562 12.9717 24 13.3232C24.8438 13.667 25.5156 14.1943 26.0156 14.9053C26.5156 15.6084 26.7344 16.499 26.6719 17.5771C26.6328 18.3037 26.4336 18.9404 26.0742 19.4873C25.7148 20.0342 25.25 20.4873 24.6797 20.8467C24.1172 21.2061 23.5039 21.4795 22.8398 21.667C22.1836 21.8467 21.5312 21.9365 20.8828 21.9365L18.1758 21.9248L18.5039 19.9092ZM18.0352 22.8506L18.3516 20.8818L20.6602 20.8936C21.3242 20.9092 21.9648 21.0029 22.582 21.1748C23.1992 21.3467 23.75 21.6045 24.2344 21.9482C24.7266 22.292 25.1055 22.7334 25.3711 23.2725C25.6367 23.8115 25.7539 24.4561 25.7227 25.2061C25.6758 26.0811 25.4492 26.8467 25.043 27.5029C24.6367 28.1514 24.1094 28.6865 23.4609 29.1084C22.8203 29.5303 22.1094 29.8428 21.3281 30.0459C20.5547 30.249 19.7734 30.3467 18.9844 30.3389C18.2266 30.3232 17.5234 30.2021 16.875 29.9756C16.2266 29.7412 15.6562 29.4131 15.1641 28.9912C14.6797 28.5615 14.3008 28.042 14.0273 27.4326C13.7617 26.8154 13.6289 26.1162 13.6289 25.335H17.4609C17.4688 25.7021 17.5469 26.0303 17.6953 26.3193C17.8438 26.6084 18.0547 26.8389 18.3281 27.0107C18.6016 27.1748 18.9258 27.2607 19.3008 27.2686C19.7305 27.2764 20.1328 27.1943 20.5078 27.0225C20.8828 26.8428 21.1953 26.5928 21.4453 26.2725C21.6953 25.9443 21.8516 25.5615 21.9141 25.124C21.9766 24.6631 21.9492 24.2686 21.832 23.9404C21.7227 23.6045 21.5234 23.3467 21.2344 23.167C20.9453 22.9795 20.5664 22.8779 20.0977 22.8623L18.0352 22.8506Z" fill="url(#paint0_linear_11755_24982)"/>
<g filter="url(#filter0_d_11755_24982)">
<circle cx="59" cy="38.0928" r="30" fill="#F4F6F8"/>
<circle cx="59" cy="38.0928" r="29" stroke="#173559" stroke-width="2"/>
</g>
<mask id="mask0_11755_24982" style="mask-type:alpha" maskUnits="userSpaceOnUse" x="34" y="13" width="50" height="50">
<circle cx="58.9998" cy="38.0926" r="24.2059" fill="white" stroke="#173559"/>
</mask>
<g mask="url(#mask0_11755_24982)">
<path d="M50.7811 50.317C50.8868 50.2596 51.006 50.232 51.1261 50.237L62.9272 50.7283C63.0709 50.7342 63.2127 50.6935 63.3313 50.612L70.9549 45.3788C71.5154 45.0746 71.7082 44.398 71.3846 43.871C71.0609 43.3438 70.3413 43.1626 69.7808 43.4668L63.7016 46.7668C63.5614 46.8429 63.3984 46.8661 63.2425 46.8321L56.7477 45.415C56.3802 45.3348 56.1522 44.9662 56.2446 44.6016L56.3094 44.3462C56.3968 44.0015 56.7398 43.7864 57.0881 43.858L59.78 44.4109C60.4198 44.5221 61.0557 44.1474 61.221 43.548C61.3935 42.9223 60.9933 42.2783 60.3283 42.1129L54.2474 40.7374C53.3643 40.5377 52.4298 40.6853 51.6604 41.1442C51.6249 41.1654 51.588 41.184 51.5495 41.199L46.4209 43.1871C46.1648 43.2864 45.9961 43.5328 45.9961 43.8074V44.4109V48.0518V52.1928C45.9961 52.7216 46.5832 53.039 47.0256 52.7495L50.5567 50.4387L50.7811 50.317Z" fill="#D7E7FF"/>
<path fill-rule="evenodd" clip-rule="evenodd" d="M57.0877 43.8576C57.0875 43.8576 57.0873 43.8575 57.0871 43.8575C56.739 43.7863 56.3964 44.0013 56.309 44.3458L56.2443 44.6012C56.1519 44.9658 56.3798 45.3345 56.7473 45.4147L63.2421 46.8317C63.398 46.8658 63.561 46.8426 63.7013 46.7664L69.7805 43.4665C70.341 43.1622 71.0606 43.3435 71.3843 43.8706C71.7079 44.3976 71.5151 45.0742 70.9546 45.3785L63.331 50.6117C63.2124 50.6931 63.0705 50.7339 62.9268 50.7279L51.1257 50.2366C51.0056 50.2316 50.8864 50.2593 50.7808 50.3166L50.5564 50.4384L47.0253 52.7491C46.5828 53.0386 45.9957 52.7212 45.9957 52.1924V43.8071C45.9957 43.5324 46.1645 43.286 46.4205 43.1868L51.5491 41.1986C51.5876 41.1837 51.6246 41.165 51.6601 41.1438C52.4295 40.6849 53.364 40.5373 54.2471 40.7371L60.328 42.1126C60.9929 42.2779 61.3931 42.9219 61.2206 43.5477C61.14 43.8399 60.9476 44.0787 60.6974 44.2338C60.4344 44.3969 60.1075 44.4675 59.7797 44.4106L57.0877 43.8576ZM62.8942 44.7131L63.1841 44.7764L68.8284 41.7125C70.274 40.9277 72.1785 41.3501 73.085 42.8263C74.0158 44.3421 73.4474 46.2154 72.0192 47.0683L64.4604 52.2571C63.986 52.5827 63.4188 52.7458 62.8438 52.7219L51.4372 52.2471L48.1181 54.4191C46.3483 55.5772 44 54.3075 44 52.1924V43.8071C44 42.7086 44.675 41.723 45.6992 41.326L50.7319 39.3749C51.9257 38.695 53.3448 38.4868 54.6874 38.7905L60.7889 40.1707L60.8094 40.1758C62.4612 40.5864 63.6425 42.2718 63.1446 44.078C63.0822 44.3044 62.9976 44.5165 62.8942 44.7131Z" fill="#173559"/>
<path d="M65.1556 29.4753C65.1556 33.0024 62.2963 35.8616 58.7692 35.8616C55.2421 35.8616 52.3828 33.0024 52.3828 29.4753C52.3828 25.9481 55.2421 23.0889 58.7692 23.0889C62.2963 23.0889 65.1556 25.9481 65.1556 29.4753Z" fill="#173559"/>
<path fill-rule="evenodd" clip-rule="evenodd" d="M67.151 29.4749C67.151 34.1042 63.3982 37.857 58.7689 37.857C54.1395 37.857 50.3867 34.1042 50.3867 29.4749C50.3867 24.8456 54.1395 21.0928 58.7689 21.0928C63.3982 21.0928 67.151 24.8456 67.151 29.4749ZM58.7689 35.8613C62.296 35.8613 65.1552 33.002 65.1552 29.4749C65.1552 25.9478 62.296 23.0885 58.7689 23.0885C55.2417 23.0885 52.3825 25.9478 52.3825 29.4749C52.3825 33.002 55.2417 35.8613 58.7689 35.8613Z" fill="#173559"/>
<path fill-rule="evenodd" clip-rule="evenodd" d="M58.7692 35.8616C62.2963 35.8616 65.1556 33.0024 65.1556 29.4753C65.1556 25.9481 62.2963 23.0889 58.7692 23.0889C55.2421 23.0889 52.3828 25.9481 52.3828 29.4753C52.3828 33.0024 55.2421 35.8616 58.7692 35.8616ZM59.1128 30.0445H58.4924C58.1118 30.0445 57.7451 29.9007 57.4659 29.642C57.1867 29.3832 57.0155 29.0286 56.9865 28.649C56.9575 28.2694 57.0729 27.8929 57.3097 27.5948C57.5464 27.2966 57.8869 27.0989 58.2632 27.041V26.4822C58.2632 26.3391 58.32 26.2019 58.4212 26.1007C58.5223 25.9995 58.6596 25.9427 58.8026 25.9427C58.9457 25.9427 59.0829 25.9995 59.1841 26.1007C59.2853 26.2019 59.3421 26.3391 59.3421 26.4822V27.0216H59.641C59.7841 27.0216 59.9213 27.0785 60.0224 27.1796C60.1236 27.2808 60.1804 27.418 60.1804 27.5611C60.1804 27.7042 60.1236 27.8414 60.0224 27.9426C59.9213 28.0437 59.7841 28.1006 59.641 28.1006H58.4924C58.3777 28.1006 58.2677 28.1461 58.1866 28.2272C58.1055 28.3084 58.0599 28.4184 58.0599 28.5331C58.0599 28.6478 58.1055 28.7578 58.1866 28.8389C58.2677 28.92 58.3777 28.9656 58.4924 28.9656H59.1128C59.4935 28.9657 59.8601 29.1094 60.1394 29.3682C60.4186 29.6269 60.5898 29.9816 60.6188 30.3612C60.6477 30.7407 60.5323 31.1172 60.2956 31.4154C60.0589 31.7135 59.7184 31.9113 59.3421 31.9691V32.4163C59.3421 32.5594 59.2853 32.6966 59.1841 32.7978C59.0829 32.899 58.9457 32.9558 58.8026 32.9558C58.6596 32.9558 58.5223 32.899 58.4212 32.7978C58.32 32.6966 58.2632 32.5594 58.2632 32.4163V31.9885H57.875C57.7319 31.9885 57.5947 31.9317 57.4936 31.8305C57.3924 31.7294 57.3355 31.5921 57.3355 31.4491C57.3355 31.306 57.3924 31.1688 57.4936 31.0676C57.5947 30.9664 57.7319 30.9096 57.875 30.9096H59.1128C59.2275 30.9096 59.3376 30.864 59.4187 30.7829C59.4998 30.7018 59.5454 30.5918 59.5454 30.4771C59.5454 30.3624 59.4998 30.2523 59.4187 30.1712C59.3376 30.0901 59.2275 30.0445 59.1128 30.0445Z" fill="#FDCF33"/>
</g>
<defs>
<filter id="filter0_d_11755_24982" x="21" y="0.0927734" width="76" height="76" filterUnits="userSpaceOnUse" color-interpolation-filters="sRGB">
<feFlood flood-opacity="0" result="BackgroundImageFix"/>
<feColorMatrix in="SourceAlpha" type="matrix" values="0 0 0 0 0 0 0 0 0 0 0 0 0 0 0 0 0 0 127 0" result="hardAlpha"/>
<feOffset/>
<feGaussianBlur stdDeviation="4"/>
<feColorMatrix type="matrix" values="0 0 0 0 0.135764 0 0 0 0 0.139187 0 0 0 0 0.141667 0 0 0 0.16 0"/>
<feBlend mode="normal" in2="BackgroundImageFix" result="effect1_dropShadow_11755_24982"/>
<feBlend mode="normal" in="SourceGraphic" in2="effect1_dropShadow_11755_24982" result="shape"/>
</filter>
<linearGradient id="paint0_linear_11755_24982" x1="13.5" y1="8.09277" x2="13.5" y2="36.0928" gradientUnits="userSpaceOnUse">
<stop stop-color="#D5DCE6"/>
<stop offset="1" stop-color="#D5DCE6" stop-opacity="0"/>
</linearGradient>
</defs>
</svg>
