<svg width="97" height="77" viewBox="0 0 97 77" fill="none" xmlns="http://www.w3.org/2000/svg">
<path d="M13.0195 20.0029L12.5391 23.1084C12.4062 24.0459 12.1758 24.9521 11.8477 25.8271C11.5195 26.6943 11.082 27.4717 10.5352 28.1592C9.99609 28.8467 9.33203 29.3857 8.54297 29.7764C7.76172 30.167 6.83594 30.3506 5.76562 30.3271C4.95312 30.3115 4.25391 30.167 3.66797 29.8936C3.08203 29.6123 2.59375 29.2373 2.20312 28.7686C1.82031 28.2998 1.52344 27.7607 1.3125 27.1514C1.10938 26.542 0.984375 25.8936 0.9375 25.2061C0.890625 24.5186 0.910156 23.8232 0.996094 23.1201L1.46484 20.0029C1.60547 19.0654 1.83984 18.1631 2.16797 17.2959C2.49609 16.4209 2.93359 15.6396 3.48047 14.9521C4.02734 14.2646 4.69531 13.7295 5.48438 13.3467C6.27344 12.9561 7.19922 12.7725 8.26172 12.7959C9.07422 12.8115 9.77344 12.96 10.3594 13.2412C10.9453 13.5146 11.4297 13.8857 11.8125 14.3545C12.1953 14.8232 12.4883 15.3623 12.6914 15.9717C12.9023 16.5811 13.0312 17.2295 13.0781 17.917C13.125 18.6045 13.1055 19.2998 13.0195 20.0029ZM8.63672 23.6123L9.24609 19.4756C9.26953 19.2412 9.29688 18.9717 9.32812 18.667C9.35938 18.3623 9.36719 18.0498 9.35156 17.7295C9.34375 17.4014 9.29688 17.0967 9.21094 16.8154C9.13281 16.5342 8.99609 16.3037 8.80078 16.124C8.61328 15.9365 8.34766 15.835 8.00391 15.8193C7.51953 15.7959 7.11719 15.9014 6.79688 16.1357C6.48438 16.3701 6.23438 16.6826 6.04688 17.0732C5.85938 17.4561 5.71484 17.8662 5.61328 18.3037C5.51953 18.7334 5.44531 19.1279 5.39062 19.4873L4.78125 23.6123C4.75781 23.8467 4.73047 24.1201 4.69922 24.4326C4.66797 24.7373 4.65625 25.0537 4.66406 25.3818C4.67188 25.71 4.71484 26.0146 4.79297 26.2959C4.87891 26.5771 5.01953 26.8115 5.21484 26.999C5.41016 27.1787 5.67969 27.2803 6.02344 27.3037C6.50781 27.3271 6.90625 27.2217 7.21875 26.9873C7.53906 26.7451 7.79297 26.4326 7.98047 26.0498C8.16797 25.6592 8.30859 25.2451 8.40234 24.8076C8.50391 24.3701 8.58203 23.9717 8.63672 23.6123ZM25.4648 27.0459L24.9844 30.0928H13.418L13.8398 27.374L19.9102 21.7373C20.2383 21.417 20.5898 21.0576 20.9648 20.6592C21.3398 20.2607 21.6719 19.835 21.9609 19.3818C22.2578 18.9209 22.4414 18.4521 22.5117 17.9756C22.5586 17.6162 22.5508 17.2725 22.4883 16.9443C22.4336 16.6162 22.2969 16.3467 22.0781 16.1357C21.8672 15.917 21.5508 15.8037 21.1289 15.7959C20.6445 15.7803 20.2383 15.9131 19.9102 16.1943C19.5898 16.4756 19.3398 16.8271 19.1602 17.249C18.9883 17.6709 18.875 18.0889 18.8203 18.5029L14.9883 18.5264C15.043 17.3936 15.375 16.3936 15.9844 15.5264C16.6016 14.6592 17.3867 13.9795 18.3398 13.4873C19.3008 12.9951 20.3359 12.7568 21.4453 12.7725C22.4531 12.7881 23.3516 12.9795 24.1406 13.3467C24.9375 13.7139 25.5508 14.2568 25.9805 14.9756C26.4102 15.6943 26.582 16.5889 26.4961 17.6592C26.4336 18.4014 26.2383 19.0889 25.9102 19.7217C25.5898 20.3545 25.1875 20.9482 24.7031 21.5029C24.2266 22.0498 23.7148 22.5732 23.168 23.0732C22.6289 23.5654 22.1094 24.0459 21.6094 24.5146L19.0195 27.0225L25.4648 27.0459Z" fill="url(#paint0_linear_11755_24963)"/>
<g filter="url(#filter0_d_11755_24963)">
<circle cx="59" cy="38.0928" r="30" fill="#F4F6F8"/>
<circle cx="59" cy="38.0928" r="29" stroke="#173559" stroke-width="2"/>
</g>
<mask id="mask0_11755_24963" style="mask-type:alpha" maskUnits="userSpaceOnUse" x="34" y="13" width="50" height="50">
<circle cx="58.9998" cy="38.0926" r="24.2059" fill="white" stroke="#173559"/>
</mask>
<g mask="url(#mask0_11755_24963)">
<path d="M63.412 34.5061C63.1932 33.8585 62.5806 33.3975 61.8586 33.3975H49.825C49.103 33.3975 48.5013 33.8585 48.2715 34.5061L45.9961 41.0811V49.8624C45.9961 50.4661 46.4884 50.96 47.0901 50.96H48.184C48.7857 50.96 49.278 50.4661 49.278 49.8624V48.7647H62.4056V49.8624C62.4056 50.4661 62.8978 50.96 63.4995 50.96H64.5935C65.1952 50.96 65.6875 50.4661 65.6875 49.8624V41.0811L63.412 34.5061Z" fill="#173559"/>
<path fill-rule="evenodd" clip-rule="evenodd" d="M48.2712 34.5067C48.5009 33.8591 49.1026 33.3981 49.8246 33.3981H61.8582C62.5802 33.3981 63.1929 33.8591 63.4117 34.5067L65.6871 41.0817V49.863C65.6871 50.4667 65.1948 50.9606 64.5931 50.9606H63.4992C62.8975 50.9606 62.4052 50.4667 62.4052 49.863V48.7653H49.2776V49.863C49.2776 50.4667 48.7854 50.9606 48.1837 50.9606H47.0897C46.488 50.9606 45.9957 50.4667 45.9957 49.863V41.0817L48.2712 34.5067ZM51.1405 50.7611C50.7559 52.0272 49.5801 52.9564 48.1837 52.9564H47.0897C45.3795 52.9564 44 51.5626 44 49.863V40.7461L46.3877 33.8468L46.3903 33.8395C46.8865 32.4406 48.2107 31.4023 49.8246 31.4023H61.8582C63.4482 31.4023 64.8092 32.4197 65.2996 33.8596L67.6828 40.7461V49.863C67.6828 51.5626 66.3034 52.9564 64.5931 52.9564H63.4992C62.1028 52.9564 60.9269 52.0272 60.5424 50.7611H51.1405Z" fill="#173559"/>
<path d="M63.412 34.5061C63.1932 33.8585 62.5806 33.3975 61.8586 33.3975H49.825C49.103 33.3975 48.5013 33.8585 48.2715 34.5061L45.9961 41.0811V49.8624C45.9961 50.4661 46.4884 50.96 47.0901 50.96H48.184C48.7857 50.96 49.278 50.4661 49.278 49.8624V48.7647H62.4056V49.8624C62.4056 50.4661 62.8978 50.96 63.4995 50.96H64.5935C65.1952 50.96 65.6875 50.4661 65.6875 49.8624V41.0811L63.412 34.5061ZM49.825 45.4717C48.917 45.4717 48.184 44.7363 48.184 43.8252C48.184 42.9142 48.917 42.1787 49.825 42.1787C50.733 42.1787 51.4659 42.9142 51.4659 43.8252C51.4659 44.7363 50.733 45.4717 49.825 45.4717ZM61.8586 45.4717C60.9506 45.4717 60.2176 44.7363 60.2176 43.8252C60.2176 42.9142 60.9506 42.1787 61.8586 42.1787C62.7666 42.1787 63.4995 42.9142 63.4995 43.8252C63.4995 44.7363 62.7666 45.4717 61.8586 45.4717ZM48.184 39.9834L49.825 35.044H61.8586L63.4995 39.9834H48.184Z" fill="#D7E7FF"/>
<path d="M55.5742 29.233C55.5742 23.8283 60.2468 19.5411 65.7727 20.1506C70.0999 20.618 73.5739 24.3159 73.838 28.6844C73.9599 30.6959 73.4114 32.5246 72.4363 34.0891L77.3323 38.9656C78.1246 39.758 78.1246 41.0584 77.3323 41.8508C76.54 42.6432 75.2398 42.6432 74.4475 41.8508L69.5514 36.954C68.1496 37.8481 66.4838 38.3763 64.696 38.3763C59.6577 38.3763 55.5742 34.2923 55.5742 29.233Z" fill="#173559"/>
<path d="M72.0734 29.1393C72.0734 33.2542 68.7376 36.59 64.6227 36.59C60.5077 36.59 57.1719 33.2542 57.1719 29.1393C57.1719 25.0243 60.5077 21.6885 64.6227 21.6885C68.7376 21.6885 72.0734 25.0243 72.0734 29.1393Z" fill="#FDCF33"/>
<path fill-rule="evenodd" clip-rule="evenodd" d="M64.6227 35.2595C68.0028 35.2595 70.7429 32.5194 70.7429 29.1393C70.7429 25.7591 68.0028 23.019 64.6227 23.019C61.2425 23.019 58.5024 25.7591 58.5024 29.1393C58.5024 32.5194 61.2425 35.2595 64.6227 35.2595ZM64.6227 36.59C68.7376 36.59 72.0734 33.2542 72.0734 29.1393C72.0734 25.0243 68.7376 21.6885 64.6227 21.6885C60.5077 21.6885 57.1719 25.0243 57.1719 29.1393C57.1719 33.2542 60.5077 36.59 64.6227 36.59Z" fill="white"/>
<path d="M67.8153 25.6801C67.8153 26.4149 67.2196 27.0106 66.4848 27.0106C65.75 27.0106 65.1543 26.4149 65.1543 25.6801C65.1543 24.9453 65.75 24.3496 66.4848 24.3496C67.2196 24.3496 67.8153 24.9453 67.8153 25.6801Z" fill="white"/>
</g>
<defs>
<filter id="filter0_d_11755_24963" x="21" y="0.0927734" width="76" height="76" filterUnits="userSpaceOnUse" color-interpolation-filters="sRGB">
<feFlood flood-opacity="0" result="BackgroundImageFix"/>
<feColorMatrix in="SourceAlpha" type="matrix" values="0 0 0 0 0 0 0 0 0 0 0 0 0 0 0 0 0 0 127 0" result="hardAlpha"/>
<feOffset/>
<feGaussianBlur stdDeviation="4"/>
<feColorMatrix type="matrix" values="0 0 0 0 0.135764 0 0 0 0 0.139187 0 0 0 0 0.141667 0 0 0 0.16 0"/>
<feBlend mode="normal" in2="BackgroundImageFix" result="effect1_dropShadow_11755_24963"/>
<feBlend mode="normal" in="SourceGraphic" in2="effect1_dropShadow_11755_24963" result="shape"/>
</filter>
<linearGradient id="paint0_linear_11755_24963" x1="13.5" y1="8.09277" x2="13.5" y2="36.0928" gradientUnits="userSpaceOnUse">
<stop stop-color="#D5DCE6"/>
<stop offset="1" stop-color="#D5DCE6" stop-opacity="0"/>
</linearGradient>
</defs>
</svg>
