<svg width="97" height="77" viewBox="0 0 97 77" fill="none" xmlns="http://www.w3.org/2000/svg">
<path d="M13.0195 20.0029L12.5391 23.1084C12.4062 24.0459 12.1758 24.9521 11.8477 25.8271C11.5195 26.6943 11.082 27.4717 10.5352 28.1592C9.99609 28.8467 9.33203 29.3857 8.54297 29.7764C7.76172 30.167 6.83594 30.3506 5.76562 30.3271C4.95312 30.3115 4.25391 30.167 3.66797 29.8936C3.08203 29.6123 2.59375 29.2373 2.20312 28.7686C1.82031 28.2998 1.52344 27.7607 1.3125 27.1514C1.10938 26.542 0.984375 25.8936 0.9375 25.2061C0.890625 24.5186 0.910156 23.8232 0.996094 23.1201L1.46484 20.0029C1.60547 19.0654 1.83984 18.1631 2.16797 17.2959C2.49609 16.4209 2.93359 15.6396 3.48047 14.9521C4.02734 14.2646 4.69531 13.7295 5.48438 13.3467C6.27344 12.9561 7.19922 12.7725 8.26172 12.7959C9.07422 12.8115 9.77344 12.96 10.3594 13.2412C10.9453 13.5146 11.4297 13.8857 11.8125 14.3545C12.1953 14.8232 12.4883 15.3623 12.6914 15.9717C12.9023 16.5811 13.0312 17.2295 13.0781 17.917C13.125 18.6045 13.1055 19.2998 13.0195 20.0029ZM8.63672 23.6123L9.24609 19.4756C9.26953 19.2412 9.29688 18.9717 9.32812 18.667C9.35938 18.3623 9.36719 18.0498 9.35156 17.7295C9.34375 17.4014 9.29688 17.0967 9.21094 16.8154C9.13281 16.5342 8.99609 16.3037 8.80078 16.124C8.61328 15.9365 8.34766 15.835 8.00391 15.8193C7.51953 15.7959 7.11719 15.9014 6.79688 16.1357C6.48438 16.3701 6.23438 16.6826 6.04688 17.0732C5.85938 17.4561 5.71484 17.8662 5.61328 18.3037C5.51953 18.7334 5.44531 19.1279 5.39062 19.4873L4.78125 23.6123C4.75781 23.8467 4.73047 24.1201 4.69922 24.4326C4.66797 24.7373 4.65625 25.0537 4.66406 25.3818C4.67188 25.71 4.71484 26.0146 4.79297 26.2959C4.87891 26.5771 5.01953 26.8115 5.21484 26.999C5.41016 27.1787 5.67969 27.2803 6.02344 27.3037C6.50781 27.3271 6.90625 27.2217 7.21875 26.9873C7.53906 26.7451 7.79297 26.4326 7.98047 26.0498C8.16797 25.6592 8.30859 25.2451 8.40234 24.8076C8.50391 24.3701 8.58203 23.9717 8.63672 23.6123ZM24.6562 13.0186L21.7969 30.0928H17.9414L20.1211 17.5537L16.1484 18.6787L16.6875 15.5498L24.2227 13.0303L24.6562 13.0186Z" fill="url(#paint0_linear_11755_24944)"/>
<g filter="url(#filter0_d_11755_24944)">
<circle cx="59" cy="38.0928" r="30" fill="#F4F6F8"/>
<circle cx="59" cy="38.0928" r="29" stroke="#173559" stroke-width="2"/>
</g>
<mask id="mask0_11755_24944" style="mask-type:alpha" maskUnits="userSpaceOnUse" x="34" y="13" width="50" height="50">
<circle cx="58.9998" cy="38.0926" r="24.2059" fill="white" stroke="#173559"/>
</mask>
<g mask="url(#mask0_11755_24944)">
<path d="M48.5957 32.0762H68.8193V47.5099H48.5957V32.0762Z" fill="#D7E7FF"/>
<path d="M50.7266 34.2041H66.1603V45.3803H50.7266V34.2041Z" fill="#FDCF33"/>
<path d="M63.5277 25.3434V26.5941H53.3568V25.3434C53.3568 24.6556 52.7847 24.0928 52.0855 24.0928C51.3862 24.0928 50.8141 24.6556 50.8141 25.3434V26.5941H49.5427C48.1315 26.5941 47.0127 27.7197 47.0127 29.0954L47 46.6048C47 47.9805 48.1315 49.1061 49.5427 49.1061H67.3418C68.7403 49.1061 69.8846 47.9805 69.8846 46.6048V29.0954C69.8846 27.7197 68.7403 26.5941 67.3418 26.5941H66.0705V25.3434C66.0705 24.6556 65.4983 24.0928 64.7991 24.0928C64.0998 24.0928 63.5277 24.6556 63.5277 25.3434ZM66.0705 46.6048H50.8141C50.1148 46.6048 49.5427 46.042 49.5427 45.3541V32.8474H67.3418V45.3541C67.3418 46.042 66.7697 46.6048 66.0705 46.6048Z" fill="#173559"/>
<path d="M56.2643 37.5328C56.0202 37.2887 56.0202 36.8929 56.2643 36.6488C56.5084 36.4047 56.9042 36.4047 57.1483 36.6488L58.0323 37.5328C58.2764 37.7769 58.2764 38.1727 58.0323 38.4169C57.7882 38.661 57.3924 38.661 57.1483 38.4168L56.2643 37.5328Z" fill="#173559"/>
<path d="M55.4539 41.8667C55.1072 41.8602 54.8298 41.5769 54.8305 41.2301C54.8312 40.8751 55.1228 40.5896 55.4777 40.5963L56.524 40.6159C56.8707 40.6224 57.1481 40.9057 57.1474 41.2524C57.1466 41.6074 56.8551 41.8929 56.5002 41.8863L55.4539 41.8667Z" fill="#173559"/>
<path d="M61.2045 37.8401C61.0449 38.1331 60.6752 38.2372 60.3862 38.0703C60.1072 37.9092 60.0075 37.5551 60.1616 37.2721L60.7897 36.1188C60.9493 35.8257 61.319 35.7217 61.608 35.8886C61.887 36.0496 61.9867 36.4038 61.8326 36.6867L61.2045 37.8401Z" fill="#173559"/>
<path d="M64.1975 55.6582L65.7819 56.7551C66.9152 57.5397 68.3462 57.76 69.6629 57.3526L71.7978 59.0561C72.5841 59.6836 73.7023 59.6749 74.4788 59.0354L77.3956 56.6334C78.4854 55.7359 78.4157 54.0456 77.2557 53.2409L76.127 52.458L75.8816 50.7036C75.7572 49.8141 75.4643 48.9564 75.0186 48.1765L74.2701 46.8666C72.9584 44.571 70.1555 43.5933 67.7006 44.5749L64.9857 45.6605L62.1786 40.7986C61.6957 39.9622 60.6263 39.6756 59.7899 40.1585C58.9646 40.635 58.6727 41.6846 59.1337 42.5187L63.1688 49.8209C61.4098 50.8798 61.261 53.3742 62.8816 54.6348L64.1975 55.6582Z" fill="#D7E7FF"/>
<path fill-rule="evenodd" clip-rule="evenodd" d="M60.1884 40.8506C59.7398 41.1096 59.5812 41.68 59.8317 42.1334L64.2389 50.1089L63.5799 50.5056C62.301 51.2755 62.1928 53.089 63.3711 54.0054L64.6694 55.0153L66.2357 56.0996C67.1674 56.7446 68.3438 56.9257 69.4264 56.5908L69.83 56.4659L72.2951 58.4329C72.7865 58.8251 73.4854 58.8197 73.9707 58.42L76.8875 56.0179C77.5686 55.457 77.525 54.4006 76.8 53.8976L75.3841 52.9155L75.0903 50.815C74.98 50.0259 74.7202 49.2651 74.3249 48.5733L73.5764 47.2634C72.4622 45.3137 70.0815 44.4832 67.9964 45.317L65.2814 46.4026C64.9129 46.5499 64.4921 46.4042 64.2937 46.0605L61.4866 41.1985C61.2242 40.7439 60.6429 40.5882 60.1884 40.8506ZM58.4343 42.9056C57.763 41.6907 58.188 40.162 59.3901 39.4679C60.6083 38.7646 62.166 39.182 62.8693 40.4002L65.3307 44.6634L67.4036 43.8345C70.2282 42.705 73.4533 43.83 74.9626 46.4713L75.7111 47.7812C76.2071 48.6492 76.5331 49.6038 76.6715 50.5938L76.8685 52.002L77.71 52.5858C79.305 53.6922 79.4009 56.0164 77.9025 57.2504L74.9857 59.6525C73.9179 60.5318 72.3804 60.5436 71.2992 59.6809L69.4777 58.2274C68.0475 58.544 66.5419 58.2535 65.3269 57.4123L63.7242 56.3027L62.3909 55.2657C60.5382 53.8247 60.502 51.117 62.1355 49.6036L58.4343 42.9056Z" fill="#173559"/>
</g>
<defs>
<filter id="filter0_d_11755_24944" x="21" y="0.0927734" width="76" height="76" filterUnits="userSpaceOnUse" color-interpolation-filters="sRGB">
<feFlood flood-opacity="0" result="BackgroundImageFix"/>
<feColorMatrix in="SourceAlpha" type="matrix" values="0 0 0 0 0 0 0 0 0 0 0 0 0 0 0 0 0 0 127 0" result="hardAlpha"/>
<feOffset/>
<feGaussianBlur stdDeviation="4"/>
<feColorMatrix type="matrix" values="0 0 0 0 0.135764 0 0 0 0 0.139187 0 0 0 0 0.141667 0 0 0 0.16 0"/>
<feBlend mode="normal" in2="BackgroundImageFix" result="effect1_dropShadow_11755_24944"/>
<feBlend mode="normal" in="SourceGraphic" in2="effect1_dropShadow_11755_24944" result="shape"/>
</filter>
<linearGradient id="paint0_linear_11755_24944" x1="13.5" y1="8.09277" x2="13.5" y2="36.0928" gradientUnits="userSpaceOnUse">
<stop stop-color="#D5DCE6"/>
<stop offset="1" stop-color="#D5DCE6" stop-opacity="0"/>
</linearGradient>
</defs>
</svg>
